<svg width="16" height="16" viewBox="0 0 16 16" fill="none" xmlns="http://www.w3.org/2000/svg">
<g clip-path="url(#clip0_1_3026)">
<path d="M8 16C9.58225 16 11.129 15.5308 12.4446 14.6518C13.7602 13.7727 14.7855 12.5233 15.391 11.0615C15.9965 9.59966 16.155 7.99113 15.8463 6.43928C15.5376 4.88743 14.7757 3.46197 13.6569 2.34315C12.538 1.22433 11.1126 0.462403 9.56072 0.153721C8.00887 -0.15496 6.40034 0.00346629 4.93853 0.608967C3.47672 1.21447 2.22729 2.23985 1.34824 3.55544C0.469192 4.87104 0 6.41775 0 8C0.00229405 10.121 0.845885 12.1545 2.34568 13.6543C3.84547 15.1541 5.87897 15.9977 8 16ZM8 1.33334C9.31854 1.33334 10.6075 1.72433 11.7038 2.45687C12.8001 3.18942 13.6546 4.23061 14.1592 5.44878C14.6638 6.66695 14.7958 8.0074 14.5386 9.30061C14.2813 10.5938 13.6464 11.7817 12.714 12.714C11.7817 13.6464 10.5938 14.2813 9.3006 14.5386C8.00739 14.7958 6.66695 14.6638 5.44878 14.1592C4.2306 13.6546 3.18941 12.8001 2.45687 11.7038C1.72433 10.6075 1.33333 9.31855 1.33333 8C1.33527 6.23249 2.03828 4.53792 3.2881 3.2881C4.53792 2.03828 6.23249 1.33528 8 1.33334Z" fill="#101035"/>
<path d="M3.99998 8.66665H7.33331V12C7.33331 12.1768 7.40355 12.3464 7.52857 12.4714C7.6536 12.5964 7.82317 12.6666 7.99998 12.6666C8.17679 12.6666 8.34636 12.5964 8.47138 12.4714C8.59641 12.3464 8.66665 12.1768 8.66665 12V8.66665H12C12.1768 8.66665 12.3464 8.59641 12.4714 8.47138C12.5964 8.34636 12.6666 8.17679 12.6666 7.99998C12.6666 7.82317 12.5964 7.6536 12.4714 7.52857C12.3464 7.40355 12.1768 7.33331 12 7.33331H8.66665V3.99998C8.66665 3.82317 8.59641 3.6536 8.47138 3.52858C8.34636 3.40355 8.17679 3.33331 7.99998 3.33331C7.82317 3.33331 7.6536 3.40355 7.52857 3.52858C7.40355 3.6536 7.33331 3.82317 7.33331 3.99998V7.33331H3.99998C3.82317 7.33331 3.6536 7.40355 3.52858 7.52857C3.40355 7.6536 3.33331 7.82317 3.33331 7.99998C3.33331 8.17679 3.40355 8.34636 3.52858 8.47138C3.6536 8.59641 3.82317 8.66665 3.99998 8.66665Z" fill="#101035"/>
</g>
<defs>
<clipPath id="clip0_1_3026">
<rect width="16" height="16" fill="white"/>
</clipPath>
</defs>
</svg>
