<svg width="12" height="12" viewBox="0 0 12 12" fill="none" xmlns="http://www.w3.org/2000/svg">
<g clip-path="url(#clip0_1_11198)">
<path d="M0.35104 9.1642H9.53895C9.62136 9.1642 9.70101 9.13537 9.76417 9.08282C9.85242 9.00892 11.8655 7.27716 11.9882 3.53894H2.1206C1.99832 6.93224 0.144382 8.52718 0.125116 8.5431C0.0121656 8.63854 -0.029391 8.79443 0.0214238 8.93314C0.071887 9.0715 0.203401 9.1642 0.35104 9.1642ZM11.6484 1.42947H9.89051V1.0779C9.89051 0.881013 9.73581 0.726318 9.53893 0.726318C9.34205 0.726318 9.18735 0.881013 9.18735 1.0779V1.42947H7.40602V1.0779C7.40602 0.881013 7.25133 0.726318 7.05444 0.726318C6.85756 0.726318 6.70286 0.881013 6.70286 1.0779V1.42947H4.94497V1.0779C4.94497 0.881013 4.79028 0.726318 4.59339 0.726318C4.39651 0.726318 4.24182 0.881013 4.24182 1.0779V1.42947H2.48392C2.28704 1.42947 2.13235 1.58417 2.13235 1.78105V2.83579H12V1.78105C12 1.58417 11.8453 1.42947 11.6484 1.42947Z" fill="#101035"/>
<path d="M10.2157 9.62189C10.0248 9.78085 9.78514 9.86738 9.53897 9.86738H2.13239V10.9221C2.13239 11.1164 2.28963 11.2737 2.48396 11.2737H11.6484C11.8428 11.2737 12 11.1164 12 10.9221V6.98102C11.3222 8.64401 10.3763 9.48747 10.2157 9.62189Z" fill="#101035"/>
</g>
<defs>
<clipPath id="clip0_1_11198">
<rect width="12" height="12" fill="white"/>
</clipPath>
</defs>
</svg>
