<svg width="32" height="32" viewBox="0 0 32 32" fill="none" xmlns="http://www.w3.org/2000/svg">
<path fill-rule="evenodd" clip-rule="evenodd" d="M16 32C24.8366 32 32 24.8366 32 16C32 7.16344 24.8366 0 16 0C7.16344 0 0 7.16344 0 16C0 24.8366 7.16344 32 16 32Z" fill="#101035"/>
<rect x="4.80017" y="4.79999" width="22.4" height="22.4" fill="#FF0000" fill-opacity="0.01"/>
<path d="M14.3372 11.2596C14.109 8.6349 11.3708 7.34705 11.2549 7.29448C11.1462 7.24311 11.0244 7.22758 10.9073 7.24789C7.7462 7.77235 7.27072 9.61213 7.25161 9.68859C7.22532 9.79611 7.2301 9.90722 7.26355 10.0112C11.0339 21.7093 18.8697 23.8776 21.4454 24.5909C21.6438 24.6458 21.8074 24.69 21.9317 24.7306C21.9914 24.7509 22.0535 24.7593 22.1156 24.7593C22.2005 24.7593 22.2853 24.7414 22.3629 24.7056C22.4418 24.6697 24.3031 23.7928 24.7583 20.9328C24.7786 20.8085 24.7583 20.6795 24.7009 20.5672C24.6603 20.4884 23.6866 18.6355 20.9867 17.9808C20.7979 17.9318 20.6044 17.982 20.4586 18.1062C19.6068 18.8338 18.4301 19.6091 17.9224 19.6891C14.5188 18.025 12.618 14.8316 12.5464 14.2259C12.5046 13.8855 13.2847 12.6896 14.1819 11.7171C14.2954 11.5941 14.3527 11.4268 14.3372 11.2596Z" fill="black"/>
<mask id="mask0_12_5006" style="mask-type:luminance" maskUnits="userSpaceOnUse" x="7" y="7" width="18" height="18">
<path d="M14.3372 11.2596C14.109 8.6349 11.3708 7.34705 11.2549 7.29448C11.1462 7.24311 11.0244 7.22758 10.9073 7.24789C7.7462 7.77235 7.27072 9.61213 7.25161 9.68859C7.22532 9.79611 7.2301 9.90722 7.26355 10.0112C11.0339 21.7093 18.8697 23.8776 21.4454 24.5909C21.6438 24.6458 21.8074 24.69 21.9317 24.7306C21.9914 24.7509 22.0535 24.7593 22.1156 24.7593C22.2005 24.7593 22.2853 24.7414 22.3629 24.7056C22.4418 24.6697 24.3031 23.7928 24.7583 20.9328C24.7786 20.8085 24.7583 20.6795 24.7009 20.5672C24.6603 20.4884 23.6866 18.6355 20.9867 17.9808C20.7979 17.9318 20.6044 17.982 20.4586 18.1062C19.6068 18.8338 18.4301 19.6091 17.9224 19.6891C14.5188 18.025 12.618 14.8316 12.5464 14.2259C12.5046 13.8855 13.2847 12.6896 14.1819 11.7171C14.2954 11.5941 14.3527 11.4268 14.3372 11.2596Z" fill="white"/>
</mask>
<g mask="url(#mask0_12_5006)">
<rect x="4.80017" y="4.79999" width="22.4" height="22.4" fill="white"/>
</g>
</svg>
