<svg width="50" height="23" viewBox="0 0 50 23" fill="none" xmlns="http://www.w3.org/2000/svg">
<path d="M49.2471 10.5014C49.1769 9.659 49.0981 8.70567 48.9444 7.88302C48.8376 7.30766 48.6029 6.54152 47.8092 6.54152C47.7297 6.54152 47.6501 6.54931 47.5715 6.5574C47.5224 6.56205 47.4733 6.56864 47.3929 6.57014C47.3912 6.57014 47.3655 6.54526 47.3328 6.45069C47.0997 5.78631 46.122 4.95992 44.8684 3.94918C44.5595 3.70114 44.1899 3.40245 44.0324 3.24838C44.0902 2.85032 44.0816 2.36144 43.8032 2.02453C43.6738 1.86731 43.4305 1.67952 43.011 1.67952C42.9494 1.67952 42.8839 1.68327 42.7382 1.69616C42.4355 1.69616 41.829 1.57236 40.9892 1.39956C38.824 0.957288 34.7937 0.133142 28.7504 0.00350326C19.9511 -0.169899 13.0366 6.15035 12.7516 6.41652L12.5477 6.60506C12.1863 6.77891 11.0451 7.19451 7.55688 7.87702C2.60931 8.8467 1.6655 10.4156 1.48722 11.0222C1.09227 11.3157 0.452627 12.0156 0.35129 12.839C0.26983 13.4956 0.0853758 13.7641 0.0853758 13.7634L0 13.8729V18.5076L0.00963677 18.5921C0.27781 19.8229 1.55935 20.4741 3.71558 20.4741C4.40325 20.4741 4.91912 20.4042 4.89909 20.4042C4.92906 20.4026 5.19497 20.3981 5.65573 20.3886C5.6086 20.259 5.56569 20.1279 5.52864 19.9936C5.49281 19.8641 5.45998 19.7337 5.43469 19.6002C5.37385 19.2857 5.33967 18.9622 5.33967 18.63C5.33967 15.7819 7.66771 13.4645 10.5292 13.4645C13.3907 13.4645 15.7189 15.7819 15.7189 18.63C15.7189 18.8877 15.6936 19.1375 15.6573 19.3851C15.6375 19.5194 15.6144 19.6528 15.584 19.7831C15.5528 19.9182 15.5202 20.0517 15.4788 20.1829C21.9592 20.0447 30.2053 19.8623 36.5917 19.7025C36.5636 19.5721 36.5456 19.4401 36.5277 19.3066C36.5098 19.1747 36.4996 19.0428 36.4926 18.9094C36.488 18.8162 36.4786 18.7248 36.4786 18.63C36.4786 15.7819 38.8068 13.4645 41.6682 13.4645C44.4892 13.4645 46.7877 15.7182 46.8517 18.5121C46.8517 18.5509 46.8579 18.5903 46.8579 18.63C46.8579 18.7302 46.8486 18.8279 46.8422 18.9272C46.8344 19.0684 46.8204 19.2088 46.8017 19.347C48.0211 19.1468 48.9381 18.5073 49.469 17.4729C50.3773 15.7042 49.9142 13.3094 49.5883 12.8009C49.4122 12.5258 49.3249 11.4501 49.2471 10.5014Z" fill="#242E42"/>
<path d="M6.50152 20.3701C7.1779 21.9175 8.7252 23 10.5286 23C12.3968 23 13.9881 21.8367 14.6228 20.2008C14.673 20.0705 14.7179 19.9369 14.7562 19.8004C14.7928 19.67 14.8232 19.5365 14.8482 19.4014C14.8926 19.1508 14.9206 18.8931 14.9206 18.6294C14.9206 16.2152 12.955 14.2586 10.5294 14.2586C8.10378 14.2586 6.13818 16.2152 6.13818 18.6294C6.13818 18.9569 6.17718 19.2757 6.24615 19.5831C6.27536 19.7166 6.31044 19.8477 6.3529 19.9757C6.39627 20.1109 6.44581 20.2412 6.50152 20.3701Z" fill="#242E42"/>
<path d="M37.4081 19.681C37.8821 21.5854 39.607 23 41.6668 23C43.8204 23 45.6083 21.455 45.9825 19.4193C46.0065 19.2874 46.0252 19.1546 46.0385 19.0188C46.0502 18.8901 46.058 18.7612 46.058 18.6293C46.058 18.6262 46.058 18.623 46.058 18.6191C46.0534 16.2104 44.0885 14.2585 41.6668 14.2585C39.242 14.2585 37.2756 16.215 37.2756 18.6293C37.2756 18.717 37.2842 18.8023 37.2889 18.8892C37.2967 19.0235 37.31 19.1552 37.3301 19.2858C37.3505 19.4194 37.377 19.5513 37.4081 19.681Z" fill="#242E42"/>
</svg>
