<svg width="24" height="24" viewBox="0 0 24 24" fill="none" xmlns="http://www.w3.org/2000/svg">
<path d="M22.5144 2.5056C15.6902 6.768 10.7381 12.0506 8.49215 14.7254L3.12479 10.5199C3.05904 10.4685 2.97779 10.4408 2.89429 10.4414C2.81079 10.442 2.72995 10.4709 2.66495 10.5233L0.737754 12.0768C0.697615 12.1092 0.664702 12.1496 0.64113 12.1955C0.617559 12.2414 0.603852 12.2917 0.60089 12.3432C0.597929 12.3947 0.605779 12.4462 0.623936 12.4945C0.642092 12.5428 0.670153 12.5867 0.706314 12.6235L9.24551 21.3077C9.64535 21.7145 10.3262 21.5921 10.5631 21.0732C12.5902 16.6363 17.4432 9.25752 23.2824 3.82512C23.3381 3.77352 23.3765 3.70588 23.3921 3.63155C23.4078 3.55722 23.4 3.47986 23.3698 3.41016L23.051 2.67336C23.0297 2.62445 22.9982 2.58069 22.9585 2.54505C22.9187 2.50941 22.8718 2.48273 22.8209 2.46682C22.77 2.45091 22.7162 2.44614 22.6633 2.45283C22.6104 2.45952 22.5598 2.47752 22.5144 2.5056Z" fill="#165C00"/>
</svg>
