<svg width="20" height="20" viewBox="0 0 20 20" fill="none" xmlns="http://www.w3.org/2000/svg">
<path d="M0.0012207 9.9996C0.0012207 15.5225 4.4781 19.999 10.0004 19.999C15.5229 19.999 19.9998 15.5225 19.9998 9.9996C19.9998 4.47748 15.5229 0.000682831 10.0004 0.000682831C4.4781 0.000682831 0.0012207 4.47748 0.0012207 9.9996Z" fill="#25B7D3"/>
<path d="M15.9009 13.9004L13.9011 15.9001C13.4687 16.3326 12.7677 16.3325 12.3354 15.9001L9.24663 12.8114C8.8143 12.379 8.81426 11.678 9.24659 11.2456L11.2464 9.24585C11.6788 8.81348 12.3798 8.81352 12.8121 9.24594L15.9009 12.3346C16.3332 12.7669 16.3332 13.468 15.9009 13.9004ZM12.6008 10.51C12.3474 10.2565 11.9364 10.2565 11.683 10.51L10.5107 11.6822C10.2572 11.9357 10.2573 12.3466 10.5107 12.6001L12.5467 14.636C12.8001 14.8895 13.211 14.8895 13.4645 14.636L14.6368 13.4637C14.8902 13.2103 14.8902 12.7994 14.6368 12.5459L12.6008 10.51Z" fill="white"/>
<path d="M10.7546 8.75411L8.75486 10.7539C8.32248 11.1863 7.62147 11.1862 7.18914 10.7539L4.10039 7.6651C3.66806 7.23277 3.66802 6.53175 4.10039 6.09942L6.10021 4.0996C6.53254 3.66723 7.2336 3.66731 7.66589 4.0996L10.7547 7.18843C11.1869 7.62072 11.187 8.32174 10.7546 8.75411ZM7.45456 5.36374C7.20111 5.11029 6.79022 5.11021 6.53673 5.3637L5.36445 6.53598C5.11096 6.78943 5.111 7.20036 5.36445 7.45381L7.40043 9.48979C7.65384 9.7432 8.06476 9.74324 8.31825 9.48979L9.49054 8.31751C9.74399 8.06402 9.74395 7.65309 9.49054 7.39968L7.45456 5.36374Z" fill="white"/>
<path d="M12.3717 12.2734L12.2741 12.371C11.9621 12.6831 11.4543 12.6831 11.1422 12.371L7.62943 8.85819C7.31737 8.54613 7.31737 8.03835 7.62943 7.72629L7.72697 7.62871C8.03903 7.3167 8.54681 7.3167 8.85891 7.62871L12.3717 11.1415C12.6837 11.4535 12.6837 11.9614 12.3717 12.2734Z" fill="#48A1AF"/>
<path d="M8.68323 7.80436C8.46767 7.5888 8.11813 7.58876 7.90256 7.80432L7.80498 7.90191C7.58942 8.11747 7.58942 8.46701 7.80498 8.68253L11.3178 12.1953C11.5334 12.411 11.8829 12.4109 12.0985 12.1953L12.196 12.0977C12.4115 11.8822 12.4116 11.5327 12.196 11.3171L8.68323 7.80436Z" fill="white"/>
</svg>
