<svg width="24" height="24" viewBox="0 0 24 24" fill="none" xmlns="http://www.w3.org/2000/svg">
<path d="M5.59389 2.06402C5.11612 1.936 4.60712 2.00195 4.17775 2.2475C3.74839 2.49305 3.43344 2.89832 3.30151 3.37502H10.4865L5.59389 2.06402ZM20.7589 20.625H13.5735L18.4665 21.936C18.9443 22.064 19.4533 21.9981 19.8826 21.7525C20.312 21.507 20.627 21.1017 20.7589 20.625ZM13.5 8.62502C13.2016 8.62502 12.9155 8.74355 12.7045 8.95452C12.4935 9.1655 12.375 9.45165 12.375 9.75002C12.375 10.0484 12.4935 10.3345 12.7045 10.5455C12.9155 10.7565 13.2016 10.875 13.5 10.875C13.7984 10.875 14.0845 10.7565 14.2955 10.5455C14.5065 10.3345 14.625 10.0484 14.625 9.75002C14.625 9.45165 14.5065 9.1655 14.2955 8.95452C14.0845 8.74355 13.7984 8.62502 13.5 8.62502ZM16.875 14.25C16.875 13.9517 16.9935 13.6655 17.2045 13.4545C17.4155 13.2435 17.7016 13.125 18 13.125C18.2984 13.125 18.5845 13.2435 18.7955 13.4545C19.0065 13.6655 19.125 13.9517 19.125 14.25C19.125 14.5484 19.0065 14.8345 18.7955 15.0455C18.5845 15.2565 18.2984 15.375 18 15.375C17.7016 15.375 17.4155 15.2565 17.2045 15.0455C16.9935 14.8345 16.875 14.5484 16.875 14.25Z" fill="#101035"/>
<path fill-rule="evenodd" clip-rule="evenodd" d="M3 4.125H7.875V5.25C7.875 5.34946 7.91451 5.44484 7.98483 5.51516C8.05516 5.58549 8.15054 5.625 8.25 5.625C8.34946 5.625 8.44484 5.58549 8.51517 5.51516C8.58549 5.44484 8.625 5.34946 8.625 5.25V4.125H21C21.4973 4.125 21.9742 4.32254 22.3258 4.67417C22.6775 5.02581 22.875 5.50272 22.875 6V18C22.875 18.4973 22.6775 18.9742 22.3258 19.3258C21.9742 19.6775 21.4973 19.875 21 19.875H8.625V18.75C8.625 18.6505 8.58549 18.5552 8.51517 18.4848C8.44484 18.4145 8.34946 18.375 8.25 18.375C8.15054 18.375 8.05516 18.4145 7.98483 18.4848C7.91451 18.5552 7.875 18.6505 7.875 18.75V19.875H3C2.50272 19.875 2.02581 19.6775 1.67417 19.3258C1.32254 18.9742 1.125 18.4973 1.125 18V14.625C1.125 14.5255 1.16451 14.4302 1.23483 14.3598C1.30516 14.2895 1.40054 14.25 1.5 14.25C2.09674 14.25 2.66903 14.0129 3.09099 13.591C3.51295 13.169 3.75 12.5967 3.75 12C3.75 11.4033 3.51295 10.831 3.09099 10.409C2.66903 9.98705 2.09674 9.75 1.5 9.75C1.40054 9.75 1.30516 9.71049 1.23483 9.64017C1.16451 9.56984 1.125 9.47446 1.125 9.375V6C1.125 5.50272 1.32254 5.02581 1.67417 4.67417C2.02581 4.32254 2.50272 4.125 3 4.125ZM8.25 6.375C8.34946 6.375 8.44484 6.41451 8.51517 6.48483C8.58549 6.55516 8.625 6.65054 8.625 6.75V8.25C8.625 8.34946 8.58549 8.44484 8.51517 8.51517C8.44484 8.58549 8.34946 8.625 8.25 8.625C8.15054 8.625 8.05516 8.58549 7.98483 8.51517C7.91451 8.44484 7.875 8.34946 7.875 8.25V6.75C7.875 6.65054 7.91451 6.55516 7.98483 6.48483C8.05516 6.41451 8.15054 6.375 8.25 6.375ZM8.25 9.375C8.34946 9.375 8.44484 9.41451 8.51517 9.48483C8.58549 9.55516 8.625 9.65054 8.625 9.75V11.25C8.625 11.3495 8.58549 11.4448 8.51517 11.5152C8.44484 11.5855 8.34946 11.625 8.25 11.625C8.15054 11.625 8.05516 11.5855 7.98483 11.5152C7.91451 11.4448 7.875 11.3495 7.875 11.25V9.75C7.875 9.65054 7.91451 9.55516 7.98483 9.48483C8.05516 9.41451 8.15054 9.375 8.25 9.375ZM8.25 12.375C8.34946 12.375 8.44484 12.4145 8.51517 12.4848C8.58549 12.5552 8.625 12.6505 8.625 12.75V14.25C8.625 14.3495 8.58549 14.4448 8.51517 14.5152C8.44484 14.5855 8.34946 14.625 8.25 14.625C8.15054 14.625 8.05516 14.5855 7.98483 14.5152C7.91451 14.4448 7.875 14.3495 7.875 14.25V12.75C7.875 12.6505 7.91451 12.5552 7.98483 12.4848C8.05516 12.4145 8.15054 12.375 8.25 12.375ZM8.25 15.375C8.34946 15.375 8.44484 15.4145 8.51517 15.4848C8.58549 15.5552 8.625 15.6505 8.625 15.75V17.25C8.625 17.3495 8.58549 17.4448 8.51517 17.5152C8.44484 17.5855 8.34946 17.625 8.25 17.625C8.15054 17.625 8.05516 17.5855 7.98483 17.5152C7.91451 17.4448 7.875 17.3495 7.875 17.25V15.75C7.875 15.6505 7.91451 15.5552 7.98483 15.4848C8.05516 15.4145 8.15054 15.375 8.25 15.375ZM13.5 7.875C13.0027 7.875 12.5258 8.07254 12.1742 8.42417C11.8225 8.77581 11.625 9.25272 11.625 9.75C11.625 10.2473 11.8225 10.7242 12.1742 11.0758C12.5258 11.4275 13.0027 11.625 13.5 11.625C13.9973 11.625 14.4742 11.4275 14.8258 11.0758C15.1775 10.7242 15.375 10.2473 15.375 9.75C15.375 9.25272 15.1775 8.77581 14.8258 8.42417C14.4742 8.07254 13.9973 7.875 13.5 7.875ZM16.125 14.25C16.125 13.7527 16.3225 13.2758 16.6742 12.9242C17.0258 12.5725 17.5027 12.375 18 12.375C18.4973 12.375 18.9742 12.5725 19.3258 12.9242C19.6775 13.2758 19.875 13.7527 19.875 14.25C19.875 14.7473 19.6775 15.2242 19.3258 15.5758C18.9742 15.9275 18.4973 16.125 18 16.125C17.5027 16.125 17.0258 15.9275 16.6742 15.5758C16.3225 15.2242 16.125 14.7473 16.125 14.25ZM19.5776 8.70263C19.6459 8.6319 19.6837 8.53717 19.6829 8.43885C19.682 8.34053 19.6426 8.24647 19.5731 8.17694C19.5035 8.10742 19.4095 8.06798 19.3112 8.06712C19.2128 8.06627 19.1181 8.10407 19.0474 8.17237L11.7349 15.4849C11.6666 15.5556 11.6288 15.6503 11.6296 15.7487C11.6305 15.847 11.6699 15.941 11.7394 16.0106C11.809 16.0801 11.903 16.1195 12.0013 16.1204C12.0997 16.1212 12.1944 16.0834 12.2651 16.0151L19.5776 8.70263Z" fill="#101035"/>
</svg>
