<svg width="24" height="24" viewBox="0 0 24 24" fill="none" xmlns="http://www.w3.org/2000/svg">
    <path d="M6.30599 6.69C6.30599 5.44587 6.80022 4.2527 7.67995 3.37296C8.55969 2.49323 9.75286 1.999 10.997 1.999C12.2411 1.999 13.4343 2.49323 14.314 3.37296C15.1938 4.2527 15.688 5.44587 15.688 6.69C15.688 7.93413 15.1938 9.12731 14.314 10.007C13.4343 10.8868 12.2411 11.381 10.997 11.381C9.75286 11.381 8.55969 10.8868 7.67995 10.007C6.80022 9.12731 6.30599 7.93413 6.30599 6.69ZM3.26599 18.429C3.26599 16.9183 3.8661 15.4695 4.93431 14.4013C6.00252 13.3331 7.45132 12.733 8.96199 12.733H13.032C14.11 12.733 15.118 13.033 15.977 13.553C16.237 13.709 16.261 14.067 16.047 14.281L12.321 18.007C11.7067 18.6217 11.3432 19.443 11.301 20.311L11.281 20.685C11.2746 20.8131 11.2192 20.9338 11.1264 21.0222C11.0335 21.1106 10.9102 21.1599 10.782 21.16H5.99699C5.27269 21.16 4.57804 20.8723 4.06588 20.3601C3.55372 19.8479 3.26599 19.1533 3.26599 18.429ZM16.93 16.227C16.8835 16.1804 16.8284 16.1435 16.7676 16.1183C16.7069 16.0931 16.6418 16.0801 16.576 16.0801C16.5102 16.0801 16.4451 16.0931 16.3844 16.1183C16.3236 16.1435 16.2684 16.1804 16.222 16.227L13.382 19.067C13.0305 19.4182 12.8223 19.8877 12.798 20.384L12.745 21.479C12.7417 21.5467 12.7523 21.6143 12.7759 21.6777C12.7996 21.7412 12.8359 21.7992 12.8827 21.8482C12.9294 21.8972 12.9857 21.9362 13.0479 21.9628C13.1102 21.9894 13.1773 22.0031 13.245 22.003H14.18C14.6974 22.0028 15.1945 21.802 15.567 21.443L18.551 18.569C18.5989 18.5229 18.6372 18.4677 18.6635 18.4067C18.6899 18.3456 18.7038 18.28 18.7044 18.2135C18.7051 18.147 18.6925 18.081 18.6673 18.0195C18.6422 17.9579 18.605 17.902 18.558 17.855L16.93 16.227ZM19.682 16.858C19.852 17.028 20.126 17.028 20.295 16.858C20.5762 16.5767 20.7342 16.1952 20.7342 15.7975C20.7342 15.3998 20.5762 15.0183 20.295 14.737L20.065 14.507C19.9257 14.3676 19.7603 14.257 19.5782 14.1816C19.3962 14.1062 19.2011 14.0673 19.004 14.0673C18.8069 14.0673 18.6118 14.1062 18.4297 14.1816C18.2477 14.257 18.0823 14.3676 17.943 14.507C17.8621 14.5883 17.8168 14.6983 17.8168 14.813C17.8168 14.9277 17.8621 15.0377 17.943 15.119L19.682 16.858Z" fill="#101035"/>
</svg>
