<svg width="20" height="20" viewBox="0 0 20 20" fill="none" xmlns="http://www.w3.org/2000/svg">
<path d="M12.05 2.71666L12.7833 1.98333C13.65 1.11666 15.1583 1.11666 16.025 1.98333L16.6166 2.57499C16.8301 2.78665 16.9995 3.03848 17.1151 3.31596C17.2308 3.59343 17.2903 3.89106 17.2903 4.19166C17.2903 4.49226 17.2308 4.78989 17.1151 5.06737C16.9995 5.34484 16.8301 5.59667 16.6166 5.80833L15.8833 6.54166L12.05 2.70833V2.71666ZM11.1666 3.6L3.57496 11.1917C3.33329 11.4333 3.18329 11.75 3.15829 12.0917L2.93329 14.5333C2.90829 14.8417 3.01663 15.1417 3.23329 15.3667C3.43329 15.5667 3.69163 15.675 3.96663 15.675H4.05829L6.49996 15.45C6.84163 15.4167 7.15829 15.2667 7.39996 15.025L14.9916 7.43333L11.1583 3.6H11.1666ZM18.9583 18.3333C18.9583 17.9917 18.675 17.7083 18.3333 17.7083H1.66663C1.32496 17.7083 1.04163 17.9917 1.04163 18.3333C1.04163 18.675 1.32496 18.9583 1.66663 18.9583H18.3333C18.675 18.9583 18.9583 18.675 18.9583 18.3333Z" fill="#131842"/>
</svg>
