<svg width="20" height="20" viewBox="0 0 20 20" fill="none" xmlns="http://www.w3.org/2000/svg">
<path d="M1.76097 1.56655C0.232073 3.15462 0.544985 4.84159 0.544985 9.96654C0.544985 14.2225 -0.197574 18.4889 3.6887 19.4933C4.90225 19.8055 15.6548 19.8055 16.8667 19.4917C18.4848 19.0742 19.8013 17.7618 19.9812 15.4733C20.0064 15.1539 20.0064 4.78484 19.9804 4.45896C19.7891 2.02132 18.2886 0.616461 16.3114 0.331921C15.8582 0.266258 15.7674 0.246803 13.4425 0.242749C5.19571 0.246803 3.38795 -0.120424 1.76097 1.56655Z" fill="url(#paint0_linear_1_11176)"/>
<path d="M10.2712 2.78742C7.32774 2.78742 4.53261 2.52558 3.46498 5.26559C3.02398 6.39726 3.08802 7.86698 3.08802 9.97144C3.08802 11.8181 3.02884 13.5537 3.46498 14.6765C4.53018 17.4181 7.34801 17.1555 10.2696 17.1555C13.0882 17.1555 15.9944 17.4489 17.075 14.6765C17.5169 13.5335 17.452 12.0856 17.452 9.97144C17.452 7.16495 17.6068 5.35314 16.2457 3.99286C14.8676 2.61475 13.0039 2.78742 10.268 2.78742H10.2712ZM9.62757 4.08203C15.7675 4.07231 16.5489 3.38974 16.1177 12.872C15.9644 16.2256 13.4109 15.8576 10.272 15.8576C4.54882 15.8576 4.38426 15.6938 4.38426 9.96819C4.38426 4.17607 4.83822 4.08528 9.62757 4.08041V4.08203ZM14.1056 5.27451C13.6298 5.27451 13.2439 5.66038 13.2439 6.13623C13.2439 6.61209 13.6298 6.99796 14.1056 6.99796C14.5815 6.99796 14.9673 6.61209 14.9673 6.13623C14.9673 5.66038 14.5815 5.27451 14.1056 5.27451ZM10.2712 6.28215C8.23405 6.28215 6.58275 7.93426 6.58275 9.97144C6.58275 12.0086 8.23405 13.6599 10.2712 13.6599C12.3084 13.6599 13.9589 12.0086 13.9589 9.97144C13.9589 7.93426 12.3084 6.28215 10.2712 6.28215ZM10.2712 7.57676C13.4368 7.57676 13.4409 12.3661 10.2712 12.3661C7.10643 12.3661 7.10157 7.57676 10.2712 7.57676Z" fill="white"/>
<defs>
<linearGradient id="paint0_linear_1_11176" x1="1.79827" y1="18.4558" x2="19.8803" y2="2.80602" gradientUnits="userSpaceOnUse">
<stop stop-color="#FFDD55"/>
<stop offset="0.5" stop-color="#FF543E"/>
<stop offset="1" stop-color="#C837AB"/>
</linearGradient>
</defs>
</svg>
