<svg width="24" height="24" viewBox="0 0 24 24" fill="none" xmlns="http://www.w3.org/2000/svg">
<path d="M17.625 23.25H4.5C3.90381 23.2482 3.33255 23.0106 2.91098 22.589C2.48941 22.1674 2.25178 21.5962 2.25 21C2.25094 19.2737 2.71043 17.5786 3.58149 16.0882C4.45254 14.5978 5.70389 13.3655 7.2075 12.5175C8.55257 13.6388 10.2488 14.252 12 14.25C13.2507 14.2524 14.4816 13.9376 15.5775 13.335C15.4418 13.6208 15.3725 13.9336 15.375 14.25V15.375H14.25C13.6533 15.375 13.081 15.612 12.659 16.034C12.2371 16.456 12 17.0282 12 17.625C12 18.2217 12.2371 18.794 12.659 19.216C13.081 19.6379 13.6533 19.875 14.25 19.875H15.375V21C15.3768 21.5962 15.6144 22.1674 16.036 22.589C16.4575 23.0106 17.0288 23.2482 17.625 23.25Z" fill="#101035"/>
<path d="M12 12.75C15.3137 12.75 18 10.0637 18 6.75C18 3.43629 15.3137 0.75 12 0.75C8.68629 0.75 6 3.43629 6 6.75C6 10.0637 8.68629 12.75 12 12.75Z" fill="#101035"/>
<path d="M21 16.875H18.375V14.25C18.375 14.0511 18.296 13.8603 18.1553 13.7197C18.0147 13.579 17.8239 13.5 17.625 13.5C17.4261 13.5 17.2353 13.579 17.0947 13.7197C16.954 13.8603 16.875 14.0511 16.875 14.25V16.875H14.25C14.0511 16.875 13.8603 16.954 13.7197 17.0947C13.579 17.2353 13.5 17.4261 13.5 17.625C13.5 17.8239 13.579 18.0147 13.7197 18.1553C13.8603 18.296 14.0511 18.375 14.25 18.375H16.875V21C16.875 21.1989 16.954 21.3897 17.0947 21.5303C17.2353 21.671 17.4261 21.75 17.625 21.75C17.8239 21.75 18.0147 21.671 18.1553 21.5303C18.296 21.3897 18.375 21.1989 18.375 21V18.375H21C21.1989 18.375 21.3897 18.296 21.5303 18.1553C21.671 18.0147 21.75 17.8239 21.75 17.625C21.75 17.4261 21.671 17.2353 21.5303 17.0947C21.3897 16.954 21.1989 16.875 21 16.875Z" fill="#101035"/>
</svg>
