<svg width="199" height="203" viewBox="0 0 199 203" fill="none" xmlns="http://www.w3.org/2000/svg">
<path d="M2.78563 202.849H1.10449L7.39927 170.214L8.80232 170.479L2.78563 202.849Z" fill="#DBDBE1"/>
<path d="M126.279 11.8121V45.0649V190.809C126.279 191.213 126.258 191.613 126.216 192.008C125.66 197.574 121.248 201.991 115.699 202.558C115.303 202.592 114.903 202.609 114.499 202.609H27.067C26.8816 202.609 26.692 202.605 26.4982 202.596C26.4392 202.596 26.376 202.592 26.3086 202.584C26.1822 202.575 26.06 202.567 25.942 202.558C25.8662 202.55 25.7904 202.542 25.7145 202.533C25.605 202.525 25.4954 202.512 25.3859 202.495C25.3016 202.478 25.2216 202.466 25.1457 202.457C25.0446 202.441 24.9435 202.424 24.8424 202.407C24.7581 202.39 24.6738 202.373 24.5896 202.356C24.4969 202.331 24.4084 202.31 24.3241 202.293C24.2314 202.268 24.1429 202.243 24.0587 202.218C23.9744 202.201 23.8901 202.18 23.8059 202.155C23.5699 202.087 23.3424 202.012 23.1233 201.927C23.098 201.927 23.077 201.923 23.0601 201.915C18.5223 200.262 15.2864 195.92 15.2864 190.809V157.557V11.8121C15.2864 11.4083 15.3033 11.0086 15.337 10.6132C15.8679 5.45177 19.7105 1.26204 24.6907 0.239849C24.8845 0.206197 25.0783 0.172546 25.2721 0.138893C25.6598 0.0800016 26.0558 0.0421434 26.4603 0.0253172C26.6625 0.00849095 26.8648 7.62939e-05 27.067 7.62939e-05H114.499C114.684 7.62939e-05 114.874 0.00849095 115.067 0.0253172C115.126 0.0253172 115.19 0.0295245 115.257 0.0379376C115.375 0.0379376 115.497 0.0463484 115.624 0.0631746C115.699 0.0715878 115.775 0.0800024 115.851 0.0884155C115.961 0.0968286 116.066 0.109447 116.167 0.126273C116.251 0.134686 116.336 0.147308 116.42 0.164134C116.521 0.180961 116.618 0.197786 116.711 0.214612C116.803 0.231438 116.892 0.248264 116.976 0.26509C117.069 0.290329 117.157 0.311362 117.242 0.328188C117.334 0.353428 117.423 0.374461 117.507 0.391287C117.591 0.416526 117.676 0.441766 117.76 0.467006C118.004 0.534311 118.244 0.610027 118.48 0.694158C118.489 0.702571 118.497 0.706779 118.506 0.706779C123.043 2.34734 126.279 6.70112 126.279 11.8121Z" fill="#B5B5C0"/>
<path d="M120.566 186.519H21V16.1027H120.566V186.519Z" fill="#F5F5F5"/>
<path d="M92.0629 10.7394H49.668C49.6048 10.7394 49.5542 10.7016 49.5542 10.6385V8.72027C49.5542 8.65717 49.6048 8.60669 49.668 8.60669H92.0629C92.1134 8.60669 92.164 8.65717 92.164 8.72027V10.6385C92.164 10.7016 92.1134 10.7394 92.0629 10.7394Z" fill="#DBDBE1"/>
<g opacity="0.3">
<path d="M75.6179 194.734C75.6179 197.435 73.4312 199.631 70.7262 199.631C68.0212 199.631 65.8345 197.435 65.8345 194.734C65.8345 192.021 68.0212 189.825 70.7262 189.825C73.4312 189.825 75.6179 192.021 75.6179 194.734Z" fill="#E7E7EB"/>
</g>
<path d="M43.2717 170.479L44.6748 170.214L50.742 202.432L49.339 202.697L43.2717 170.479Z" fill="#B5B5B5"/>
<path d="M33.6907 202.849H32.0095L38.2917 170.214L39.6947 170.479L33.6907 202.849Z" fill="#B5B5B5"/>
<path d="M12.1016 170.631L13.5046 170.353L19.5466 202.861L18.1688 202.849L12.1016 170.631Z" fill="#B5B5B5"/>
<path d="M44.8644 138.842C48.5047 145.088 47.3545 148.407 55.5074 164.346C60.8036 174.694 50.4766 180.928 50.4766 180.928C33.3872 191.226 13.0492 184.348 6.81767 178.783C0.586097 173.218 -3.55986 153.178 4.32757 139.763C11.5451 127.484 18.7373 126.866 24.2989 126.26C36.0922 124.998 41.2114 132.608 44.8644 138.842Z" fill="#DBDBE1"/>
<path d="M4.32757 139.763C9.25721 131.384 14.1616 128.431 18.5603 127.219C16.8539 128.973 15.1349 131.245 13.4158 134.172C5.52838 147.587 9.67434 167.615 15.9059 173.192C21.4296 178.127 38.0514 184.083 53.6619 178.202C52.0566 179.982 50.4766 180.928 50.4766 180.928C33.3872 191.226 13.0492 184.348 6.81767 178.783C0.586097 173.218 -3.55986 153.178 4.32757 139.763Z" fill="#B5B5C0"/>
<path d="M42.134 146.653L43.5623 150.944L39.2141 149.228L42.134 146.653Z" fill="#F79C8D"/>
<path d="M37.6339 134.036C37.6405 134.034 37.6455 134.033 37.6491 134.033C37.866 134.047 38.6214 134.268 39.7641 136.426C40.4953 137.811 41.4046 140.61 42.134 143.077C42.4977 144.308 42.8154 145.451 43.0421 146.287C43.1555 146.705 43.2461 147.045 43.3084 147.282C43.334 147.379 43.3549 147.459 43.3705 147.519L37.1429 149.834L36.3904 148.216L35.0278 134.761L35.3312 134.674C35.5859 134.601 35.9262 134.504 36.2688 134.407C36.6115 134.31 36.9561 134.213 37.2195 134.142C37.3513 134.106 37.462 134.077 37.5417 134.057C37.5817 134.047 37.6126 134.04 37.6339 134.036Z" fill="#F3F3F3" stroke="black" stroke-width="0.3"/>
<path d="M36.5885 166.644C36.5967 166.696 36.604 166.741 36.6104 166.781L17.7576 166.533L17.7613 166.504C17.7777 166.377 17.8018 166.189 17.8321 165.949C17.8927 165.469 17.9783 164.78 18.0784 163.945C18.2785 162.275 18.5366 160.019 18.7682 157.675C18.9997 155.332 19.205 152.899 19.2994 150.876C19.3466 149.864 19.3662 148.953 19.3472 148.206C19.3284 147.463 19.2713 146.868 19.1591 146.496L19.1589 146.496C18.949 145.811 18.7872 144.689 18.664 143.38C18.5411 142.074 18.4575 140.593 18.4006 139.198C18.3438 137.804 18.3138 136.497 18.298 135.538C18.2901 135.059 18.2858 134.667 18.2834 134.394C18.2823 134.268 18.2817 134.168 18.2813 134.096L18.7472 134.016C19.3033 133.919 20.3808 133.733 22.4665 133.374L22.4667 133.374C24.4172 133.034 27.1135 132.808 29.077 132.808C29.9963 132.808 31.6003 132.943 33.2425 133.163C34.8382 133.377 36.4564 133.671 37.5088 133.996C37.5106 134.012 37.5125 134.031 37.5147 134.051C37.5254 134.151 37.5408 134.3 37.5592 134.492C37.5962 134.877 37.6457 135.44 37.6959 136.146C37.7962 137.559 37.8991 139.55 37.9094 141.858C37.9299 146.478 37.5792 152.361 36.0999 157.439C35.9255 158.034 35.8767 158.93 35.8963 159.924C35.916 160.924 36.0053 162.038 36.1153 163.079C36.2254 164.121 36.3564 165.09 36.4599 165.799C36.5117 166.154 36.5566 166.443 36.5885 166.644Z" fill="#F3F3F3" stroke="black" stroke-width="0.3"/>
<path d="M26.8399 191.832C26.8399 191.832 27.2697 196.715 28.0533 198.078C28.837 199.429 28.0154 201.738 27.9649 202.054C27.9269 202.369 26.3217 202.823 23.781 202.546C21.2277 202.281 21.2656 201.688 21.4805 200.741C21.6827 199.795 23.0352 198.571 23.1237 197.675C23.1995 196.766 22.34 193.51 22.34 193.51L26.8399 191.832Z" fill="#F3FCFF"/>
<path d="M34.6263 162.895L34.6192 163.045L34.6269 163.045L34.6346 163.045L34.6263 162.895ZM34.6263 162.895C34.6346 163.045 34.6346 163.045 34.6347 163.045L34.6351 163.044L34.6369 163.044L34.644 163.044L34.6723 163.042L34.7833 163.037C34.8808 163.032 35.0243 163.025 35.208 163.017C35.5754 163 36.1038 162.979 36.7471 162.958C38.0338 162.918 39.7798 162.882 41.6178 162.903C43.4563 162.923 45.3839 163 47.0346 163.182C47.8601 163.274 48.6137 163.391 49.2511 163.541C49.8908 163.691 50.4034 163.871 50.7532 164.083C51.4578 164.51 51.7657 165.038 51.8474 165.587C51.9304 166.144 51.783 166.74 51.5373 167.299C51.2925 167.855 50.9561 168.36 50.6792 168.727C50.541 168.91 50.4184 169.058 50.3306 169.16C50.2867 169.211 50.2515 169.25 50.2275 169.277L50.2117 169.294L50.21 169.294C50.1894 169.303 50.1584 169.316 50.117 169.333C50.0344 169.368 49.9104 169.418 49.746 169.483C49.4172 169.612 48.9268 169.798 48.2816 170.025C46.9911 170.479 45.0816 171.096 42.6084 171.744C37.6619 173.042 30.4606 174.469 21.4467 174.986L21.4465 174.986C20.4558 175.044 19.6732 174.436 19.062 173.411C18.4509 172.388 18.0323 170.979 17.7698 169.52C17.5077 168.064 17.4033 166.57 17.4139 165.382C17.4192 164.788 17.4532 164.274 17.5098 163.881C17.5381 163.685 17.5716 163.522 17.6089 163.396C17.647 163.267 17.6848 163.192 17.714 163.156C17.7205 163.149 17.7401 163.133 17.7846 163.112C17.8286 163.091 17.8883 163.069 17.965 163.048C18.1184 163.005 18.3261 162.966 18.5834 162.932C19.0973 162.865 19.7916 162.819 20.6071 162.789C22.2371 162.73 24.3368 162.739 26.4138 162.777C28.4902 162.814 30.5416 162.881 32.0741 162.939C32.8403 162.968 33.4766 162.994 33.9214 163.013C34.1438 163.023 34.3183 163.031 34.4372 163.036L34.5728 163.042L34.6075 163.044L34.6163 163.044L34.6185 163.045L34.619 163.045C34.6191 163.045 34.6192 163.045 34.6263 162.895Z" fill="#B3B3B3" stroke="black" stroke-width="0.3"/>
<path d="M23.4648 202.924C20.8356 202.647 21.1643 201.36 21.3665 200.388C21.5056 199.769 22.2513 199.05 22.7064 198.369C22.9465 198.558 23.3257 198.886 24.4633 199.227C25.6389 199.568 27.2694 198.886 28.3059 198.444C28.6725 199.82 28.6851 201.561 28.6472 201.826C28.6093 202.155 26.0813 203.202 23.4648 202.924Z" fill="#101010"/>
<path d="M24.757 172.379L24.757 172.379C25.0225 174.379 25.8093 180.358 26.5298 185.836C26.89 188.576 27.2337 191.19 27.4873 193.119L27.7909 195.43L27.8749 196.069L27.8847 196.144L22.0821 196.866L22.0337 196.697C21.9791 196.506 21.899 196.224 21.7973 195.865C21.5938 195.147 21.3036 194.116 20.9564 192.867C20.2622 190.368 19.3405 186.995 18.4306 183.498C17.5208 180.001 16.6231 176.381 15.9768 173.388C15.6535 171.891 15.3935 170.553 15.2262 169.466C15.0581 168.373 14.986 167.55 15.0314 167.073C15.2174 165.125 15.9946 164.088 16.7087 163.536C17.068 163.258 17.4154 163.1 17.672 163.011C17.8003 162.967 17.9055 162.94 17.9778 162.924C18.0139 162.917 18.0417 162.912 18.06 162.909L18.0801 162.906L18.0844 162.905L18.0849 162.905L18.0849 162.905L18.0939 162.904L18.0939 162.904L18.094 162.904L18.0942 162.904L18.0958 162.903L18.1052 162.902C18.1139 162.9 18.1276 162.899 18.146 162.896C18.1827 162.892 18.2381 162.887 18.3099 162.884C18.4535 162.878 18.6623 162.881 18.9182 162.916C19.4294 162.987 20.1293 163.187 20.8742 163.71C22.3616 164.755 24.0586 167.109 24.757 172.379Z" fill="#B3B3B3" stroke="black" stroke-width="0.3"/>
<path d="M40.1751 160.093C40.0108 160.484 38.3423 158.97 38.3423 158.97M40.1751 160.093C40.3169 159.716 39.4979 158.875 39.1013 158.468C39.0736 158.44 39.048 158.413 39.0248 158.39C38.7468 158.099 35.435 156.749 35.3086 156.724C34.9926 156.661 34.3859 156.711 33.7286 156.8L38.3423 158.97M40.1751 160.093L40.0368 160.035C40.0398 160.028 40.0484 160.017 40.0615 160.01C40.0711 160.006 40.0732 160.009 40.0588 160.008C40.0536 160.007 40.0477 160.007 40.0412 160.005C40.0405 160.02 40.0381 160.031 40.0347 160.041L40.1751 160.093ZM38.3423 158.97L38.1117 158.841M38.3423 158.97L38.1117 158.841M38.1117 158.841C37.9417 158.693 37.7811 158.548 37.6379 158.408L37.5333 158.516L37.4599 158.647L38.0254 158.964C38.2199 159.133 38.4265 159.306 38.6321 159.479C39.5217 160.225 40.3933 160.956 40.2004 161.279C39.9776 161.654 38.8136 160.877 37.7225 160.093C37.4949 159.847 37.2618 159.615 37.0398 159.414L36.9392 159.525L36.8513 159.647C36.9472 159.716 37.0463 159.788 37.1478 159.862C37.3019 159.974 37.4613 160.09 37.6227 160.206L38.1117 158.841ZM32.7553 160.661C33.0455 160.747 33.4728 160.678 33.804 160.624C33.8623 160.615 33.9177 160.606 33.9688 160.598C34.1368 160.571 34.3212 160.477 34.516 160.377C34.8634 160.2 35.244 160.006 35.6246 160.144L32.7553 160.661ZM32.7553 160.661L31.011 160.169L32.7553 160.661Z" fill="#DCDCDC" stroke="black" stroke-width="0.3"/>
<path d="M21.6004 150.616C19.5945 150.772 16.766 150.892 14.6599 150.491C14.4997 147.121 14.4376 143.386 14.879 140.309C15.1023 138.753 15.4533 137.374 15.98 136.298C16.5063 135.223 17.2013 134.465 18.1073 134.124C18.411 134.012 18.8001 134.085 19.2272 134.516C19.6574 134.95 20.1075 135.732 20.5015 136.981C21.2837 139.462 21.8288 143.735 21.6004 150.616Z" fill="#F3F3F3" stroke="black" stroke-width="0.3"/>
<path d="M30.0629 161.999L29.6584 162.062L35.5108 147.688H35.9027L30.0629 161.999Z" fill="#F79C8D"/>
<path d="M44.6371 196.009C44.6371 196.009 44.1062 197.712 45.0542 198.836C46.0022 199.959 49.9459 201.057 50.4642 201.675C50.9824 202.281 50.9445 202.798 50.9445 202.798L39.8591 202.495L39.9855 199.151L40.4911 196.753L44.6371 196.009Z" fill="#F3FCFF"/>
<path d="M50.9442 200.994C51.2602 201.17 51.829 201.423 52.3094 201.801C53.0172 202.344 52.5748 202.987 51.7026 203L39.2395 202.634C39.2395 202.634 39.3912 199.504 39.783 199.252C40.1875 199 40.1369 199.189 41.5147 199.87C42.8925 200.552 45.7365 199.391 45.7365 199.391C45.7365 199.391 49.971 200.438 50.9442 200.994Z" fill="#101010"/>
<path d="M50.3816 163.437L50.3817 163.437C51.9795 164.096 52.9851 165.228 53.47 166.606C53.9563 167.987 53.9224 169.626 53.4174 171.294C53.1488 172.173 52.4941 174.162 51.6669 176.675C50.8988 179.008 49.9819 181.793 49.0874 184.561C48.1591 187.434 47.2553 190.287 46.5684 192.594C46.2251 193.747 45.9356 194.765 45.7243 195.581C45.5387 196.297 45.4112 196.867 45.3624 197.235L40.2337 197.271L40.2348 197.254L40.2665 196.746L40.3815 194.907L40.7467 189.068C41.0232 184.648 41.3297 179.752 41.4497 177.846C41.6889 174.202 42.8733 169.199 44.3428 166.102C44.7662 165.213 45.4518 164.203 46.4401 163.589C47.4195 162.979 48.7115 162.748 50.3816 163.437Z" fill="#B3B3B3" stroke="black" stroke-width="0.3"/>
<path d="M54.0914 149.367L48.4665 161.898C48.1505 162.617 47.4427 163.072 46.659 163.072H18.2187C17.9407 163.072 17.7131 162.844 17.7131 162.567C17.7131 162.289 17.9407 162.062 18.2187 162.062H28.2171L33.7914 148.433C33.981 147.978 34.4107 147.688 34.891 147.688H53.017C53.8639 147.688 54.4453 148.584 54.0914 149.367Z" fill="#101035"/>
<path d="M43.2593 155.626C43.1329 156.244 42.6021 156.648 42.0585 156.547C41.5276 156.434 41.199 155.853 41.3128 155.247C41.4392 154.629 41.97 154.225 42.5136 154.326C43.0445 154.44 43.3731 155.02 43.2593 155.626Z" fill="white"/>
<path d="M33.3241 127.471C33.3241 127.572 32.0348 124.746 32.0348 124.746C32.0348 124.746 28.3186 129.528 28.2175 129.655C28.1163 129.781 23.844 130.626 23.3637 122.954C22.9339 116.177 25.0574 117.237 26.2456 115.937C27.2063 114.902 28.9506 114.789 29.9618 114.953C30.4421 115.028 31.2005 115.356 31.782 115.634C32.3002 115.887 32.8437 116.088 33.3873 116.278C39.9475 118.486 33.3241 127.37 33.3241 127.471Z" fill="#4E4E4E"/>
<path d="M25.905 132.808L26.2504 126.267L29.9967 130.29L30.3694 132.982L30.3691 132.982L30.3712 132.992L30.3712 132.992L30.3713 132.992L30.3717 132.994L30.3733 133.002L30.3798 133.035C30.3855 133.063 30.3937 133.105 30.4038 133.16C30.424 133.268 30.4517 133.424 30.4816 133.614C30.5416 133.993 30.6105 134.506 30.6464 135.042C30.6825 135.58 30.6849 136.133 30.615 136.596C30.5437 137.068 30.403 137.404 30.1903 137.559C30.1175 137.611 30.0086 137.623 29.8354 137.552C29.6619 137.481 29.4543 137.337 29.222 137.132C28.7593 136.725 28.234 136.106 27.7362 135.457C27.2396 134.809 26.7755 134.137 26.4353 133.626C26.2652 133.371 26.1263 133.156 26.03 133.005C25.9818 132.93 25.9443 132.871 25.9188 132.83L25.905 132.808Z" fill="#DCDCDC" stroke="black" stroke-width="0.3"/>
<path d="M29.7726 131.11L29.7716 131.109C29.4441 131.054 28.9717 130.851 28.4528 130.497C27.9366 130.144 27.384 129.649 26.8945 129.023C25.9166 127.771 25.1935 126.001 25.5091 123.795L25.5092 123.795C25.8949 121.062 27.668 118.86 29.9476 118.483C32.1038 118.145 34.0439 119.875 33.9956 122.029C33.9704 123.009 33.8949 124.226 33.6939 125.53C33.4512 127.09 32.7972 128.556 32.0292 129.599C31.6451 130.12 31.2364 130.53 30.842 130.793C30.4456 131.058 30.0798 131.163 29.7726 131.11Z" fill="#DCDCDC" stroke="black" stroke-width="0.3"/>
<path d="M26.3469 124.316C26.2332 125.011 25.6644 125.49 25.0956 125.389C24.5268 125.301 24.1729 124.657 24.2866 123.951C24.413 123.256 24.9692 122.777 25.538 122.878C26.1068 122.966 26.4734 123.622 26.3469 124.316Z" fill="#1B1B1B"/>
<path d="M24.9941 121.528C24.9941 121.528 25.6135 119.407 25.6893 119.206C25.7652 119.016 27.9266 117.237 27.9266 117.237C27.9266 117.237 30.7328 117.262 30.9603 117.262C31.2004 117.262 36.6862 120.669 33.7664 119.672C30.8465 118.688 28.546 121.086 27.914 122.196C27.2694 123.307 25.5377 122.878 25.5377 122.878L24.9941 121.528Z" fill="#4E4E4E"/>
<path d="M98.0686 123.456L94.9086 118.875L95.8566 118.232L99.004 122.813L98.0686 123.456ZM91.7738 114.294L88.6138 109.713L89.5618 109.07L92.7092 113.651L91.7738 114.294ZM85.4791 105.132L82.319 100.551L83.267 99.9079L86.4144 104.489L85.4791 105.132ZM79.1843 95.9706L76.0243 91.3896L76.9723 90.7334L80.1197 95.3143L79.1843 95.9706ZM72.8769 86.8087L69.7295 82.2277L70.6775 81.5841L73.8249 86.1651L72.8769 86.8087Z" fill="#101035"/>
<path d="M32.062 97.8887C30.3935 98.7216 23.8965 102.028 20.8249 95.125C17.5132 87.7172 25.2363 84.4109 25.2363 84.4109C25.2363 84.4109 33.7305 97.0558 32.062 97.8887Z" fill="#101035"/>
<path d="M39.3552 96.3996C43.4127 100.122 46.4084 108.262 46.775 109.915C47.1415 111.556 43.2989 113.676 41.6431 114.269C39.9872 114.875 39.1277 114.282 38.344 109.612C37.4971 104.602 34.0464 98.7973 34.0464 98.7973C34.0464 98.7973 35.3104 92.6768 39.3552 96.3996Z" fill="#CECECE"/>
<path d="M45.928 63.765L48.4939 71.0087L53.6638 82.5305L60.3251 92.0836L61.4374 94.3046L39.3046 95.7811L34.4255 94.822L29.7234 84.3982L31.2276 79.9939C34.7542 75.9052 45.4603 62.6671 45.4603 62.6671L45.928 63.765Z" fill="#CECECE"/>
<path d="M31.2273 79.9941C31.2273 79.9941 31.9478 89.6986 39.3043 95.7813C39.3043 95.7813 39.7847 96.3997 39.2538 97.0054L35.5502 99.0876C35.5502 99.0876 33.8944 100.223 31.6318 98.0024C29.3692 95.7813 25.0337 90.582 24.9073 83.6033C24.9073 83.6033 24.8188 81.7356 26.9044 80.827L29.6473 79.5145C29.6473 79.5145 30.8734 78.9719 31.2273 79.9941Z" fill="#F3F3F3"/>
<path d="M45.4602 62.6674C45.4602 62.6674 48.241 59.197 50.2634 58.7174C52.2732 58.2252 54.9908 60.3453 56.8742 62.1752C58.7576 63.9924 64.4583 71.5895 66.3164 77.2557C68.1871 82.9093 70.3359 91.1121 67.7826 92.841C65.2293 94.5699 61.4373 94.3049 61.4373 94.3049C61.4373 94.3049 55.8503 91.6169 49.9348 80.1835C44.0192 68.75 45.4602 62.6674 45.4602 62.6674Z" fill="#B1B1B1"/>
<path d="M54.031 80.6248C44.7658 64.5979 48.621 59.6131 48.621 59.6131C48.621 59.6131 55.8891 60.5596 63.2836 77.7349C67.9857 88.6383 65.8748 93.6988 65.8748 93.6988C65.8748 93.6988 61.6656 93.825 54.031 80.6248Z" fill="#CECECE"/>
<path d="M58.1763 76.1702C60.7549 80.2337 57.9741 82.8586 56.1539 84.0953C55.4713 83.0605 54.7635 81.8995 54.0304 80.6249C52.5515 78.0631 51.4012 75.7916 50.5291 73.7724C52.3619 73.0531 55.7873 72.3969 58.1763 76.1702Z" fill="#F3F3F3"/>
<path fill-rule="evenodd" clip-rule="evenodd" d="M41.3273 114.458C40.7964 114.597 40.3919 114.572 40.0506 114.37C39.2796 113.916 38.7487 112.54 38.2557 109.625C37.5858 105.663 35.3106 101.22 34.3247 99.4536C33.4525 99.4284 32.5677 98.9993 31.6829 98.1664C28.9147 99.5041 26.5257 99.8322 24.5918 99.1381C22.9486 98.5324 21.6593 97.1947 20.7492 95.163C19.4978 92.3488 19.6495 89.8122 21.2042 87.5912C22.4177 85.8875 24.1241 84.8779 24.8572 84.4993C24.8404 84.2049 24.8277 83.9104 24.8193 83.616C24.8193 83.5907 24.7687 81.6725 26.867 80.7513L29.6099 79.4388C29.6352 79.4262 30.2672 79.1486 30.7854 79.3757C30.9961 79.4599 31.152 79.6113 31.2531 79.8301C34.8176 75.6908 45.2963 62.743 45.3974 62.6168C45.5111 62.478 48.2161 59.1086 50.2385 58.629C52.2989 58.1368 55.0165 60.2569 56.9378 62.112C58.8465 63.9671 64.5219 71.5515 66.3926 77.2304C68.4403 83.4393 70.3616 91.2004 67.8209 92.9166C65.3308 94.6077 61.6147 94.4058 61.4377 94.3932L39.4439 95.857C39.5197 95.9959 39.6082 96.223 39.5829 96.5006C41.7065 98.5324 43.4635 101.687 44.5631 103.984C45.8272 106.622 46.6614 109.032 46.851 109.903C47.0659 110.849 45.9662 111.859 45.0182 112.553C43.8806 113.361 42.5154 114.042 41.6686 114.345C41.5506 114.387 41.4368 114.425 41.3273 114.458ZM31.7081 97.9771L31.7587 98.015C32.6309 98.8605 33.5157 99.2896 34.3752 99.3022H34.4258L34.4511 99.3401C35.4243 101.082 37.7375 105.574 38.42 109.6C38.9004 112.427 39.4186 113.815 40.1391 114.231C40.5057 114.446 40.9481 114.433 41.618 114.193C43.198 113.626 47.0406 111.505 46.6993 109.928C46.5097 109.07 45.6755 106.685 44.4241 104.06C43.3244 101.763 41.5674 98.5955 39.4312 96.589L39.406 96.5511V96.5133C39.4692 96.1473 39.2416 95.8444 39.2416 95.8318L39.1405 95.7182L39.2922 95.7056L61.4377 94.2291H61.4503C61.4882 94.2291 65.2297 94.4689 67.7325 92.7778C68.8448 92.0333 69.1355 89.9258 68.6299 86.5311C68.2507 84.045 67.4417 80.928 66.2409 77.2809C64.3828 71.6273 58.7201 64.0681 56.824 62.2256C54.928 60.3958 52.261 58.3135 50.2765 58.7931C50.2596 58.7931 50.2385 58.7973 50.2133 58.8057C48.254 59.3357 45.5617 62.6799 45.5238 62.7178C45.4227 62.8566 34.7671 76.0063 31.291 80.0446L31.2025 80.1455L31.152 80.0194C31.0677 79.7754 30.9245 79.6113 30.7222 79.5272C30.2798 79.3253 29.6857 79.5903 29.6731 79.5903L26.9428 80.9027C24.9331 81.7735 24.9836 83.5276 24.9836 83.6033C24.992 83.9146 25.0089 84.2259 25.0342 84.5372V84.6003L24.9836 84.6255C23.7954 85.2313 17.981 88.5755 20.8882 95.0872C21.7857 97.0938 23.0497 98.4062 24.655 98.9867C26.551 99.6682 28.9147 99.3401 31.6576 98.0024L31.7081 97.9771Z" fill="#1D1D1B"/>
<path d="M31.645 98.1285C28.2574 94.9231 26.5889 91.4023 25.7926 89.0171C24.9331 86.4301 24.8699 84.575 24.8699 84.5498H25.0342C25.0342 84.5624 25.0974 86.4049 25.9569 88.9793C26.7406 91.3392 28.3965 94.8348 31.7587 98.015L31.645 98.1285Z" fill="#1D1D1B"/>
<path d="M39.2413 95.8442C37.4843 94.3172 35.9549 92.5252 34.7161 90.5313C33.7176 88.9413 32.9086 87.2124 32.2892 85.3951C31.2527 82.3159 31.1516 80.0192 31.1516 79.9939L31.3159 79.9813C31.3159 80.0065 31.4044 82.2907 32.4409 85.3573C33.4016 88.1841 35.3734 92.2729 39.355 95.7306L39.2413 95.8442Z" fill="#1D1D1B"/>
<path d="M35.0072 99.3146C34.6659 99.403 34.4258 99.4535 34.3878 99.4535L34.3625 99.302C34.4005 99.2894 38.104 98.5575 39.4186 96.4752L39.5576 96.5636C38.5211 98.2041 36.1448 99.0118 35.0072 99.3146Z" fill="#1D1D1B"/>
<path d="M65.8366 93.8C65.5965 93.8631 64.8254 93.9262 63.3213 92.7904C61.6907 91.5537 58.8087 88.5754 54.3847 81.3948C52.198 77.8487 50.5295 74.5045 49.4298 71.4379C48.545 68.9897 48.0141 66.7055 47.8624 64.6738C47.597 61.1907 48.5071 59.6385 48.545 59.5754L48.684 59.6638C48.684 59.6764 47.7613 61.2412 48.0267 64.6864C48.2669 67.8539 49.5941 73.3182 54.5237 81.3191C58.8972 88.3988 61.7412 91.377 63.3592 92.6137C65.1162 93.964 65.824 93.6359 65.8366 93.6359L65.9125 93.7747C65.8998 93.7747 65.8746 93.7873 65.8366 93.8Z" fill="#1D1D1B"/>
<path d="M27.84 86.3038L27.7009 86.2155L29.1293 84.0323L29.2683 84.1206L27.84 86.3038Z" fill="#1D1D1B"/>
<path d="M26.7783 85.4078L26.6519 85.3195L28.0802 83.1363L28.2192 83.2246L26.7783 85.4078Z" fill="#1D1D1B"/>
<path d="M135.964 39.7877C135.964 43.8765 134.535 47.6371 132.172 50.6027C129.441 54.01 125.435 56.3699 120.884 56.9631C120.143 57.064 119.384 57.1145 118.609 57.1145C118.567 57.1145 118.52 57.1145 118.47 57.1145C117.77 57.1061 117.079 57.0598 116.397 56.9757C116.22 56.9504 116.039 56.9252 115.853 56.9C111.404 56.1933 107.511 53.7955 104.869 50.3756C102.607 47.4478 101.254 43.7755 101.254 39.7877C101.254 30.222 109.028 22.4735 118.609 22.4735C128.19 22.4735 135.964 30.222 135.964 39.7877Z" fill="#F9A915"/>
<path d="M115.335 38.0968C115.335 38.0968 116.08 44.7474 117.066 44.8231C118.065 44.8862 116.384 52.6851 113.742 48.8614C112.819 47.5237 112.857 38.7657 115.069 36.8979C117.281 35.0176 115.335 38.0968 115.335 38.0968Z" fill="#222222"/>
<path d="M119.519 34.639C119.519 34.5381 120.795 37.1377 120.795 37.1377L120.644 47.6499L116.194 48.1547L116.27 44.4571C115.284 44.4319 114.88 43.8388 114.88 43.8388C114.058 42.7156 114.968 36.4184 114.968 36.4184C114.968 36.4184 119.519 34.7526 119.519 34.639Z" fill="#FE9F73"/>
<path d="M116.322 41.6683C116.069 41.5926 115.955 41.1257 115.943 41.1004V41.0752L115.955 41.0499C116.225 40.8649 116.385 40.6293 116.436 40.3432C116.524 39.8763 116.309 39.4346 116.309 39.422C116.309 39.4094 116.309 39.3841 116.322 39.3715C116.334 39.3589 116.347 39.3589 116.36 39.3841C116.372 39.3968 116.587 39.8637 116.499 40.3559C116.436 40.6587 116.271 40.9237 116.006 41.113C116.044 41.214 116.157 41.5295 116.334 41.5926C116.347 41.5926 116.36 41.6178 116.36 41.6431C116.36 41.6557 116.347 41.6683 116.334 41.6683C116.326 41.6683 116.322 41.6683 116.322 41.6683Z" fill="#FB554B"/>
<path d="M116.245 45.7191L116.27 44.4572C116.27 44.4572 118.394 44.3688 119.721 43.5612C119.721 43.5612 117.914 45.2396 116.245 45.7191Z" fill="#FB554B"/>
<path d="M119.215 39.5604C119.177 39.5226 118.292 38.5887 117.446 39.2449C117.42 39.2702 117.37 39.2702 117.332 39.2323C117.307 39.1945 117.319 39.144 117.344 39.1187C118.305 38.3742 119.316 39.4469 119.329 39.4469C119.367 39.4847 119.354 39.5352 119.329 39.5604C119.312 39.5773 119.291 39.5857 119.266 39.5857C119.249 39.5857 119.232 39.5773 119.215 39.5604Z" fill="#2F0E1B"/>
<path d="M115.903 39.3467C115.903 39.3467 115.272 38.7908 114.918 39.094C114.893 39.1193 114.842 39.1193 114.804 39.0814C114.779 39.0435 114.779 38.9929 114.817 38.9677C115.272 38.5887 115.979 39.2077 116.017 39.233C116.042 39.2582 116.055 39.3088 116.017 39.3467C116 39.3635 115.983 39.3719 115.966 39.3719C115.941 39.3719 115.92 39.3635 115.903 39.3467Z" fill="#2F0E1B"/>
<path d="M117.888 39.7878C118.002 39.7878 118.103 39.9015 118.103 40.0152C118.103 40.1415 118.002 40.2426 117.875 40.2426C117.749 40.2426 117.648 40.1415 117.661 40.0152C117.661 39.8889 117.762 39.7878 117.888 39.7878Z" fill="#010103"/>
<path d="M115.259 39.7626C115.385 39.7626 115.486 39.8636 115.474 39.99C115.474 40.1163 115.373 40.2173 115.246 40.2047C115.133 40.2047 115.032 40.1037 115.032 39.9773C115.032 39.8636 115.133 39.7626 115.259 39.7626Z" fill="#010103"/>
<path d="M116.712 42.7657C116.131 42.8288 115.853 42.2234 115.853 42.2234C115.853 42.2234 117.407 42.0469 117.432 42.0469C117.432 42.0469 117.293 42.7027 116.712 42.7657Z" fill="#FBFDFA"/>
<path d="M116.397 36.1779C116.245 36.1275 117.988 35.0555 117.988 35.0555L116.902 36.5437C116.902 36.5437 116.536 36.2284 116.397 36.1779Z" fill="#FC8759"/>
<path d="M120.151 35.8377C120.151 35.8377 119.835 38.185 114.21 38.6519C114.21 38.6519 112.895 35.1815 116.991 34.0205C121.073 32.8595 121.44 35.9892 121.364 35.9639C121.276 35.9387 120.151 35.8377 120.151 35.8377Z" fill="#222222"/>
<path d="M119.519 34.5633C121.415 33.0994 124.347 35.535 124.385 37.9453C124.436 41.7817 126.749 49.0254 123.399 49.0759H122.729C118.937 49.6312 120.682 39.813 120.682 39.813C120.189 38.7025 119.291 37.1503 119.291 37.1503C119.291 37.1503 117.61 36.0271 119.519 34.5633Z" fill="#222222"/>
<path d="M121.124 39.7749C121.819 39.7749 122.376 40.3554 122.376 41.0495C122.363 41.7436 121.794 42.2862 121.099 42.2862C120.404 42.2736 119.848 41.7057 119.86 41.0116C119.86 40.3175 120.442 39.7623 121.124 39.7749Z" fill="#FE9F73"/>
<path d="M121.187 41.8061C121.162 41.8061 121.149 41.7808 121.149 41.7556C121.149 41.743 121.162 41.7178 121.187 41.7178C121.427 41.7304 121.566 41.5412 121.617 41.3899C121.667 41.2385 121.655 41.0241 121.465 40.898C121.111 40.6836 120.821 40.9611 120.808 40.9737L120.695 41.0746L120.732 40.9358C120.791 40.7172 120.901 40.5659 121.061 40.4818C121.339 40.3305 121.667 40.444 121.68 40.444C121.705 40.4566 121.718 40.4692 121.705 40.4944C121.705 40.5196 121.68 40.5323 121.655 40.5196C121.655 40.5196 121.351 40.4187 121.099 40.5449C120.989 40.6037 120.909 40.7004 120.859 40.8349C120.985 40.7593 121.238 40.6584 121.503 40.8349C121.692 40.9484 121.768 41.1755 121.692 41.4151C121.642 41.6043 121.452 41.8061 121.2 41.8061C121.191 41.8061 121.187 41.8061 121.187 41.8061Z" fill="#FB554B"/>
<path d="M114.564 37.4911L113.211 43.334C112.769 37.4154 114.716 35.3584 114.716 35.3584L114.564 37.4911Z" fill="#222222"/>
<path d="M120.884 56.9633C120.142 57.0643 119.384 57.1148 118.609 57.1148C118.567 57.1148 118.52 57.1148 118.47 57.1148C117.77 57.1064 117.079 57.0601 116.397 56.976L116.498 56.5469L118.053 50.0478L118.47 48.2936L118.571 47.8898L118.735 47.1705H126.13C126.913 47.1705 127.988 47.6879 128.038 47.7131C129.037 48.2431 130.579 49.2653 132.171 50.603C129.441 54.0103 125.434 56.3702 120.884 56.9633Z" fill="#F3F3F3"/>
<path d="M118.47 47.1704V57.1147C117.77 57.1063 117.079 57.0601 116.397 56.9759C116.22 56.9507 116.039 56.9254 115.853 56.9002C111.404 56.1935 107.511 53.7958 104.869 50.3758C106.55 49.177 108.155 48.2557 109.179 47.7131C109.217 47.6878 110.304 47.1704 111.088 47.1704H118.47Z" fill="#F3F3F3"/>
<path d="M114.197 47.1703H123.538C123.538 47.1703 121.845 50.0981 118.621 50.0855C117.142 50.0728 115.55 49.5302 114.197 47.1703Z" fill="#FE9F73"/>
<path fill-rule="evenodd" clip-rule="evenodd" d="M118.609 57.7203C118.558 57.7203 118.508 57.7203 118.457 57.7203C117.749 57.7203 117.029 57.6698 116.321 57.5815C116.153 57.5562 115.967 57.5268 115.765 57.4932C111.24 56.7738 107.208 54.3887 104.389 50.7542C101.949 47.5867 100.647 43.8008 100.647 39.7878C100.647 35.0049 102.518 30.4997 105.906 27.1176C109.306 23.7229 113.806 21.8678 118.609 21.8678C123.4 21.8678 127.912 23.7229 131.312 27.1176C134.7 30.4997 136.571 35.0049 136.571 39.7878C136.571 43.9018 135.205 47.776 132.639 50.9814C129.72 54.6285 125.574 56.9631 120.96 57.5689C120.202 57.6698 119.405 57.7203 118.609 57.7203ZM118.609 23.0793C109.382 23.0793 101.861 30.5754 101.861 39.7878C101.861 43.5232 103.074 47.0567 105.349 50.0097C107.979 53.3918 111.745 55.6254 115.955 56.2943C116.144 56.3321 116.308 56.3574 116.473 56.37C117.13 56.4583 117.8 56.4962 118.483 56.5088C118.525 56.5088 118.567 56.5088 118.609 56.5088C119.355 56.5088 120.088 56.4583 120.808 56.37C125.106 55.8021 128.974 53.6189 131.691 50.2242C134.08 47.2334 135.357 43.6241 135.357 39.7878C135.357 30.5754 127.836 23.0793 118.609 23.0793Z" fill="white"/>
<path d="M135.357 134.031C135.357 136.707 134.826 139.256 133.865 141.591C133.848 141.641 133.827 141.696 133.802 141.755C133.794 141.763 133.789 141.776 133.789 141.792C132.879 143.938 131.603 145.894 130.035 147.572C129.993 147.623 129.947 147.673 129.896 147.724C129.846 147.774 129.795 147.825 129.744 147.875C126.117 151.623 121.035 153.958 115.398 153.958C112.314 153.958 109.394 153.264 106.79 152.014C106.31 151.787 105.834 151.535 105.362 151.257C105.286 151.215 105.21 151.169 105.134 151.118C104.923 150.992 104.713 150.862 104.502 150.727C104.435 150.685 104.363 150.639 104.287 150.588C102.859 149.629 101.557 148.481 100.407 147.194C99.9939 146.723 99.602 146.235 99.2312 145.73C98.4349 144.632 97.7397 143.446 97.1835 142.196C96.0586 139.698 95.4392 136.934 95.4392 134.031C95.4392 123.014 104.376 114.092 115.398 114.092C126.42 114.092 135.357 123.014 135.357 134.031Z" fill="#B5B5C0"/>
<path d="M109.065 124.844C109.065 124.844 107.535 121.336 111.555 118.433C115.587 115.531 116.206 120.503 117.749 120.982C119.303 121.449 122.109 120.919 123.121 123.822C124.132 126.724 123.538 128.845 125.168 129.311C126.786 129.778 132.108 133.968 130.667 139.382C129.226 144.808 123.93 144.442 123.93 144.442C123.93 144.442 103.137 145.086 101.797 139.672C100.444 134.258 102.479 131.949 105.146 130.157C106.777 129.059 110.051 128.163 109.065 124.844Z" fill="#222222"/>
<path d="M120.1 126.788L118.621 142.121L112.01 141.49L112.452 136.808C110.986 136.644 110.455 135.697 110.455 135.697C109.356 133.918 111.201 126.561 111.201 126.561L120.1 126.788Z" fill="#FE9F73"/>
<path d="M112.781 132.63C112.263 132.466 112.061 131.747 112.048 131.709L112.036 131.659L112.086 131.646C112.655 131.419 113.021 131.078 113.173 130.649C113.413 129.98 113.021 129.274 113.009 129.274C112.996 129.236 113.009 129.198 113.034 129.185C113.059 129.173 113.097 129.173 113.123 129.211C113.135 129.236 113.54 129.968 113.287 130.7C113.135 131.141 112.756 131.495 112.175 131.734C112.238 131.899 112.44 132.391 112.819 132.517C112.844 132.53 112.857 132.555 112.857 132.593C112.844 132.618 112.819 132.63 112.794 132.63C112.786 132.63 112.781 132.63 112.781 132.63Z" fill="#FB554B"/>
<path d="M112.275 138.688L112.452 136.808C112.452 136.808 115.663 136.934 117.736 135.886C117.736 135.886 114.841 138.183 112.275 138.688Z" fill="#F07162"/>
<path d="M116.699 129.779C116.649 129.715 115.435 128.201 114.095 129.084C114.045 129.122 113.969 129.11 113.931 129.047C113.893 128.996 113.906 128.92 113.969 128.883C115.486 127.886 116.876 129.602 116.889 129.627C116.939 129.678 116.927 129.753 116.876 129.791C116.851 129.816 116.821 129.825 116.788 129.816C116.754 129.816 116.725 129.804 116.699 129.779Z" fill="#2F0E1B"/>
<path d="M112.554 129.122C112.541 129.11 111.669 128.201 111.1 128.605C111.05 128.643 110.974 128.63 110.936 128.567C110.898 128.517 110.911 128.441 110.961 128.403C111.694 127.886 112.68 128.908 112.731 128.946C112.769 128.996 112.769 129.072 112.718 129.122C112.693 129.147 112.655 129.16 112.63 129.16C112.596 129.152 112.571 129.139 112.554 129.122Z" fill="#2F0E1B"/>
<path d="M111.53 129.652C111.707 129.665 111.846 129.829 111.833 130.018C111.808 130.207 111.644 130.333 111.467 130.321C111.277 130.308 111.138 130.144 111.163 129.955C111.176 129.766 111.34 129.627 111.53 129.652Z" fill="#010103"/>
<path d="M114.867 129.917C115.056 129.942 115.183 130.106 115.17 130.283C115.145 130.472 114.98 130.611 114.804 130.586C114.614 130.573 114.475 130.409 114.5 130.22C114.513 130.043 114.677 129.905 114.867 129.917Z" fill="#010103"/>
<path d="M120.314 130.384C121.351 130.485 122.122 131.406 122.021 132.441C121.92 133.489 120.997 134.246 119.96 134.145C118.911 134.044 118.153 133.123 118.254 132.088C118.355 131.053 119.278 130.283 120.314 130.384Z" fill="#FE9F73"/>
<path d="M120.151 133.438C120.125 133.438 120.1 133.4 120.1 133.375C120.1 133.337 120.138 133.312 120.163 133.312C120.53 133.35 120.757 133.097 120.859 132.87C120.947 132.656 120.947 132.328 120.682 132.113C120.189 131.747 119.696 132.126 119.683 132.151L119.519 132.29L119.582 132.075C119.7 131.756 119.885 131.541 120.138 131.432C120.568 131.255 121.048 131.457 121.061 131.47C121.099 131.482 121.111 131.52 121.099 131.545C121.086 131.571 121.048 131.583 121.01 131.571C121.01 131.571 120.568 131.381 120.189 131.545C120.012 131.621 119.873 131.756 119.771 131.949C119.986 131.848 120.366 131.735 120.745 132.025C121.023 132.227 121.099 132.58 120.972 132.921C120.846 133.211 120.555 133.476 120.163 133.438C120.163 133.438 120.159 133.438 120.151 133.438Z" fill="#FB554B"/>
<path d="M111.201 126.56C111.201 126.56 112.048 123.721 115.953 123.784C119.859 123.834 120.099 126.787 120.099 126.787L115.587 127.254L111.479 126.56H111.201Z" fill="#FE9F73"/>
<path d="M112.25 122.181C112.25 122.181 116.712 122.888 116.978 122.913C117.243 122.939 121.301 125.059 121.301 125.059C121.301 125.059 122.021 130.46 119.746 130.422C117.471 130.372 116.788 126.459 116.788 126.459C113.615 126.699 111.441 124.112 111.441 124.112L112.25 122.181Z" fill="#222222"/>
<path d="M112.111 133.413C112.149 133.4 114.412 133.161 114.412 133.161C114.412 133.161 114.197 134.12 113.363 134.208C112.516 134.296 112.111 133.413 112.111 133.413Z" fill="#FBFDFA"/>
<path d="M130.781 140.606C131.817 140.821 132.841 141.212 133.802 141.755C133.794 141.763 133.789 141.776 133.789 141.792C132.879 143.938 131.603 145.894 130.035 147.572C129.993 147.623 129.947 147.673 129.896 147.724C129.846 147.774 129.795 147.825 129.745 147.875C126.117 151.623 121.035 153.958 115.398 153.958C112.314 153.958 109.394 153.264 106.79 152.014C106.31 151.787 105.834 151.535 105.362 151.257C105.286 151.215 105.21 151.169 105.134 151.118C104.924 150.992 104.713 150.862 104.502 150.727C104.435 150.685 104.363 150.639 104.287 150.588C102.859 149.629 101.557 148.481 100.407 147.194C99.9939 146.722 99.6021 146.235 99.2313 145.73C98.435 144.632 97.7398 143.446 97.1836 142.196C98.1695 141.54 100.103 141.048 102.315 140.682C104.022 140.404 105.905 140.202 107.624 140.051C109.432 139.899 111.062 139.811 112.175 139.761C113.097 139.723 113.654 139.71 113.654 139.71C113.654 139.71 115.916 139.71 118.836 139.786C120.163 139.824 121.63 139.874 123.083 139.925C123.083 139.933 123.083 139.937 123.083 139.937C124.208 139.975 125.308 140.038 126.344 140.114C127.886 140.215 129.264 140.354 130.288 140.518C130.364 140.526 130.44 140.539 130.516 140.556C130.524 140.556 130.532 140.556 130.541 140.556C130.6 140.573 130.659 140.585 130.718 140.594C130.743 140.602 130.764 140.606 130.781 140.606Z" fill="#999999"/>
<path d="M133.865 141.59C133.848 141.641 133.827 141.696 133.802 141.754C133.793 141.763 133.789 141.776 133.789 141.792C133.41 141.59 133.031 141.426 132.652 141.3C131.978 141.081 131.16 140.888 130.199 140.72C129.121 140.526 127.869 140.366 126.445 140.24C126.382 140.228 126.344 140.177 126.344 140.127C126.344 140.118 126.344 140.114 126.344 140.114C126.357 140.051 126.407 140.013 126.458 140.026C127.912 140.152 129.188 140.316 130.288 140.518C130.364 140.526 130.44 140.539 130.515 140.556C130.524 140.556 130.532 140.556 130.541 140.556C130.625 140.572 130.705 140.589 130.781 140.606C131.522 140.758 132.167 140.922 132.715 141.098C133.102 141.224 133.486 141.389 133.865 141.59Z" fill="#010103"/>
<path d="M107.624 140.051C107.624 140.051 115.221 147.61 123.096 139.937C123.096 139.937 114.096 138.928 107.624 140.051Z" fill="#FE9F73"/>
<path fill-rule="evenodd" clip-rule="evenodd" d="M115.398 153.983C115.339 153.983 115.28 153.983 115.221 153.983C114.399 153.97 113.578 153.92 112.769 153.819C112.567 153.794 112.352 153.76 112.124 153.718C106.929 152.898 102.278 150.134 99.0417 145.957C96.223 142.322 94.7314 137.969 94.7314 133.35C94.7314 127.848 96.8803 122.661 100.786 118.762C104.692 114.875 109.874 112.729 115.398 112.729C120.909 112.729 126.104 114.875 130.01 118.762C133.903 122.661 136.052 127.848 136.052 133.35C136.052 138.082 134.497 142.537 131.539 146.222C128.177 150.412 123.412 153.112 118.103 153.806C117.218 153.92 116.308 153.983 115.398 153.983ZM115.398 114.117C104.78 114.117 96.1345 122.749 96.1345 133.35C96.1345 137.653 97.5249 141.717 100.154 145.111C103.162 148.998 107.498 151.573 112.339 152.342C112.554 152.38 112.756 152.406 112.946 152.431C113.704 152.532 114.475 152.582 115.246 152.582C115.297 152.582 115.347 152.582 115.398 152.582C116.245 152.582 117.104 152.532 117.926 152.418C122.868 151.775 127.318 149.263 130.452 145.351C133.208 141.919 134.662 137.767 134.662 133.35C134.662 122.749 126.016 114.117 115.398 114.117Z" fill="#101035"/>
<path d="M167.4 73.9872C176.741 73.9872 184.312 81.5464 184.312 90.8723C184.312 94.5699 183.111 98.0024 181.089 100.779C180.777 101.208 180.444 101.624 180.09 102.028C178.599 103.719 176.753 105.12 174.68 106.104C172.481 107.164 170.004 107.757 167.4 107.757C162.634 107.757 158.324 105.776 155.24 102.609C155.198 102.567 155.156 102.52 155.113 102.47C155.08 102.428 155.042 102.386 155 102.344C152.206 99.3401 150.487 95.3018 150.487 90.8723C150.487 81.5464 158.059 73.9872 167.4 73.9872Z" fill="#B5B5C0"/>
<path d="M174.681 106.104C172.482 107.164 170.004 107.757 167.401 107.757C162.635 107.757 158.325 105.776 155.241 102.608C155.199 102.566 155.157 102.52 155.114 102.469C156.871 101.056 159.349 99.8066 162.837 99.2008C162.484 99.3523 163.368 99.1377 163.634 99.062C163.684 99.062 163.71 99.0494 163.71 99.0494C163.71 99.0494 163.823 99.0494 164.026 99.062C165.012 99.0999 168.108 99.2261 171.18 99.4154C171.29 99.4154 171.395 99.4196 171.496 99.428C173.657 99.5668 175.781 99.7309 177.108 99.9075C178.322 100.072 179.295 100.879 180.091 102.028C178.6 103.719 176.754 105.119 174.681 106.104Z" fill="#999999"/>
<path d="M171.23 84.0323L171.293 92.5254L171.154 94.7212C171.154 94.7212 171.66 99.2012 171.432 100.122C171.205 101.056 169.802 102.886 167.312 102.823C166.528 102.798 165.833 102.646 165.251 102.444C164.076 102.041 163.368 100.842 163.558 99.6176L164.051 96.2986C161.877 95.9327 162.041 93.4466 162.041 93.4466L162.243 85.6981L171.23 84.0323Z" fill="#FE9F73"/>
<path d="M169.156 94.317C169.156 94.317 168.904 98.4814 163.683 98.7465L164.05 96.2982C164.05 96.2982 167.412 97.068 169.156 94.317Z" fill="#F07162"/>
<path d="M168.083 89.8878C168.032 89.8247 166.806 88.5123 165.63 89.4209C165.58 89.4461 165.517 89.4461 165.479 89.3956C165.441 89.3578 165.454 89.282 165.504 89.2568C166.831 88.2346 168.222 89.7364 168.234 89.749C168.272 89.7868 168.272 89.8499 168.234 89.8878C168.209 89.913 168.184 89.9257 168.158 89.9257C168.133 89.9257 168.108 89.913 168.083 89.8878Z" fill="#2D0F28"/>
<path d="M171.761 88.929L169.511 89.3329L169.093 89.7367C169.093 89.7367 169.384 85.9887 169.827 85.2693C170.269 84.5374 171.761 88.929 171.761 88.929Z" fill="#222222"/>
<path d="M163.824 89.156C163.811 89.156 162.951 88.3736 162.446 88.7774C162.408 88.8153 162.332 88.8153 162.294 88.7648C162.269 88.7143 162.269 88.6512 162.319 88.6134C162.951 88.096 163.925 88.9667 163.963 89.0046C164.013 89.0425 164.013 89.1056 163.975 89.156C163.95 89.1813 163.925 89.1939 163.887 89.1939C163.87 89.1855 163.849 89.1729 163.824 89.156Z" fill="#2D0F28"/>
<path d="M166.363 89.9888C166.54 89.9888 166.679 90.1276 166.666 90.3041C166.666 90.4681 166.527 90.6068 166.35 90.6068C166.174 90.5942 166.047 90.4555 166.047 90.2915C166.047 90.1149 166.199 89.9762 166.363 89.9888Z" fill="#010103"/>
<path d="M163.064 89.5851C163.229 89.5851 163.368 89.7364 163.368 89.9004C163.355 90.077 163.216 90.2157 163.039 90.2031C162.875 90.2031 162.736 90.0643 162.736 89.8878C162.749 89.7112 162.888 89.5851 163.064 89.5851Z" fill="#010103"/>
<path d="M170.547 88.4241C171.571 88.4493 172.392 89.3074 172.367 90.3423C172.342 91.3771 171.482 92.1847 170.446 92.1595C169.409 92.1342 168.6 91.2761 168.626 90.2413C168.651 89.2191 169.51 88.3988 170.547 88.4241Z" fill="#FE9F73"/>
<path d="M170.788 91.3391C170.75 91.3391 170.737 91.3139 170.737 91.2886C170.737 91.2508 170.762 91.2382 170.788 91.2382C170.788 91.2382 170.792 91.2382 170.8 91.2382C171.154 91.2382 171.369 90.9732 171.445 90.746C171.521 90.5188 171.495 90.1907 171.217 90.0014C170.699 89.6607 170.244 90.0772 170.219 90.1024L170.08 90.2286L170.13 90.0519C170.223 89.7238 170.387 89.5009 170.623 89.3831C171.04 89.1685 171.521 89.3326 171.546 89.3452C171.571 89.3578 171.584 89.3831 171.571 89.4083C171.559 89.4336 171.533 89.4462 171.508 89.4462C171.508 89.4335 171.053 89.2821 170.674 89.4714C170.505 89.564 170.375 89.7154 170.282 89.9257C170.484 89.7995 170.863 89.6481 171.268 89.9131C171.546 90.0898 171.647 90.4305 171.546 90.7712C171.445 91.0615 171.179 91.3517 170.788 91.3391Z" fill="#FB554B"/>
<path d="M164.871 92.3486L163.759 91.9574L164.163 89.4334C164.176 89.4082 164.201 89.3829 164.227 89.3829C164.252 89.3956 164.277 89.4208 164.277 89.446L163.873 91.8816L164.909 92.2602C164.934 92.2602 164.947 92.2981 164.947 92.3233C164.934 92.3486 164.909 92.3612 164.897 92.3612C164.888 92.3612 164.88 92.357 164.871 92.3486Z" fill="#FB554B"/>
<path d="M164.607 94.1662C163.849 94.1283 163.621 93.2828 163.621 93.2828C163.621 93.2828 165.644 93.3837 165.669 93.3837C165.669 93.3837 165.353 94.204 164.607 94.1662Z" fill="#FBFDFA"/>
<path d="M168.159 85.9252C164.834 86.8969 159.336 85.7864 159.981 83.5274C160.613 81.2685 163.166 82.1645 163.166 82.1645C163.166 82.1645 162.408 81.319 163.204 80.6628C164 80.0065 170.333 82.5431 171.407 83.9186C172.494 85.3068 171.761 88.9286 171.761 88.9286C170.32 86.6066 168.159 85.9252 168.159 85.9252Z" fill="#222222"/>
<path fill-rule="evenodd" clip-rule="evenodd" d="M167.438 108.805C167.387 108.805 167.341 108.805 167.299 108.805C166.591 108.805 165.896 108.754 165.213 108.666C165.045 108.649 164.859 108.624 164.657 108.59C160.258 107.896 156.327 105.561 153.584 102.015C151.195 98.9361 149.931 95.2386 149.931 91.3391C149.931 86.6698 151.751 82.2782 155.063 78.9844C158.362 75.6781 162.761 73.8608 167.438 73.8608C172.115 73.8608 176.501 75.6781 179.812 78.9844C183.111 82.2782 184.932 86.6698 184.932 91.3391C184.932 95.3521 183.617 99.1128 181.114 102.242C178.27 105.789 174.225 108.073 169.726 108.666C168.98 108.754 168.209 108.805 167.438 108.805ZM167.438 75.0471C158.438 75.0471 151.119 82.3539 151.119 91.3391C151.119 94.9735 152.295 98.4187 154.52 101.296C157.073 104.59 160.751 106.773 164.846 107.429C165.036 107.454 165.2 107.48 165.352 107.492C165.997 107.581 166.654 107.618 167.311 107.631C167.353 107.631 167.396 107.631 167.438 107.631C168.158 107.631 168.879 107.581 169.574 107.492C173.77 106.937 177.537 104.817 180.192 101.498C182.517 98.5954 183.756 95.0745 183.756 91.3391C183.756 82.3539 176.437 75.0471 167.438 75.0471Z" fill="#101035"/>
<path d="M69.3123 70.8321L68.7561 69.8352L73.6225 67.1346L74.1787 68.1315L69.3123 70.8321ZM79.0325 65.4057L78.4763 64.4214L83.3428 61.7081L83.899 62.7051L79.0325 65.4057ZM88.7528 59.9919L88.1966 58.9949L93.0504 56.2943L93.6066 57.2786L88.7528 59.9919ZM98.4856 54.578L97.9295 53.5811L102.783 50.8804L103.339 51.8774L98.4856 54.578Z" fill="#101035"/>
<path d="M157.124 77.4702L154.14 73.4697L155.063 72.7883L158.034 76.7887L157.124 77.4702ZM150.829 69.015L147.504 64.5603L148.414 63.8788L151.739 68.3335L150.829 69.015ZM144.18 60.0929L140.856 55.6381L141.778 54.9567L145.103 59.4114L144.18 60.0929ZM137.531 51.1834L134.207 46.7287L135.117 46.0472L138.441 50.5019L137.531 51.1834Z" fill="#101035"/>
<path d="M134.08 124.213L133.334 123.343L137.569 119.733L138.314 120.604L134.08 124.213ZM142.549 116.995L141.803 116.137L146.038 112.528L146.783 113.386L142.549 116.995ZM151.018 109.789L150.272 108.918L154.506 105.309L155.252 106.18L151.018 109.789Z" fill="#101035"/>
<path d="M150.007 89.5217L147.188 89.1053L147.352 87.9821L150.184 88.3986L150.007 89.5217ZM141.664 88.285L136.166 87.4647L136.33 86.3416L141.841 87.1618L141.664 88.285ZM130.642 86.6444L125.144 85.8368L125.308 84.7136L130.819 85.5213L130.642 86.6444ZM119.62 85.0165L114.122 84.1962L114.286 83.0731L119.797 83.8933L119.62 85.0165ZM108.598 83.3759L103.099 82.5683L103.264 81.4325L108.775 82.2528L108.598 83.3759ZM97.5757 81.748L92.0773 80.9277L92.2416 79.8046L97.7527 80.6122L97.5757 81.748ZM86.5536 80.1201L81.0551 79.3124L81.2195 78.1766L86.7305 78.9969L86.5536 80.1201ZM75.5314 78.4921L70.033 77.6719L70.1973 76.5487L75.6957 77.3564L75.5314 78.4921Z" fill="#101035"/>
<path d="M198.267 147.661C198.267 151.472 196.801 154.93 194.399 157.517C194.365 157.55 194.332 157.584 194.298 157.618C194.264 157.66 194.226 157.697 194.184 157.731C191.555 160.457 187.852 162.161 183.756 162.161C181.519 162.161 179.395 161.656 177.499 160.747C175.717 159.902 174.137 158.703 172.848 157.239C172.553 156.894 172.27 156.536 172.001 156.166C170.257 153.781 169.233 150.841 169.233 147.661C169.233 139.66 175.73 133.161 183.756 133.161C191.77 133.161 198.267 139.66 198.267 147.661Z" fill="#F9A915"/>
<path d="M180.798 154.425C180.798 154.425 180.697 154.627 180.507 154.993C180.431 155.127 180.351 155.279 180.267 155.447C179.951 156.04 179.534 156.835 179.054 157.757C179.012 157.841 178.969 157.921 178.927 157.996C178.485 158.854 177.992 159.788 177.499 160.747C175.717 159.902 174.137 158.703 172.847 157.239C172.552 156.894 172.27 156.537 172 156.166C172.177 155.99 172.371 155.843 172.582 155.725C174.731 154.513 178.776 154.412 180.242 154.412C180.596 154.412 180.798 154.425 180.798 154.425Z" fill="#DCF4FF"/>
<path d="M172.848 157.239C173.53 156.255 174.377 155.561 175.426 155.422C176.564 155.271 178.384 155.119 180.242 155.006C180.326 155.006 180.415 155.001 180.508 154.993C183.149 154.829 185.804 154.728 186.651 154.69C186.828 154.69 186.916 154.677 186.916 154.677C186.916 154.677 186.941 154.69 186.992 154.703C187.219 154.753 187.978 154.955 187.675 154.816C190.67 155.334 192.794 156.406 194.298 157.618C194.264 157.66 194.226 157.698 194.184 157.731C191.555 160.457 187.851 162.161 183.756 162.161C181.519 162.161 179.395 161.656 177.499 160.747C175.717 159.902 174.137 158.703 172.848 157.239Z" fill="#DCF4FF"/>
<path d="M183.655 158.425C181.721 158.438 180.166 156.292 180.242 153.693L180.432 149.995L186.549 149.957L186.827 153.718C187.004 156.355 185.639 158.4 183.655 158.425Z" fill="#FE9F73"/>
<path d="M180.432 149.995L186.55 149.957L186.714 152.368C186.221 154.98 181.456 155.22 180.356 152.57L180.432 149.995Z" fill="#F07162"/>
<path d="M188.862 144.342C189.785 144.342 190.543 145.086 190.543 146.008C190.556 146.941 189.797 147.699 188.874 147.699C187.939 147.711 187.193 146.954 187.181 146.033C187.181 145.099 187.926 144.342 188.862 144.342Z" fill="#FE9F73"/>
<path d="M188.989 147.055C188.951 147.055 188.925 147.029 188.938 147.004C188.938 146.979 188.963 146.954 188.989 146.954C189.305 146.954 189.494 146.701 189.557 146.499C189.608 146.298 189.595 145.995 189.33 145.843C188.862 145.553 188.47 145.944 188.445 145.957L188.319 146.096L188.356 145.906C188.432 145.612 188.576 145.406 188.786 145.288C189.153 145.086 189.595 145.225 189.621 145.225C189.646 145.237 189.658 145.263 189.646 145.301C189.646 145.326 189.608 145.338 189.583 145.326C189.583 145.326 189.165 145.2 188.837 145.376C188.694 145.46 188.584 145.595 188.508 145.78C188.698 145.667 189.026 145.528 189.38 145.755C189.646 145.906 189.747 146.209 189.658 146.525C189.583 146.79 189.342 147.055 189.001 147.055C188.993 147.055 188.989 147.055 188.989 147.055Z" fill="#F07162"/>
<path d="M188.42 144.846C189.128 135.849 175.085 132.101 178.574 147.711C180.369 154.463 188.736 153.63 188.42 144.846Z" fill="#FE9F73"/>
<path d="M179.269 146.07C179.269 147.004 178.523 147.749 177.6 147.761C176.665 147.761 175.906 147.017 175.906 146.083C175.894 145.162 176.652 144.405 177.575 144.405C178.51 144.392 179.269 145.149 179.269 146.07Z" fill="#FE9F73"/>
<path d="M177.474 147.118C177.12 147.118 176.88 146.853 176.804 146.588C176.703 146.272 176.804 145.969 177.07 145.818C177.424 145.591 177.752 145.717 177.942 145.83C177.866 145.654 177.752 145.523 177.601 145.439C177.272 145.262 176.868 145.389 176.868 145.401C176.842 145.401 176.804 145.389 176.792 145.363C176.792 145.338 176.804 145.3 176.83 145.3C176.842 145.288 177.285 145.149 177.651 145.351C177.87 145.46 178.018 145.662 178.094 145.957L178.144 146.146L178.005 146.007C177.98 145.994 177.588 145.616 177.12 145.906C176.868 146.07 176.842 146.36 176.906 146.562C176.969 146.764 177.158 147.017 177.474 147.004C177.5 147.004 177.525 147.029 177.538 147.067C177.538 147.092 177.512 147.118 177.474 147.118Z" fill="#F07162"/>
<path d="M181.746 144.985C181.746 145.174 181.594 145.338 181.405 145.338C181.215 145.338 181.051 145.187 181.051 144.998C181.051 144.808 181.203 144.644 181.392 144.644C181.582 144.644 181.746 144.796 181.746 144.985Z" fill="#010103"/>
<path d="M185.626 144.695C185.815 144.695 185.967 144.846 185.967 145.036C185.967 145.225 185.815 145.376 185.626 145.376C185.436 145.376 185.285 145.225 185.285 145.036C185.285 144.846 185.436 144.695 185.626 144.695Z" fill="#010103"/>
<path d="M187.042 144.43C186.979 144.43 186.916 144.417 186.865 144.367C186.056 143.698 184.893 144.077 184.881 144.077C184.729 144.127 184.577 144.051 184.527 143.9C184.476 143.761 184.552 143.597 184.704 143.547C184.754 143.534 186.17 143.055 187.219 143.938C187.346 144.039 187.358 144.216 187.257 144.329C187.207 144.405 187.118 144.43 187.042 144.43Z" fill="#222222"/>
<path d="M180.041 144.443C179.965 144.443 179.876 144.405 179.826 144.342C179.725 144.216 179.75 144.052 179.864 143.951C180.925 143.08 182.329 143.572 182.392 143.597C182.543 143.648 182.619 143.812 182.556 143.951C182.506 144.102 182.354 144.165 182.202 144.115C182.19 144.115 181.039 143.711 180.218 144.38C180.167 144.418 180.104 144.443 180.041 144.443Z" fill="#222222"/>
<path d="M182.542 148.62C182.58 148.607 184.628 148.557 184.628 148.557C184.628 148.557 184.375 149.402 183.604 149.427C182.846 149.453 182.542 148.62 182.542 148.62Z" fill="#FBFDFA"/>
<path d="M188.408 144.556C188.142 144.985 187.523 145.162 187.523 145.162C187.523 145.162 187.523 140.846 187.27 140.266C187.017 139.698 185.551 138.524 184.452 139.47C183.794 140.026 183.339 140.051 183.086 139.963C182.821 140.013 182.404 139.937 181.822 139.433C180.735 138.486 179.256 139.635 178.991 140.202C178.738 140.77 178.688 145.099 178.688 145.099C178.688 145.099 178.081 144.91 177.815 144.48C177.537 144.039 177.487 138.726 177.841 138.07C179.522 135.028 187.283 136.025 188.446 138.145C188.812 138.802 188.686 144.115 188.408 144.556Z" fill="#222222"/>
<path d="M184.249 147.042L183.112 146.765L183.251 144.215C183.251 144.19 183.276 144.165 183.301 144.165C183.327 144.178 183.352 144.19 183.352 144.228L183.213 146.676L184.275 146.941C184.3 146.941 184.325 146.966 184.313 147.004C184.313 147.017 184.287 147.042 184.275 147.042C184.266 147.042 184.258 147.042 184.249 147.042Z" fill="#F07162"/>
<path fill-rule="evenodd" clip-rule="evenodd" d="M183.086 152.607C181.165 152.368 180.217 147.067 182.897 147.194C183.529 147.143 184.262 147.118 184.856 147.282C185.5 147.459 185.93 148.052 185.943 148.708C185.981 150.614 185.993 152.999 183.086 152.607ZM183.377 149.856L183.908 149.831C184.679 151.648 185.311 149.654 185.26 148.645C185.248 148.392 185.071 148.165 184.831 148.09C183.984 147.799 182.328 147.926 182.138 148.317C181.708 148.935 182.669 152.292 183.377 149.856Z" fill="#222222"/>
<path fill-rule="evenodd" clip-rule="evenodd" d="M183.579 163.057C183.537 163.057 183.495 163.057 183.452 163.057C182.833 163.057 182.214 163.006 181.62 162.931C181.468 162.914 181.304 162.893 181.127 162.867C177.259 162.249 173.783 160.192 171.369 157.075C169.27 154.362 168.158 151.106 168.158 147.661C168.158 143.547 169.763 139.685 172.67 136.77C175.59 133.867 179.458 132.265 183.579 132.265C187.7 132.265 191.567 133.867 194.475 136.77C197.395 139.685 199 143.547 199 147.661C199 151.194 197.837 154.513 195.625 157.264C193.122 160.394 189.558 162.413 185.601 162.931C184.944 163.006 184.261 163.057 183.579 163.057ZM183.579 133.312C175.654 133.312 169.194 139.748 169.194 147.661C169.194 150.866 170.231 153.907 172.19 156.431C174.453 159.347 177.676 161.265 181.291 161.833C181.455 161.858 181.607 161.883 181.746 161.896C182.315 161.971 182.884 162.009 183.465 162.009C183.507 162.018 183.545 162.018 183.579 162.009C184.211 162.009 184.843 161.971 185.462 161.896C189.153 161.404 192.478 159.536 194.816 156.621C196.864 154.046 197.951 150.954 197.951 147.661C197.951 139.748 191.504 133.312 183.579 133.312Z" fill="white"/>
<path d="M168.133 148.228L164.05 148.064L164.088 146.929L168.183 147.093L168.133 148.228ZM158.476 147.85L152.914 147.635L152.965 146.487L158.526 146.714L158.476 147.85ZM147.352 147.408L141.791 147.194L141.829 146.045L147.39 146.272L147.352 147.408ZM136.229 146.967L130.667 146.752L130.718 145.616L136.28 145.831L136.229 146.967Z" fill="#101035"/>
<path d="M180.495 132.744L179.534 127.747L180.659 127.532L181.62 132.53L180.495 132.744ZM178.485 122.295L177.436 116.831L178.561 116.616L179.61 122.081L178.485 122.295ZM176.387 111.379L175.337 105.915L176.462 105.7L177.512 111.165L176.387 111.379Z" fill="#101035"/>
</svg>
