<?xml version="1.0" encoding="utf-8"?>
<!-- Generator: Adobe Illustrator 25.3.1, SVG Export Plug-In . SVG Version: 6.00 Build 0)  -->
<svg version="1.1" id="Layer_1" xmlns="http://www.w3.org/2000/svg" xmlns:xlink="http://www.w3.org/1999/xlink" x="0px" y="0px"
	 viewBox="0 0 500 500" style="enable-background:new 0 0 500 500;" xml:space="preserve">
<style type="text/css">
	.st0{opacity:0.7;fill:#E5E5E5;}
	.st1{fill:#FAAA15;}
	.st2{fill:#FFFFFF;}
	.st3{fill:#101035;}
	.st4{fill:#FCFCFC;}
	.st5{fill:#015ABA;}
</style>
<rect class="st1" width="500" height="500"/>
<g>
	<g>
		<path class="st3" d="M139.3,331.75h12.37c0,2.92,0.61,5.08,1.84,6.47c1.23,1.39,3.17,2.09,5.82,2.09c2.35,0,4.22-0.8,5.61-2.42
			c1.39-1.61,2.09-3.91,2.09-6.88v-41.3h12.29v41.3c0,3.8-0.84,7.15-2.52,10.06c-1.68,2.91-4.05,5.16-7.11,6.74
			c-3.06,1.58-6.51,2.38-10.37,2.38c-6.31,0-11.23-1.6-14.75-4.81C141.06,342.16,139.3,337.62,139.3,331.75z"/>
		<path class="st3" d="M192.56,326.09c3.47-2.51,8.49-3.78,15.08-3.81h5.45v-2.54c0-2.05-0.53-3.69-1.58-4.92
			c-1.05-1.23-2.71-1.84-4.98-1.84c-1.99,0-3.56,0.48-4.69,1.43s-1.7,2.27-1.7,3.93H188.3c0-2.57,0.79-4.94,2.38-7.13
			c1.58-2.18,3.82-3.9,6.72-5.14c2.9-1.24,6.15-1.86,9.75-1.86c5.46,0,9.8,1.37,13.01,4.12c3.21,2.75,4.81,6.6,4.81,11.57v19.22
			c0.03,4.21,0.61,7.39,1.76,9.55v0.7h-11.96c-0.55-1.07-0.94-2.39-1.19-3.97c-2.87,3.2-6.6,4.79-11.18,4.79
			c-4.34,0-7.94-1.26-10.8-3.77c-2.85-2.51-4.28-5.68-4.28-9.5C187.32,332.21,189.06,328.61,192.56,326.09z M200.71,339.7
			c1.04,0.96,2.46,1.43,4.26,1.43c1.75,0,3.36-0.39,4.83-1.17c1.48-0.78,2.57-1.82,3.28-3.13v-7.62h-4.42
			c-5.93,0-9.08,2.05-9.46,6.15l-0.04,0.7C199.16,337.53,199.67,338.74,200.71,339.7z"/>
		<path class="st3" d="M229.64,305.04h12.74l8.24,27.57l8.19-27.57h12.7l-17.82,51.21l-0.98,2.34c-2.65,5.79-7.02,8.69-13.11,8.69
			c-1.72,0-3.47-0.26-5.24-0.78v-8.97l1.8,0.04c2.24,0,3.91-0.34,5.02-1.02c1.11-0.68,1.97-1.82,2.6-3.4l1.39-3.65L229.64,305.04z"
			/>
		<path class="st3" d="M274.58,328.27v-1.15c0-4.45,0.86-8.43,2.58-11.94s4.16-6.21,7.31-8.11c3.16-1.9,6.75-2.85,10.8-2.85
			c6.06,0,10.84,1.91,14.32,5.74s5.22,9.25,5.22,16.26v4.83h-28.23c0.38,2.9,1.54,5.22,3.46,6.96s4.36,2.62,7.31,2.62
			c4.56,0,8.12-1.65,10.69-4.96l5.82,6.51c-1.78,2.51-4.18,4.47-7.21,5.88c-3.03,1.41-6.39,2.11-10.08,2.11
			c-6.5,0-11.79-1.99-15.88-5.98C276.62,340.22,274.58,334.9,274.58,328.27z M286.71,322.98h16.47v-0.94
			c-0.05-2.62-0.76-4.65-2.13-6.08c-1.37-1.43-3.31-2.15-5.82-2.15c-2.35,0-4.25,0.79-5.71,2.38
			C288.05,317.76,287.12,320.03,286.71,322.98z"/>
		<path class="st3" d="M319.94,328.27v-1.15c0-4.45,0.86-8.43,2.58-11.94s4.16-6.21,7.31-8.11c3.16-1.9,6.75-2.85,10.8-2.85
			c6.06,0,10.84,1.91,14.32,5.74s5.22,9.25,5.22,16.26v4.83h-28.23c0.38,2.9,1.54,5.22,3.46,6.96s4.36,2.62,7.31,2.62
			c4.56,0,8.12-1.65,10.69-4.96l5.82,6.51c-1.78,2.51-4.18,4.47-7.21,5.88c-3.03,1.41-6.39,2.11-10.08,2.11
			c-6.5,0-11.79-1.99-15.88-5.98C321.98,340.22,319.94,334.9,319.94,328.27z M332.06,322.98h16.47v-0.94
			c-0.05-2.62-0.76-4.65-2.13-6.08c-1.37-1.43-3.31-2.15-5.82-2.15c-2.35,0-4.25,0.79-5.71,2.38
			C333.41,317.76,332.47,320.03,332.06,322.98z"/>
	</g>
	<g>
		<path class="st4" d="M298.68,180.16c0,7.15,0.03,14.3-0.03,21.45c-0.04,5.22-0.96,10.31-2.82,15.2
			c-2.23,5.84-5.61,10.93-9.95,15.43c-7.85,8.14-15.82,16.16-23.83,24.13c-3.61,3.59-7.23,7.18-10.8,10.81
			c-0.64,0.65-1.03,0.69-1.77,0.15c-1.23-0.88-2.25-1.96-3.31-3c-6.21-6.14-12.45-12.24-18.6-18.44
			c-5.4-5.45-10.86-10.85-15.74-16.79c-1.65-2.01-3.07-4.18-4.39-6.41c-0.64-1.08-1.27-2.18-1.79-3.32
			c-2.01-4.34-3.47-8.84-4.07-13.62c-0.34-2.71-0.43-5.43-0.27-8.15c0.14-2.45,0.47-4.9,1.07-7.29c0.4-0.15,0.54-0.74,1.13-0.63
			c1.78,0.35,3.52-0.19,5.27-0.33c1.85-0.15,3.67-0.61,5.53-0.75c2.82-0.21,5.65-0.4,8.44-0.9c0.55-0.1,0.96-0.11,1.32,0.33
			c-1.89,4.4-2.62,9.01-2.34,13.77c0.8,13.56,13.08,23.63,22.65,25.58c6.44,1.31,12.5,0.15,18.32-2.66
			c6.29-3.04,11.06-7.59,13.76-14.13c1.64-3.99,2.17-8.17,2.2-12.45c0.03-5.42,0.1-10.84,0.16-16.26c0.43,0,0.61-0.48,1.08-0.48
			c1.95,0.03,3.88-0.31,5.83-0.39c1.58-0.06,3.15-0.45,4.75-0.58c2.11-0.17,4.18-0.8,6.33-0.5c0.18,0.02,0.43-0.05,0.57-0.17
			c0.43-0.36,0.86-0.26,1.31-0.1c0,0.11,0,0.21,0,0.32c-0.02,0.02-0.06,0.04-0.06,0.04C298.64,180.08,298.66,180.12,298.68,180.16z"
			/>
		<path class="st3" d="M298.68,179.67c-0.45-0.16-0.89-0.26-1.31,0.1c-0.14,0.12-0.39,0.2-0.57,0.17c-2.15-0.3-4.22,0.33-6.33,0.5
			c-1.6,0.13-3.17,0.51-4.75,0.58c-1.95,0.08-3.88,0.42-5.83,0.39c-0.47-0.01-0.65,0.48-1.08,0.48c-0.01-2.26-0.03-4.51-0.04-6.77
			c-0.05-12.33-0.1-24.67-0.15-37c0-0.68-0.06-1.35-0.19-2.01c-0.24-1.2-0.87-1.86-2.1-2.05c-1.75-0.27-3.51-0.1-5.26-0.11
			c-6.71-0.02-13.42-0.03-20.13-0.06c-1.17-0.01-2.34-0.16-3.51-0.22c-0.57-0.03-0.81-0.27-0.81-0.87
			c0.02-6.01,0.02-12.01,0.01-18.02c0-0.6,0.23-0.84,0.8-0.88c1.26-0.09,2.5-0.22,3.77-0.22c12.89,0,25.78-0.01,38.68-0.02
			c1.79,0,3.57-0.04,5.36-0.01c2.39,0.05,3.44,1.03,3.5,3.44c0.07,2.99,0.02,5.98,0.02,8.96c-0.01,17.38-0.02,34.75-0.03,52.13
			C298.72,178.68,298.69,179.18,298.68,179.67z"/>
		<path class="st3" d="M263.71,161.93c-0.01,7.18-0.03,14.36-0.04,21.54c0.01,5.27,0.07,10.55,0.01,15.82
			c-0.04,4.21-1.5,7.86-4.78,10.62c-7.87,6.61-19.86,2.48-22.09-7.62c-1.13-5.1,0.39-9.41,4.23-12.88c0.93-0.84,2.08-1.43,3.14-2.12
			c0.79-0.51,1.51-1.08,1.83-2.01c0.3-0.57,0.47-1.18,0.46-1.83c-0.09-3.57-0.12-7.15-0.02-10.72c0.02-0.77-0.26-0.92-0.98-0.87
			c-6.08,0.46-11.02,3.24-15.34,7.39c-2.37,2.27-4.07,5.02-5.71,7.81c-0.18,0.29-0.12,0.69-0.36,0.97
			c-0.36-0.44-0.77-0.42-1.32-0.32c-2.79,0.5-5.62,0.68-8.44,0.89c-1.86,0.15-3.68,0.6-5.53,0.75c-1.75,0.14-3.48,0.68-5.26,0.33
			c-0.59-0.11-0.72,0.48-1.13,0.63c0.89-4.41,2.44-8.59,4.39-12.64c2.49-5.19,5.71-9.87,9.85-13.9c5.85-5.69,12.83-9.32,20.71-11.31
			c6.22-1.57,12.53-2.02,18.92-1.78c1.28,0.05,2.57-0.07,3.86-0.08c2.45-0.02,3.57,1.05,3.61,3.51
			C263.76,156.72,263.72,159.33,263.71,161.93z"/>
		<path class="st1" d="M298.68,180.16c-0.02-0.04-0.05-0.08-0.07-0.12c0-0.01,0.04-0.03,0.06-0.04
			C298.7,180.05,298.71,180.1,298.68,180.16z"/>
	</g>
</g>
</svg>
