<?xml version="1.0" encoding="utf-8"?>
<!-- Generator: Adobe Illustrator 25.3.1, SVG Export Plug-In . SVG Version: 6.00 Build 0)  -->
<svg version="1.1" id="Layer_1" xmlns="http://www.w3.org/2000/svg" xmlns:xlink="http://www.w3.org/1999/xlink" x="0px" y="0px"
	 viewBox="0 0 500 500" style="enable-background:new 0 0 500 500;" xml:space="preserve">
<style type="text/css">
	.st0{opacity:0.7;fill:#E5E5E5;}
	.st1{fill:#FAAA15;}
	.st2{fill:#FFFFFF;}
	.st3{fill:#101035;}
	.st4{fill:#FCFCFC;}
	.st5{fill:#015ABA;}
</style>
<rect x="-899.4" y="601.26" class="st0" width="826" height="546.59"/>
<path class="st1" d="M-2252.31,153.36c2.54,2.01,4.87,3.86,7.03,5.58c-1.79,3.97-3.48,7.73-5.48,12.17c3.48,0,6.02,0,8.56,0
	c3.78,0,7.57-0.02,11.35,0.02c1.27,0.01,2.16-0.13,2.15-1.75c-0.05-6.11-0.02-12.21-0.04-18.32c0-0.32-0.18-0.63-0.43-1.43
	c-2.72,0.94-5.34,1.84-8.32,2.87c-1.43-2.48-2.95-5.11-4.62-8c6.15-3.37,12.38-5.27,19.16-4.7c2.39,0.2,3.7,2.26,3.72,5.1
	c0.05,7.65,0.02,15.31,0.04,22.96c0,1,0.1,2.01,0.16,3.1c7.1,0,13.94,0,21.53,0c-1.1-2.85-1.87-5.44-3.08-7.82
	c-2.15-4.22-5.35-7.59-9.49-9.94c-1.57-0.89-1.82-1.74-0.96-3.25c1.13-2.01,2.11-4.1,3.33-6.5c1.62,0.96,3.14,1.7,4.48,2.69
	c9.84,7.21,15.23,16.85,15.44,29.13c0.15,8.51,0.05,17.03,0.04,25.54c0,0.67-0.1,1.34-0.17,2.21c-3.05,0-5.99,0-9.34,0
	c0-2.79,0-5.51,0-8.23c0-3.96,0.07-7.91-0.07-11.86c-0.03-0.73-0.9-2.05-1.41-2.06c-6.69-0.14-13.38-0.09-20.49-0.09
	c0,4.06-0.05,7.9,0.01,11.74c0.09,4.91-0.85,9.6-3.13,13.93c-5.51,10.46-14.31,15.94-26.05,16.64c-3,0.18-6.02-0.03-9.03,0.04
	c-1.44,0.03-2.1-0.51-2-1.94c0.01-0.17,0-0.34-0.01-0.52c-0.21-7.24-0.21-7.24,6.99-7.25c14.04-0.02,23.69-9.64,23.71-23.63
	c0-2.41-0.05-4.82,0.01-7.22c0.03-1.32-0.47-1.84-1.81-1.84c-6.1,0.04-12.21,0.06-18.31,0c-1.78-0.02-1.87,0.98-1.87,2.32
	c0.03,5.68,0.02,11.35,0.02,17.03c0,0.93,0,1.85,0,3.12c-2.92,0-5.56,0.07-8.19-0.07c-0.47-0.02-1.28-0.92-1.27-1.4
	c0.13-10.91,0.04-21.83,0.69-32.71C-2259.09,163.34-2256.2,158.26-2252.31,153.36z"/>
<path class="st2" d="M-2192.03-21.36c-0.5,14.63,1.3,28.22-1.33,41.61c-3.17,16.11-13.56,25.56-29.45,28.62
	c-13.32,2.57-26.12,0.83-38.18-7.06c6.76-6.2,13.27-12.09,19.67-18.1c1.34-1.25,2.61-0.95,4.12-0.77c8.47,1,14.09-3.34,14.48-11.73
	c0.17-3.69,1.56-6.08,4.19-8.42C-2209.89-4.88-2201.44-12.76-2192.03-21.36z"/>
<path class="st2" d="M-2219.86-37.62c-1.02,0.82-2.53,0.09-2.53-1.22c0-6.77,0-13.3,0-19.82c0-1.98,1.28-2.56,2.93-2.55
	c7.44,0.03,14.88,0.12,22.32,0.16c2.21,0.01,2.09,1.03,1.16,2.45C-2196.74-57.44-2213.21-42.97-2219.86-37.62z"/>
<path class="st2" d="M-2194.25-39.13c-2.14,3.3-5.24,5.61-8.33,7.92c-0.42-0.41-0.84-0.83-1.26-1.24c2.84-2.61,5.68-5.22,8.52-7.83
	C-2194.96-39.89-2194.61-39.51-2194.25-39.13z"/>
<path class="st2" d="M-2253.67,13.48c2.27-3.15,5.45-5.38,8.31-7.93c0.47,0.46,0.94,0.92,1.42,1.38c-2.83,2.57-5.67,5.15-8.5,7.72
	C-2252.85,14.27-2253.26,13.87-2253.67,13.48z"/>
<path class="st2" d="M-2220.47-17.25c2.84-2.6,5.68-5.2,8.52-7.8c0.4,0.45,0.81,0.89,1.21,1.34c-2.61,2.86-5.39,5.53-8.55,7.78
	C-2219.68-16.37-2220.07-16.81-2220.47-17.25z"/>
<path class="st2" d="M-2236.38-1.24c1.56-3.28,3.98-5.62,7.47-6.81C-2230.48-4.84-2233.23-2.82-2236.38-1.24z"/>
<g>
	<path class="st1" d="M-2067.09-56.48c0.81,0,1.53,0,2.32,0c0,3.16,0,6.25,0,9.44c-0.75,0-1.5,0-2.32,0
		C-2067.09-50.2-2067.09-53.32-2067.09-56.48z"/>
	<g>
		<path class="st3" d="M-2101.35-15.78c1.74-2.1,3.3-3.98,4.92-5.93c1.24,1.13,2.35,2.25,3.58,3.22c2.34,1.84,5.08,2.23,7.92,1.75
			c3.3-0.55,5.08-3.21,5.12-7.68c0.06-6.92,0.02-13.84,0.02-20.76c0-1.24,0-2.48,0-3.94c-5.66,0-11.02,0-16.55,0
			c0-2.55,0-4.87,0-7.37c8.48,0,16.85,0,25.43,0c0.05,0.89,0.13,1.71,0.13,2.53c0.01,9.28,0.01,18.57-0.02,27.85
			c-0.01,1.68-0.02,3.39-0.3,5.05c-1.21,7.2-5.67,11.24-12.98,11.96C-2090.88-8.43-2096.72-10.18-2101.35-15.78z"/>
		<path class="st3" d="M-2096.43-21.7c1.2,1.08,2.27,2.17,3.45,3.11c0,1.6,0,3.21-0.02,4.81c-0.01,1.41-0.2,2.64-0.57,3.67
			c-2.87-1.05-5.48-2.89-7.78-5.67C-2099.6-17.88-2098.05-19.76-2096.43-21.7z"/>
		<path class="st1" d="M-2083.94-7.02c-1.51,6.13-5.74,9.57-12.36,10.23c-6.64,0.66-12.34-1.06-16.85-6.52
			c1.7-2.05,3.22-3.87,4.8-5.78c1.21,1.1,2.29,2.19,3.5,3.15c2.27,1.8,4.96,2.17,7.73,1.71c2.17-0.37,3.67-1.68,4.43-3.84
			C-2090.02-7.08-2087.09-6.78-2083.94-7.02z"/>
		<path class="st1" d="M-2083.96-20.25c-0.22,0.07-0.45,0.12-0.69,0.17c-2.55,0.43-5.02,0.07-7.11-1.64c0.02-4.59,0-9.17,0-13.76
			v-3.42h-14.35v-6.39h22.05c0.04,0.78,0.11,1.48,0.11,2.19C-2083.95-35.49-2083.94-27.87-2083.96-20.25z"/>
	</g>
</g>
<g>
	<g>
		<path class="st1" d="M-2481.95,436.28c-1.04-1.26-1.85-2.03-2.41-2.95c-30.41-49.57-60.82-99.15-91.2-148.75
			c-8.39-13.69-17.34-27.08-24.94-41.2c-11.89-22.08-16.26-45.97-14.51-71.03c1.3-18.5,5.95-36.03,14.83-52.31
			c19.67-36.02,49.45-58.82,89.48-68.3c13.23-3.13,26.68-4.07,40.01-2.87c13.73,1.23,27.25,4.49,40.05,10.09
			c15.09,6.6,28.93,15.19,40.68,26.75c19.09,18.78,32.31,41,37.77,67.46c5.56,26.94,4.05,53.44-6.6,78.9
			c-4.27,10.2-10.05,19.84-15.79,29.34c-19.65,32.46-39.6,64.74-59.42,97.09c-15.08,24.63-30.13,49.27-45.21,73.9
			C-2479.94,433.59-2480.81,434.67-2481.95,436.28z M-2488.04,68.59c-42.23,2.3-76.89,24.86-96.26,68.97
			c-19.82,45.14-7.22,97.68,30.07,130.36c33.27,29.15,81.45,35.41,120.65,15.68c46.98-23.64,71.78-77.55,59.14-128.67
			c-6.22-25.13-19.29-46.01-39.5-62.2C-2433.84,76.76-2456.67,68.77-2488.04,68.59z"/>
		<g>
			<path class="st3" d="M-2488.12,69.07c31.83,0.18,55.01,8.15,75.21,24.06c20.51,16.15,33.78,36.98,40.09,62.04
				c12.83,50.98-12.34,104.75-60.02,128.32c-39.8,19.68-88.7,13.43-122.47-15.64c-37.85-32.59-50.65-84.99-30.52-130.01
				C-2566.17,93.87-2530.98,71.37-2488.12,69.07z M-2379.93,183.08c1.26-52.32-40.75-101.55-100.35-102.99
				c-54.77-1.32-101.5,40.31-104.77,95.86c-3.29,55.72,40.36,104.11,95.94,107.16C-2428.52,286.45-2380.2,239.12-2379.93,183.08z"/>
			<g>
				<path class="st2" d="M-2380.51,183.39c-0.27,56.19-48.23,103.66-108.38,100.32c-55.17-3.06-98.49-51.59-95.23-107.47
					c3.25-55.71,49.64-97.47,104-96.14C-2420.96,81.55-2379.26,130.91-2380.51,183.39z"/>
				<g>
					<g>
						<path class="st3" d="M-2482.63,222.74c27.24,0,54.49-0.04,81.73,0.07c2.62,0.01,3.88-0.76,4.89-3.17
							c6.1-14.54,8.72-29.65,7.43-45.33c-5.89-71.94-84.11-111.36-144.12-73.16c-39.42,25.09-54.48,75.92-35.98,118.78
							c1.02,2.36,2.36,2.86,4.7,2.85C-2536.86,222.71-2509.74,222.74-2482.63,222.74z"/>
						<g>
							<g>
								<g>
									<path class="st1" d="M-2455.6,182.85h6.5c0.98,0,1.77,0.79,1.77,1.77v1.4c0,2.77-2.24,5.01-5.01,5.01l0,0
										c-2.77,0-5.01-2.24-5.01-5.01v-1.43C-2457.34,183.63-2456.56,182.85-2455.6,182.85z"/>
								</g>
								<g>
									<path class="st1" d="M-2515.75,182.94h6.5c0.98,0,1.77,0.79,1.77,1.77v1.4c0,2.77-2.24,5.01-5.01,5.01l0,0
										c-2.77,0-5.01-2.24-5.01-5.01v-1.43C-2517.5,183.73-2516.72,182.94-2515.75,182.94z"/>
								</g>
								<g>
									<g>
										<path class="st1" d="M-2441.62,153.18c-0.76-1.6-1.75-3-3.48-3.53c-1.15-0.35-1.62-1.02-1.96-2.08
											c-1.22-3.78-1.8-7.71-2.61-11.58c-0.97-4.59-3.79-7.21-8.06-8.68c-1.69-0.58-3.87-0.68-6.04-1.01
											c-2.01-0.31-3.39-2.94-3.7-3.46c-0.18-0.31-0.34-0.63-0.49-0.96c0,0-0.03-0.07-0.09-0.19c-0.38-0.78-1.98-3.72-4.13-3.72
											h-0.04c-1.11,0.02-2.64,0.05-2.92,0.05h-16.01c-0.55-0.02-1.11-0.04-1.66-0.07h-0.01l-0.19,0.07l-0.2-0.02
											c-0.45,0.14-0.86,0.33-1.23,0.56c-1.56,0.98-2.4,2.66-2.81,4.25c-0.78,3-2.53,3.64-4.89,3.89
											c-0.39,0.04-0.8,0.07-1.23,0.1c-6.5,0.43-10.78,3.83-12.38,10.32c-0.75,3.05-1.6,6.08-2.36,9.14
											c-0.55,2.2-1.13,4.3-3.25,5.66c-1.14,0.73-1.73,2.01-2.25,3.33c-1.38,3.48-1.11,7.13-1.39,10.72
											c0.05,0.68,0.08,1.37,0.14,2.05c0.37,4.1,0.77,8.17,3.23,11.71c0.77,1.11,1.6,1.58,3.01,1.57
											c24.1-0.04,48.21-0.03,72.31,0.02c1.67,0,2.63-0.69,3.46-2.03c1.21-1.96,1.64-4.17,2.32-6.31
											c0.07-0.44,0.14-0.87,0.21-1.3c0.07-0.25,0.13-0.5,0.19-0.75c0.08-1.57,0.17-3.13,0.24-4.7
											C-2439.67,161.78-2439.65,157.35-2441.62,153.18z M-2515.69,147.24c0.91-4.13,1.46-8.34,3.43-12.19
											c1.58-3.09,3.74-4.63,7.46-4.59c14.86,0.17,29.72,0.06,44.59,0.06c4.5,0,5.65,0.83,7.25,5.11
											c1.37,3.67,2.06,7.51,2.9,11.31c0.34,1.53,0.07,2.04-1.64,2.02c-10.41-0.08-20.83-0.04-31.25-0.04
											c-10.42,0-20.83-0.04-31.25,0.04C-2515.69,148.97-2515.99,148.61-2515.69,147.24z M-2461.79,162.31
											c0.05,1.51-1.04,1.15-1.86,1.15c-6.08,0.02-12.17,0.01-18.25,0.01c-6.08,0-12.17,0.01-18.25-0.02
											c-0.71,0-1.75,0.45-1.78-0.97c-0.03-1.49,1.04-1.17,1.87-1.17c12.16-0.01,24.32-0.02,36.47,0
											C-2462.87,161.32-2461.83,160.91-2461.79,162.31z M-2513.76,167.23c-3.71-0.05-6.78-3.11-6.81-6.77
											c-0.02-3.66,2.93-6.57,6.68-6.59c3.98-0.02,6.98,2.92,6.93,6.79C-2507.01,164.21-2510.18,167.28-2513.76,167.23z
											 M-2463.65,173.32c-12.14,0-24.28,0.01-36.41-0.02c-0.75,0-1.89,0.5-1.87-1.08c0.03-1.61,1.21-1,1.92-1.01
											c6.1-0.05,12.21-0.02,18.31-0.02c6.03,0,12.07-0.01,18.11,0.02c0.7,0,1.78-0.48,1.81,0.94
											C-2461.76,173.6-2462.8,173.32-2463.65,173.32z M-2463.6,168.37c-12.15,0-24.29,0.01-36.44-0.01
											c-0.81,0-1.9,0.36-1.89-1.14c0-1.57,1.14-1.05,1.91-1.05c6.08-0.03,12.15-0.02,18.22-0.02v-0.02
											c6.08,0,12.15,0,18.23,0.01c0.76,0,1.73-0.3,1.79,1.04C-2461.71,168.67-2462.76,168.37-2463.6,168.37z M-2450.57,167.22
											c-3.81,0.03-6.95-3.09-6.91-6.86c0.03-3.65,3-6.5,6.76-6.5c3.87,0.01,6.9,2.97,6.84,6.67
											C-2443.94,164.18-2446.96,167.2-2450.57,167.22z"/>
									</g>
								</g>
							</g>
						</g>
					</g>
					<g>
						<path class="st1" d="M-2482.3,229.92c25.9,0,51.81,0,77.71,0.02c1.1,0,2.6-0.57,3.22,0.5c0.65,1.12-0.7,2.01-1.28,2.96
							c-9.62,15.7-22.88,27.52-39.53,35.48c-11.34,5.42-23.39,8.14-36.12,8.69c-25.04,1.08-46.92-6.41-65.84-22.39
							c-7.29-6.15-13.57-13.31-18.31-21.66c-1.83-3.23-1.7-3.58,2.04-3.59c18.13-0.03,36.27-0.01,54.4-0.01
							C-2498.1,229.92-2490.2,229.92-2482.3,229.92z"/>
						<g>
							<path class="st3" d="M-2457.45,253.71h10.74c1.37,0,2.49-1.11,2.49-2.49v-10.74c0-1.37-1.11-2.49-2.49-2.49h-10.74
								c-1.37,0-2.49,1.11-2.49,2.49v10.74C-2459.94,252.6-2458.83,253.71-2457.45,253.71z"/>
							<path class="st3" d="M-2472.66,269.47h9.71c1.66,0,3.01-1.35,3.01-3.01v-9.71c0-1.66-1.35-3.01-3.01-3.01h-9.71
								c-1.66,0-3.01,1.35-3.01,3.01v9.71C-2475.66,268.12-2474.32,269.47-2472.66,269.47z"/>
							<path class="st3" d="M-2488.71,253.71h10.38c1.47,0,2.67-1.2,2.67-2.67v-10.38c0-1.47-1.2-2.67-2.67-2.67h-10.38
								c-1.47,0-2.67,1.2-2.67,2.67v10.38C-2491.38,252.52-2490.19,253.71-2488.71,253.71z"/>
							<path class="st3" d="M-2504.52,269.47h10.55c1.43,0,2.59-1.16,2.59-2.59v-10.55c0-1.43-1.16-2.59-2.59-2.59h-10.55
								c-1.43,0-2.59,1.16-2.59,2.59v10.55C-2507.11,268.31-2505.95,269.47-2504.52,269.47z"/>
							<path class="st3" d="M-2520.34,253.71h10.74c1.38,0,2.49-1.11,2.49-2.49v-10.74c0-1.38-1.11-2.49-2.49-2.49h-10.74
								c-1.38,0-2.49,1.11-2.49,2.49v10.74C-2522.83,252.6-2521.71,253.71-2520.34,253.71z"/>
						</g>
					</g>
				</g>
			</g>
		</g>
	</g>
</g>
<g>
	<path class="st3" d="M-2299.08,261.52h8.4c0,1.99,0.42,3.45,1.25,4.4c0.83,0.95,2.15,1.42,3.95,1.42c1.6,0,2.87-0.55,3.81-1.64
		c0.95-1.09,1.42-2.65,1.42-4.67v-28.05h8.35v28.05c0,2.58-0.57,4.85-1.71,6.83s-2.75,3.5-4.83,4.58c-2.08,1.08-4.42,1.61-7.04,1.61
		c-4.28,0-7.62-1.09-10.02-3.27C-2297.89,268.59-2299.08,265.51-2299.08,261.52z"/>
	<path class="st3" d="M-2262.91,257.68c2.36-1.71,5.77-2.57,10.24-2.59h3.7v-1.72c0-1.39-0.36-2.5-1.07-3.34
		c-0.71-0.83-1.84-1.25-3.38-1.25c-1.35,0-2.42,0.33-3.19,0.97c-0.77,0.65-1.15,1.54-1.15,2.67h-8.04c0-1.74,0.54-3.36,1.61-4.84
		c1.08-1.48,2.6-2.65,4.56-3.49c1.97-0.84,4.17-1.27,6.62-1.27c3.71,0,6.65,0.93,8.83,2.8c2.18,1.86,3.27,4.48,3.27,7.86v13.05
		c0.02,2.86,0.42,5.02,1.2,6.48v0.47h-8.12c-0.37-0.72-0.64-1.62-0.81-2.7c-1.95,2.17-4.48,3.26-7.6,3.26
		c-2.95,0-5.39-0.85-7.33-2.56c-1.94-1.71-2.91-3.86-2.91-6.46C-2266.47,261.84-2265.29,259.39-2262.91,257.68z M-2257.38,266.92
		c0.7,0.65,1.67,0.97,2.89,0.97c1.19,0,2.28-0.26,3.28-0.79c1-0.53,1.74-1.24,2.23-2.13v-5.17h-3c-4.02,0-6.17,1.39-6.43,4.17
		l-0.03,0.47C-2258.43,265.44-2258.08,266.27-2257.38,266.92z"/>
	<path class="st3" d="M-2237.73,243.38h8.65l5.59,18.72l5.56-18.72h8.62l-12.1,34.78l-0.67,1.59c-1.8,3.93-4.77,5.9-8.9,5.9
		c-1.17,0-2.36-0.18-3.56-0.53v-6.09l1.22,0.03c1.52,0,2.66-0.23,3.41-0.7c0.75-0.46,1.34-1.23,1.77-2.31l0.95-2.48L-2237.73,243.38
		z"/>
	<path class="st3" d="M-2207.21,259.15v-0.78c0-3.02,0.58-5.73,1.75-8.11c1.17-2.38,2.82-4.22,4.97-5.51
		c2.14-1.29,4.59-1.93,7.33-1.93c4.12,0,7.36,1.3,9.72,3.9c2.36,2.6,3.55,6.28,3.55,11.04v3.28h-19.17
		c0.26,1.97,1.04,3.54,2.35,4.73c1.31,1.19,2.96,1.78,4.97,1.78c3.1,0,5.52-1.12,7.26-3.37l3.95,4.42c-1.21,1.71-2.84,3.04-4.9,3.99
		s-4.34,1.43-6.84,1.43c-4.42,0-8.01-1.35-10.78-4.06C-2205.83,267.27-2207.21,263.66-2207.21,259.15z M-2198.98,255.57h11.18v-0.64
		c-0.04-1.78-0.52-3.16-1.45-4.13c-0.93-0.97-2.25-1.46-3.95-1.46c-1.6,0-2.89,0.54-3.88,1.61
		C-2198.06,252.02-2198.7,253.56-2198.98,255.57z"/>
	<path class="st3" d="M-2176.41,259.15v-0.78c0-3.02,0.58-5.73,1.75-8.11c1.17-2.38,2.82-4.22,4.97-5.51
		c2.14-1.29,4.58-1.93,7.33-1.93c4.12,0,7.36,1.3,9.72,3.9c2.36,2.6,3.55,6.28,3.55,11.04v3.28h-19.17
		c0.26,1.97,1.04,3.54,2.35,4.73c1.31,1.19,2.96,1.78,4.97,1.78c3.1,0,5.52-1.12,7.26-3.37l3.95,4.42c-1.21,1.71-2.84,3.04-4.9,3.99
		c-2.06,0.96-4.34,1.43-6.84,1.43c-4.41,0-8.01-1.35-10.78-4.06C-2175.03,267.27-2176.41,263.66-2176.41,259.15z M-2168.18,255.57
		h11.18v-0.64c-0.04-1.78-0.52-3.16-1.45-4.13c-0.93-0.97-2.25-1.46-3.95-1.46c-1.6,0-2.89,0.54-3.88,1.61
		C-2167.27,252.02-2167.9,253.56-2168.18,255.57z"/>
</g>
<g>
	<path class="st3" d="M-2148.34,31.57h6.19c0,1.46,0.31,2.54,0.92,3.24s1.58,1.04,2.91,1.04c1.17,0,2.11-0.4,2.81-1.21
		s1.05-1.95,1.05-3.44V10.54h6.15V31.2c0,1.9-0.42,3.58-1.26,5.03c-0.84,1.46-2.03,2.58-3.56,3.37c-1.53,0.79-3.26,1.19-5.19,1.19
		c-3.16,0-5.62-0.8-7.38-2.41C-2147.46,36.78-2148.34,34.5-2148.34,31.57z"/>
	<path class="st3" d="M-2121.7,28.74c1.73-1.26,4.25-1.89,7.54-1.91h2.73v-1.27c0-1.02-0.26-1.84-0.79-2.46
		c-0.53-0.62-1.36-0.92-2.49-0.92c-1,0-1.78,0.24-2.35,0.72c-0.57,0.48-0.85,1.13-0.85,1.97h-5.92c0-1.28,0.4-2.47,1.19-3.57
		c0.79-1.09,1.91-1.95,3.36-2.57c1.45-0.62,3.07-0.93,4.88-0.93c2.73,0,4.9,0.69,6.51,2.06c1.6,1.37,2.41,3.3,2.41,5.79v9.61
		c0.01,2.1,0.31,3.7,0.88,4.77v0.35h-5.98c-0.27-0.53-0.47-1.2-0.59-1.99c-1.43,1.6-3.3,2.4-5.59,2.4c-2.17,0-3.97-0.63-5.4-1.89
		c-1.43-1.26-2.14-2.84-2.14-4.75C-2124.32,31.8-2123.45,30-2121.7,28.74z M-2117.62,35.54c0.52,0.48,1.23,0.72,2.13,0.72
		c0.87,0,1.68-0.19,2.42-0.58c0.74-0.39,1.28-0.91,1.64-1.57V30.3h-2.21c-2.97,0-4.54,1.02-4.73,3.07l-0.02,0.35
		C-2118.4,34.46-2118.14,35.06-2117.62,35.54z"/>
	<path class="st3" d="M-2103.15,18.2h6.37l4.12,13.79l4.1-13.79h6.35l-8.91,25.62l-0.49,1.17c-1.33,2.9-3.51,4.34-6.56,4.34
		c-0.86,0-1.74-0.13-2.62-0.39v-4.49l0.9,0.02c1.12,0,1.96-0.17,2.51-0.51c0.55-0.34,0.99-0.91,1.3-1.7l0.7-1.82L-2103.15,18.2z"/>
	<path class="st3" d="M-2080.67,29.82v-0.57c0-2.23,0.43-4.22,1.29-5.97c0.86-1.76,2.08-3.11,3.66-4.06s3.38-1.42,5.4-1.42
		c3.03,0,5.42,0.96,7.16,2.87c1.74,1.91,2.61,4.62,2.61,8.14v2.42h-14.12c0.19,1.45,0.77,2.61,1.73,3.48
		c0.96,0.87,2.18,1.31,3.66,1.31c2.28,0,4.06-0.83,5.35-2.48l2.91,3.26c-0.89,1.26-2.09,2.24-3.61,2.94s-3.2,1.06-5.04,1.06
		c-3.25,0-5.9-1-7.94-2.99C-2079.65,35.8-2080.67,33.14-2080.67,29.82z M-2074.6,27.18h8.24v-0.47c-0.03-1.31-0.38-2.33-1.07-3.04
		c-0.68-0.72-1.65-1.08-2.91-1.08c-1.18,0-2.13,0.4-2.86,1.19C-2073.93,24.57-2074.4,25.71-2074.6,27.18z"/>
	<path class="st3" d="M-2057.98,29.82v-0.57c0-2.23,0.43-4.22,1.29-5.97c0.86-1.76,2.08-3.11,3.66-4.06s3.38-1.42,5.4-1.42
		c3.03,0,5.42,0.96,7.16,2.87c1.74,1.91,2.61,4.62,2.61,8.14v2.42h-14.12c0.19,1.45,0.77,2.61,1.73,3.48
		c0.96,0.87,2.18,1.31,3.66,1.31c2.28,0,4.06-0.83,5.35-2.48l2.91,3.26c-0.89,1.26-2.09,2.24-3.61,2.94s-3.2,1.06-5.04,1.06
		c-3.25,0-5.9-1-7.94-2.99C-2056.96,35.8-2057.98,33.14-2057.98,29.82z M-2051.92,27.18h8.24v-0.47c-0.03-1.31-0.38-2.33-1.07-3.04
		c-0.68-0.72-1.65-1.08-2.91-1.08c-1.18,0-2.13,0.4-2.86,1.19C-2051.24,24.57-2051.71,25.71-2051.92,27.18z"/>
</g>
<rect x="-899.4" y="-6.42" class="st0" width="826" height="546.59"/>
<g>
	<path class="st4" d="M-405.37,492.09h-413.23c-16.7,0-30.24-13.54-30.24-30.24V70.89c0-16.7,13.54-30.24,30.24-30.24h413.23
		c16.7,0,30.24,13.54,30.24,30.24v390.96C-375.13,478.56-388.66,492.09-405.37,492.09z"/>
	<g>
		<g>
			<path class="st1" d="M-640.73,193.26c2.48,2.4,4.77,4.63,7.23,7.01c-6.26,6.54-9.8,14.09-9.74,23.13
				c0.11,16.83,13.85,30.77,30.54,30.97c17.37,0.21,31.64-13.24,31.92-30.36c0.2-12.57,0.05-25.15,0.06-37.72c0-1.46,0-2.91,0-4.67
				c3.5,0,6.76,0,10.27,0c0.09,1.02,0.27,2.04,0.27,3.06c0.02,12.84,0.08,25.68-0.01,38.53c-0.17,24.09-19.84,42.72-43.94,41.72
				c-23.28-0.96-41.33-21.56-39.59-45.19C-652.97,209.65-647.81,199.04-640.73,193.26z"/>
			<path class="st3" d="M-601.62,181.47c3.72,0,6.88,0,10.19,0c0.14,0.62,0.35,1.11,0.35,1.61c0.02,13.65,0.16,27.3-0.02,40.94
				c-0.12,9.08-6.64,16.97-15.41,19.34c-9,2.43-18.35-1.28-23.29-9.23c-4.82-7.78-4.04-17.78,1.96-24.64
				c0.51-0.58,1.15-1.04,1.87-1.69c2.33,2.4,4.55,4.7,6.95,7.17c-0.45,0.7-0.93,1.45-1.42,2.19c-2.58,3.94-2.58,8.45,0.01,12.01
				c2.64,3.64,7.15,5.19,11.37,3.9c4.4-1.34,7.36-5.05,7.39-9.87c0.1-12.31,0.04-24.62,0.04-36.93
				C-601.62,184.82-601.62,183.37-601.62,181.47z"/>
			<path class="st3" d="M-596.34,176.67c-2.94-0.02-5.31-2.44-5.24-5.35c0.07-2.89,2.62-5.38,5.47-5.12
				c3.06,0.27,4.83,2.1,5.02,5.16C-590.9,174.25-593.43,176.69-596.34,176.67z"/>
			<path class="st1" d="M-575.5,176.68c-2.94-0.03-5.28-2.46-5.18-5.39c0.09-2.91,2.62-5.36,5.5-5.08c3.04,0.3,4.84,2.09,4.98,5.19
				C-570.08,174.31-572.58,176.71-575.5,176.68z"/>
		</g>
		<g>
			<path class="st3" d="M-712.69,316.88h11.26c0,2.66,0.56,4.62,1.68,5.89c1.12,1.27,2.88,1.9,5.29,1.9c2.14,0,3.84-0.73,5.11-2.2
				c1.27-1.47,1.9-3.55,1.9-6.26v-37.57h11.18v37.57c0,3.45-0.76,6.5-2.29,9.15s-3.68,4.69-6.47,6.13
				c-2.78,1.44-5.93,2.16-9.43,2.16c-5.74,0-10.21-1.46-13.42-4.38S-712.69,322.22-712.69,316.88z"/>
			<path class="st3" d="M-664.23,311.74c3.16-2.29,7.73-3.44,13.72-3.47h4.96v-2.31c0-1.86-0.48-3.35-1.43-4.47
				c-0.96-1.12-2.47-1.68-4.53-1.68c-1.81,0-3.24,0.44-4.27,1.3c-1.03,0.87-1.55,2.06-1.55,3.58h-10.77c0-2.33,0.72-4.5,2.16-6.49
				c1.44-1.99,3.48-3.55,6.11-4.68c2.63-1.13,5.59-1.7,8.87-1.7c4.97,0,8.91,1.25,11.83,3.75c2.92,2.5,4.38,6.01,4.38,10.53v17.48
				c0.02,3.83,0.56,6.72,1.6,8.68v0.63h-10.88c-0.5-0.97-0.86-2.17-1.08-3.62c-2.61,2.91-6,4.36-10.17,4.36
				c-3.95,0-7.23-1.14-9.82-3.43c-2.6-2.29-3.9-5.17-3.9-8.65C-669.01,317.3-667.42,314.03-664.23,311.74z M-656.82,324.11
				c0.94,0.87,2.24,1.3,3.88,1.3c1.59,0,3.06-0.35,4.4-1.06s2.33-1.66,2.98-2.85v-6.93h-4.03c-5.39,0-8.26,1.86-8.61,5.59
				l-0.04,0.63C-658.23,322.14-657.76,323.24-656.82,324.11z"/>
			<path class="st3" d="M-630.5,292.58h11.59l7.49,25.08l7.45-25.08h11.55l-16.21,46.59l-0.89,2.12c-2.41,5.27-6.39,7.9-11.93,7.9
				c-1.57,0-3.16-0.24-4.77-0.71v-8.16l1.64,0.04c2.04,0,3.56-0.31,4.57-0.93c1.01-0.62,1.79-1.65,2.37-3.09l1.27-3.32
				L-630.5,292.58z"/>
			<path class="st3" d="M-589.62,313.71v-1.04c0-4.05,0.78-7.67,2.35-10.87c1.57-3.19,3.78-5.65,6.65-7.38
				c2.87-1.73,6.14-2.59,9.82-2.59c5.52,0,9.86,1.74,13.03,5.22s4.75,8.41,4.75,14.8v4.4h-25.68c0.35,2.63,1.4,4.75,3.15,6.34
				c1.75,1.59,3.97,2.39,6.65,2.39c4.15,0,7.39-1.5,9.73-4.51l5.29,5.93c-1.62,2.29-3.8,4.07-6.56,5.35
				c-2.76,1.28-5.81,1.92-9.17,1.92c-5.91,0-10.73-1.81-14.44-5.44C-587.76,324.59-589.62,319.75-589.62,313.71z M-578.58,308.91
				h14.98v-0.86c-0.05-2.39-0.7-4.23-1.94-5.54c-1.24-1.3-3.01-1.96-5.29-1.96c-2.14,0-3.87,0.72-5.2,2.16
				C-577.36,304.16-578.21,306.22-578.58,308.91z"/>
			<path class="st3" d="M-548.36,313.71v-1.04c0-4.05,0.78-7.67,2.35-10.87c1.57-3.19,3.78-5.65,6.65-7.38
				c2.87-1.73,6.14-2.59,9.82-2.59c5.52,0,9.86,1.74,13.03,5.22s4.75,8.41,4.75,14.8v4.4h-25.68c0.35,2.63,1.4,4.75,3.15,6.34
				c1.75,1.59,3.97,2.39,6.65,2.39c4.15,0,7.39-1.5,9.73-4.51l5.29,5.93c-1.62,2.29-3.8,4.07-6.56,5.35
				c-2.76,1.28-5.81,1.92-9.17,1.92c-5.91,0-10.73-1.81-14.44-5.44C-546.5,324.59-548.36,319.75-548.36,313.71z M-537.32,308.91
				h14.98v-0.86c-0.05-2.39-0.7-4.23-1.94-5.54c-1.24-1.3-3.01-1.96-5.29-1.96c-2.14,0-3.87,0.72-5.2,2.16
				C-536.1,304.16-536.95,306.22-537.32,308.91z"/>
		</g>
	</g>
</g>
<g>
	<g>
		<g>
			<path class="st1" d="M-159.39,255.58h-134.9c-16.7,0-30.24-13.54-30.24-30.24V70.89c0-16.7,13.54-30.24,30.24-30.24h134.9
				c16.7,0,30.24,13.54,30.24,30.24v154.44C-129.15,242.04-142.69,255.58-159.39,255.58z"/>
		</g>
	</g>
	<g>
		<g>
			<path class="st4" d="M-255.59,125.8c2.48,2.4,4.77,4.63,7.23,7.01c-6.26,6.54-9.8,14.09-9.74,23.13
				c0.11,16.83,13.85,30.77,30.54,30.97c17.37,0.21,31.64-13.24,31.92-30.36c0.2-12.57,0.05-25.15,0.06-37.72c0-1.46,0-2.91,0-4.67
				c3.5,0,6.76,0,10.27,0c0.09,1.02,0.27,2.04,0.27,3.06c0.02,12.84,0.08,25.68-0.01,38.53c-0.17,24.09-19.84,42.72-43.94,41.72
				c-23.28-0.96-41.33-21.56-39.59-45.19C-267.83,142.19-262.67,131.58-255.59,125.8z"/>
			<path class="st3" d="M-216.48,114.01c3.72,0,6.88,0,10.19,0c0.14,0.62,0.35,1.11,0.35,1.61c0.02,13.65,0.16,27.3-0.02,40.94
				c-0.12,9.08-6.64,16.97-15.41,19.34c-9,2.43-18.35-1.28-23.29-9.23c-4.82-7.78-4.04-17.78,1.96-24.64
				c0.51-0.58,1.15-1.04,1.87-1.69c2.33,2.4,4.55,4.7,6.95,7.17c-0.45,0.7-0.93,1.45-1.42,2.19c-2.58,3.94-2.58,8.45,0.01,12.01
				c2.64,3.64,7.15,5.19,11.37,3.9c4.4-1.34,7.36-5.05,7.39-9.87c0.1-12.31,0.04-24.62,0.04-36.93
				C-216.48,117.36-216.48,115.91-216.48,114.01z"/>
			<path class="st3" d="M-211.2,109.22c-2.94-0.02-5.31-2.44-5.24-5.35c0.07-2.89,2.62-5.38,5.47-5.12c3.06,0.27,4.83,2.1,5.02,5.16
				C-205.76,106.79-208.29,109.24-211.2,109.22z"/>
			<path class="st4" d="M-190.36,109.22c-2.94-0.03-5.28-2.46-5.18-5.39c0.09-2.91,2.62-5.36,5.5-5.08c3.04,0.3,4.84,2.09,4.98,5.19
				C-184.94,106.85-187.44,109.25-190.36,109.22z"/>
		</g>
	</g>
</g>
<g>
	<g>
		<g>
			<path class="st3" d="M-159.39,492.09h-134.9c-16.7,0-30.24-13.54-30.24-30.24V307.41c0-16.7,13.54-30.24,30.24-30.24h134.9
				c16.7,0,30.24,13.54,30.24,30.24v154.44C-129.15,478.56-142.69,492.09-159.39,492.09z"/>
		</g>
	</g>
	<g>
		<g>
			<path class="st1" d="M-255.59,362.32c2.48,2.4,4.77,4.63,7.23,7.01c-6.26,6.54-9.8,14.09-9.74,23.13
				c0.11,16.83,13.85,30.77,30.54,30.97c17.37,0.21,31.64-13.24,31.92-30.36c0.2-12.57,0.05-25.15,0.06-37.72c0-1.46,0-2.91,0-4.67
				c3.5,0,6.76,0,10.27,0c0.09,1.02,0.27,2.04,0.27,3.06c0.02,12.84,0.08,25.68-0.01,38.53c-0.17,24.09-19.84,42.72-43.94,41.72
				c-23.28-0.96-41.33-21.56-39.59-45.19C-267.83,378.71-262.67,368.09-255.59,362.32z"/>
			<path class="st4" d="M-216.48,350.53c3.72,0,6.88,0,10.19,0c0.14,0.62,0.35,1.11,0.35,1.61c0.02,13.65,0.16,27.3-0.02,40.94
				c-0.12,9.08-6.64,16.97-15.41,19.34c-9,2.43-18.35-1.28-23.29-9.23c-4.82-7.78-4.04-17.78,1.96-24.64
				c0.51-0.58,1.15-1.04,1.87-1.69c2.33,2.4,4.55,4.7,6.95,7.17c-0.45,0.7-0.93,1.45-1.42,2.19c-2.58,3.94-2.58,8.45,0.01,12.01
				c2.64,3.64,7.15,5.19,11.37,3.9c4.4-1.34,7.36-5.05,7.39-9.87c0.1-12.31,0.04-24.62,0.04-36.93
				C-216.48,353.88-216.48,352.42-216.48,350.53z"/>
			<path class="st4" d="M-211.2,345.73c-2.94-0.02-5.31-2.44-5.24-5.35c0.07-2.89,2.62-5.38,5.47-5.12c3.06,0.27,4.83,2.1,5.02,5.16
				C-205.76,343.31-208.29,345.75-211.2,345.73z"/>
			<path class="st1" d="M-190.36,345.73c-2.94-0.03-5.28-2.46-5.18-5.39c0.09-2.91,2.62-5.36,5.5-5.08c3.04,0.3,4.84,2.09,4.98,5.19
				C-184.94,343.37-187.44,345.77-190.36,345.73z"/>
		</g>
	</g>
</g>
<path class="st4" d="M-405.37,1099.77h-413.23c-16.7,0-30.24-13.54-30.24-30.24V678.57c0-16.7,13.54-30.24,30.24-30.24h413.23
	c16.7,0,30.24,13.54,30.24,30.24v390.96C-375.13,1086.24-388.66,1099.77-405.37,1099.77z"/>
<g>
	<g>
		<path class="st3" d="M-704.31,947.32h10.32c0,2.44,0.51,4.24,1.54,5.4c1.02,1.16,2.64,1.74,4.85,1.74c1.96,0,3.52-0.67,4.68-2.02
			c1.16-1.34,1.74-3.26,1.74-5.74v-34.44h10.25v34.44c0,3.17-0.7,5.96-2.1,8.39c-1.4,2.43-3.38,4.3-5.93,5.62
			c-2.55,1.32-5.43,1.98-8.65,1.98c-5.26,0-9.36-1.34-12.3-4.02C-702.84,956-704.31,952.22-704.31,947.32z"/>
		<path class="st3" d="M-659.89,942.6c2.89-2.1,7.08-3.16,12.58-3.18h4.54v-2.12c0-1.71-0.44-3.08-1.32-4.1
			c-0.88-1.02-2.26-1.54-4.15-1.54c-1.66,0-2.97,0.4-3.91,1.2c-0.95,0.8-1.42,1.89-1.42,3.28h-9.88c0-2.14,0.66-4.12,1.98-5.95
			c1.32-1.82,3.19-3.25,5.6-4.29c2.42-1.04,5.13-1.55,8.13-1.55c4.56,0,8.17,1.14,10.85,3.43c2.68,2.29,4.01,5.51,4.01,9.65v16.03
			c0.02,3.51,0.51,6.16,1.47,7.96v0.58h-9.98c-0.46-0.89-0.79-1.99-0.99-3.31c-2.39,2.67-5.5,4-9.33,4c-3.62,0-6.62-1.05-9-3.14
			c-2.38-2.1-3.57-4.74-3.57-7.93C-664.26,947.71-662.8,944.7-659.89,942.6z M-653.09,953.95c0.87,0.8,2.05,1.2,3.55,1.2
			c1.46,0,2.8-0.33,4.03-0.97c1.23-0.65,2.14-1.52,2.73-2.61v-6.36h-3.69c-4.94,0-7.58,1.71-7.89,5.13l-0.03,0.58
			C-654.38,952.14-653.95,953.15-653.09,953.95z"/>
		<path class="st3" d="M-628.96,925.04h10.63l6.87,23l6.83-23h10.59l-14.86,42.71l-0.82,1.95c-2.21,4.83-5.86,7.24-10.93,7.24
			c-1.44,0-2.89-0.22-4.37-0.65v-7.48l1.5,0.03c1.87,0,3.26-0.29,4.19-0.85s1.65-1.51,2.17-2.84l1.16-3.04L-628.96,925.04z"/>
		<path class="st3" d="M-591.48,944.42v-0.96c0-3.71,0.72-7.03,2.15-9.96c1.43-2.93,3.47-5.18,6.1-6.77c2.63-1.58,5.63-2.38,9-2.38
			c5.06,0,9.04,1.59,11.94,4.78c2.91,3.19,4.36,7.71,4.36,13.57v4.03h-23.54c0.32,2.42,1.28,4.35,2.89,5.81
			c1.61,1.46,3.64,2.19,6.1,2.19c3.8,0,6.78-1.38,8.92-4.13l4.85,5.43c-1.48,2.1-3.49,3.73-6.01,4.9c-2.53,1.17-5.33,1.76-8.41,1.76
			c-5.42,0-9.84-1.66-13.24-4.99C-589.77,954.38-591.48,949.95-591.48,944.42z M-581.36,940.01h13.74v-0.79
			c-0.05-2.19-0.64-3.88-1.78-5.07c-1.14-1.2-2.76-1.79-4.85-1.79c-1.96,0-3.55,0.66-4.77,1.98
			C-580.24,935.66-581.02,937.55-581.36,940.01z"/>
		<path class="st3" d="M-553.65,944.42v-0.96c0-3.71,0.72-7.03,2.15-9.96c1.43-2.93,3.47-5.18,6.1-6.77c2.63-1.58,5.63-2.38,9-2.38
			c5.06,0,9.04,1.59,11.94,4.78c2.91,3.19,4.36,7.71,4.36,13.57v4.03h-23.54c0.32,2.42,1.28,4.35,2.89,5.81
			c1.61,1.46,3.64,2.19,6.1,2.19c3.8,0,6.78-1.38,8.92-4.13l4.85,5.43c-1.48,2.1-3.49,3.73-6.01,4.9c-2.53,1.17-5.33,1.76-8.41,1.76
			c-5.42,0-9.84-1.66-13.24-4.99C-551.95,954.38-553.65,949.95-553.65,944.42z M-543.53,940.01h13.74v-0.79
			c-0.05-2.19-0.64-3.88-1.78-5.07c-1.14-1.2-2.76-1.79-4.85-1.79c-1.96,0-3.55,0.66-4.77,1.98
			C-542.41,935.66-543.19,937.55-543.53,940.01z"/>
	</g>
	<g>
		<path class="st1" d="M-565.06,819.35c0,6.89,0.03,13.78-0.03,20.68c-0.04,5.03-0.92,9.93-2.72,14.65
			c-2.15,5.63-5.41,10.54-9.59,14.87c-7.56,7.84-15.25,15.57-22.97,23.26c-3.48,3.46-6.97,6.91-10.41,10.42
			c-0.62,0.63-0.99,0.66-1.71,0.15c-1.18-0.85-2.17-1.88-3.19-2.9c-5.98-5.92-12-11.8-17.92-17.78
			c-5.2-5.25-10.47-10.45-15.17-16.18c-1.59-1.94-2.96-4.03-4.23-6.18c-0.61-1.04-1.22-2.1-1.73-3.2
			c-1.93-4.18-3.34-8.52-3.92-13.12c-0.33-2.62-0.41-5.24-0.26-7.85c0.13-2.36,0.45-4.72,1.03-7.03c0.39-0.15,0.52-0.72,1.09-0.61
			c1.71,0.33,3.39-0.18,5.08-0.32c1.78-0.14,3.54-0.58,5.33-0.72c2.72-0.21,5.44-0.38,8.13-0.86c0.53-0.09,0.93-0.11,1.28,0.32
			c-1.82,4.24-2.53,8.68-2.26,13.27c0.77,13.07,12.61,22.77,21.83,24.65c6.21,1.27,12.05,0.15,17.66-2.56
			c6.06-2.93,10.66-7.31,13.26-13.62c1.58-3.84,2.09-7.87,2.12-12c0.03-5.22,0.1-10.44,0.15-15.67c0.41,0,0.59-0.47,1.04-0.46
			c1.88,0.03,3.74-0.3,5.62-0.38c1.53-0.06,3.04-0.43,4.58-0.56c2.03-0.16,4.02-0.77,6.1-0.48c0.17,0.02,0.41-0.05,0.55-0.17
			c0.41-0.35,0.83-0.25,1.27-0.1c0,0.1,0,0.21,0,0.31c-0.02,0.01-0.06,0.04-0.06,0.04C-565.11,819.27-565.08,819.31-565.06,819.35z"
			/>
		<path class="st3" d="M-565.06,818.88c-0.44-0.15-0.85-0.25-1.27,0.1c-0.14,0.11-0.37,0.19-0.55,0.17
			c-2.07-0.29-4.07,0.32-6.1,0.48c-1.54,0.12-3.05,0.49-4.58,0.56c-1.88,0.07-3.74,0.4-5.62,0.38c-0.46-0.01-0.63,0.46-1.04,0.46
			c-0.01-2.17-0.03-4.35-0.04-6.52c-0.05-11.89-0.1-23.78-0.15-35.66c0-0.65-0.06-1.3-0.19-1.94c-0.23-1.15-0.84-1.79-2.02-1.97
			c-1.68-0.26-3.38-0.1-5.07-0.1c-6.47-0.02-12.93-0.02-19.4-0.06c-1.13-0.01-2.25-0.15-3.38-0.21c-0.55-0.03-0.78-0.26-0.78-0.84
			c0.02-5.79,0.02-11.58,0.01-17.37c0-0.58,0.22-0.81,0.77-0.85c1.21-0.08,2.41-0.21,3.63-0.21c12.43,0,24.85-0.01,37.28-0.02
			c1.72,0,3.44-0.04,5.17-0.01c2.31,0.04,3.32,0.99,3.37,3.31c0.07,2.88,0.02,5.76,0.01,8.64c-0.01,16.75-0.02,33.49-0.03,50.24
			C-565.03,817.92-565.05,818.4-565.06,818.88z"/>
		<path class="st3" d="M-636.98,826.94c-0.35-0.42-0.75-0.41-1.28-0.32c-2.69,0.48-5.41,0.66-8.13,0.86
			c-1.79,0.14-3.55,0.58-5.33,0.72c-1.69,0.13-3.36,0.65-5.08,0.32c-0.57-0.11-0.7,0.46-1.09,0.61c0.86-4.25,2.35-8.28,4.23-12.18
			c2.41-5,5.5-9.52,9.49-13.39c5.64-5.49,12.37-8.98,19.97-10.9c5.99-1.51,12.07-1.95,18.23-1.72c1.24,0.05,2.48-0.06,3.72-0.07
			c2.35-0.02,3.44,1.01,3.48,3.38c0.04,2.51-0.01,5.03-0.01,7.54c-0.01,6.92-0.03,13.84-0.04,20.76c-0.17-0.1-0.4-0.45-0.54-0.14
			c-0.21,0.48-0.44,0.32-0.78,0.23c-0.26-0.07-0.56-0.04-0.84,0c-2.89,0.43-5.8,0.56-8.7,0.84c-1.52,0.15-3.06-0.01-4.57,0.43
			c-0.52,0.15-1.02,0.52-1.61,0.39c0.29-0.55,0.46-1.13,0.44-1.76c-0.08-3.45-0.12-6.89-0.02-10.34c0.02-0.74-0.24-0.89-0.94-0.83
			c-5.86,0.44-10.62,3.12-14.78,7.11c-2.29,2.2-3.92,4.84-5.51,7.53C-636.8,826.28-636.75,826.67-636.98,826.94z"/>
		<path class="st1" d="M-615.83,824.28c0.6,0.13,1.09-0.24,1.61-0.39c1.51-0.44,3.05-0.28,4.57-0.43c2.9-0.28,5.81-0.41,8.7-0.84
			c0.27-0.04,0.58-0.07,0.84,0c0.34,0.09,0.56,0.25,0.78-0.23c0.14-0.31,0.36,0.04,0.54,0.14c0.01,5.08,0.06,10.16,0.01,15.25
			c-0.04,4.06-1.45,7.58-4.61,10.23c-7.59,6.37-19.14,2.4-21.29-7.34c-1.09-4.91,0.38-9.07,4.08-12.41c0.9-0.81,2.01-1.38,3.03-2.04
			C-616.82,825.73-616.13,825.18-615.83,824.28z"/>
		<path class="st5" d="M-565.06,819.35c-0.02-0.04-0.05-0.08-0.06-0.12c0-0.01,0.04-0.03,0.06-0.04
			C-565.04,819.24-565.04,819.3-565.06,819.35z"/>
	</g>
</g>
<g>
	<g>
		<g>
			<path class="st1" d="M-159.39,862.98h-134.9c-16.7,0-30.24-13.54-30.24-30.24V678.3c0-16.7,13.54-30.24,30.24-30.24h134.9
				c16.7,0,30.24,13.54,30.24,30.24v154.44C-129.15,849.44-142.69,862.98-159.39,862.98z"/>
		</g>
	</g>
	<g>
		<path class="st4" d="M-185.29,746.55c0,6.1,0.03,12.21-0.02,18.31c-0.04,4.46-0.82,8.8-2.41,12.97c-1.9,4.98-4.79,9.33-8.49,13.17
			c-6.7,6.95-13.5,13.79-20.34,20.59c-3.08,3.07-6.17,6.12-9.22,9.22c-0.55,0.55-0.88,0.59-1.51,0.13
			c-1.05-0.75-1.92-1.67-2.83-2.56c-5.3-5.24-10.63-10.45-15.87-15.74c-4.61-4.65-9.27-9.26-13.43-14.33
			c-1.41-1.71-2.62-3.57-3.74-5.47c-0.54-0.92-1.08-1.86-1.53-2.83c-1.71-3.7-2.96-7.55-3.47-11.62c-0.29-2.32-0.37-4.64-0.23-6.95
			c0.12-2.09,0.4-4.18,0.92-6.22c0.35-0.13,0.46-0.64,0.96-0.54c1.52,0.3,3-0.16,4.49-0.28c1.58-0.13,3.13-0.52,4.72-0.64
			c2.41-0.18,4.82-0.34,7.2-0.77c0.47-0.08,0.82-0.1,1.13,0.28c-1.61,3.76-2.24,7.69-2,11.75c0.68,11.57,11.17,20.17,19.33,21.83
			c5.5,1.12,10.67,0.13,15.64-2.27c5.37-2.59,9.44-6.47,11.74-12.06c1.4-3.4,1.85-6.97,1.87-10.62c0.03-4.62,0.09-9.25,0.13-13.87
			c0.36,0,0.52-0.41,0.92-0.41c1.67,0.02,3.31-0.27,4.98-0.33c1.35-0.05,2.69-0.38,4.06-0.49c1.8-0.14,3.56-0.68,5.4-0.43
			c0.15,0.02,0.36-0.05,0.48-0.15c0.37-0.31,0.74-0.22,1.12-0.08c0,0.09,0,0.18,0,0.27c-0.02,0.01-0.05,0.03-0.05,0.04
			C-185.34,746.48-185.31,746.51-185.29,746.55z"/>
		<path class="st3" d="M-185.3,746.13c-0.39-0.14-0.76-0.22-1.12,0.08c-0.12,0.1-0.33,0.17-0.48,0.15c-1.83-0.25-3.6,0.28-5.4,0.43
			c-1.37,0.11-2.7,0.44-4.06,0.49c-1.67,0.07-3.31,0.36-4.98,0.33c-0.4-0.01-0.56,0.41-0.92,0.41c-0.01-1.92-0.03-3.85-0.04-5.77
			c-0.05-10.53-0.09-21.05-0.13-31.58c0-0.58-0.05-1.15-0.16-1.71c-0.21-1.02-0.75-1.59-1.79-1.75c-1.49-0.23-2.99-0.09-4.49-0.09
			c-5.73-0.02-11.45-0.02-17.18-0.05c-1-0.01-1.99-0.13-2.99-0.19c-0.49-0.03-0.69-0.23-0.69-0.74c0.02-5.13,0.02-10.25,0-15.38
			c0-0.52,0.2-0.72,0.68-0.75c1.07-0.07,2.14-0.19,3.22-0.19c11,0,22-0.01,33.01-0.02c1.52,0,3.05-0.04,4.57-0.01
			c2.04,0.04,2.94,0.88,2.99,2.93c0.06,2.55,0.01,5.1,0.01,7.65c-0.01,14.83-0.02,29.66-0.03,44.49
			C-185.27,745.28-185.29,745.71-185.3,746.13z"/>
		<path class="st3" d="M-248.98,753.27c-0.31-0.38-0.66-0.36-1.13-0.28c-2.38,0.43-4.79,0.58-7.2,0.77
			c-1.58,0.12-3.14,0.51-4.72,0.64c-1.49,0.12-2.98,0.58-4.49,0.28c-0.5-0.1-0.62,0.41-0.96,0.54c0.76-3.77,2.08-7.33,3.74-10.79
			c2.13-4.43,4.87-8.43,8.4-11.86c4.99-4.86,10.96-7.95,17.68-9.65c5.3-1.34,10.69-1.73,16.14-1.52c1.1,0.04,2.2-0.06,3.3-0.06
			c2.09-0.02,3.05,0.9,3.08,2.99c0.03,2.22-0.01,4.45-0.01,6.68c-0.01,6.13-0.02,12.25-0.03,18.38c-0.15-0.09-0.35-0.4-0.47-0.13
			c-0.19,0.42-0.39,0.28-0.69,0.2c-0.23-0.06-0.5-0.03-0.74,0c-2.56,0.38-5.14,0.49-7.7,0.74c-1.34,0.13-2.71-0.01-4.04,0.38
			c-0.46,0.13-0.9,0.46-1.43,0.35c0.26-0.49,0.41-1,0.39-1.56c-0.07-3.05-0.1-6.1-0.02-9.15c0.02-0.66-0.22-0.78-0.83-0.74
			c-5.19,0.39-9.4,2.76-13.09,6.3c-2.03,1.94-3.47,4.29-4.88,6.67C-248.82,752.69-248.77,753.03-248.98,753.27z"/>
		<path class="st4" d="M-230.25,750.92c0.53,0.12,0.97-0.21,1.43-0.35c1.33-0.39,2.7-0.25,4.04-0.38c2.57-0.25,5.15-0.36,7.7-0.74
			c0.24-0.04,0.51-0.07,0.74,0c0.3,0.08,0.5,0.22,0.69-0.2c0.12-0.27,0.32,0.04,0.47,0.13c0.01,4.5,0.06,9,0.01,13.5
			c-0.04,3.59-1.28,6.71-4.08,9.06c-6.72,5.64-16.95,2.12-18.85-6.5c-0.96-4.35,0.33-8.03,3.61-10.99c0.79-0.72,1.78-1.22,2.68-1.81
			C-231.13,752.2-230.52,751.71-230.25,750.92z"/>
		<path class="st5" d="M-185.29,746.55c-0.02-0.03-0.04-0.07-0.06-0.1c0-0.01,0.03-0.03,0.05-0.04
			C-185.28,746.45-185.28,746.5-185.29,746.55z"/>
	</g>
</g>
<g>
	<g>
		<path class="st3" d="M-159.39,1099.77h-134.9c-16.7,0-30.24-13.54-30.24-30.24V915.09c0-16.7,13.54-30.24,30.24-30.24h134.9
			c16.7,0,30.24,13.54,30.24,30.24v154.44C-129.15,1086.24-142.69,1099.77-159.39,1099.77z"/>
	</g>
	<g>
		<path class="st1" d="M-185.29,983.34c0,6.1,0.03,12.21-0.02,18.31c-0.04,4.46-0.82,8.8-2.41,12.97c-1.9,4.98-4.79,9.33-8.49,13.17
			c-6.7,6.95-13.5,13.79-20.34,20.59c-3.08,3.07-6.17,6.12-9.22,9.22c-0.55,0.55-0.88,0.59-1.51,0.13
			c-1.05-0.75-1.92-1.67-2.83-2.56c-5.3-5.24-10.63-10.45-15.87-15.74c-4.61-4.65-9.27-9.26-13.43-14.33
			c-1.41-1.71-2.62-3.57-3.74-5.47c-0.54-0.92-1.08-1.86-1.53-2.83c-1.71-3.7-2.96-7.55-3.47-11.62c-0.29-2.32-0.37-4.64-0.23-6.95
			c0.12-2.09,0.4-4.18,0.92-6.22c0.35-0.13,0.46-0.64,0.96-0.54c1.52,0.3,3-0.16,4.49-0.28c1.58-0.13,3.13-0.52,4.72-0.64
			c2.41-0.18,4.82-0.34,7.2-0.77c0.47-0.08,0.82-0.1,1.13,0.28c-1.61,3.76-2.24,7.69-2,11.75c0.68,11.57,11.17,20.17,19.33,21.83
			c5.5,1.12,10.67,0.13,15.64-2.27c5.37-2.59,9.44-6.47,11.74-12.06c1.4-3.4,1.85-6.97,1.87-10.62c0.03-4.62,0.09-9.25,0.13-13.87
			c0.36,0,0.52-0.41,0.92-0.41c1.67,0.02,3.31-0.27,4.98-0.33c1.35-0.05,2.69-0.38,4.06-0.49c1.8-0.14,3.56-0.68,5.4-0.43
			c0.15,0.02,0.36-0.05,0.48-0.15c0.37-0.31,0.74-0.22,1.12-0.08c0,0.09,0,0.18,0,0.27c-0.02,0.01-0.05,0.03-0.05,0.04
			C-185.34,983.27-185.31,983.31-185.29,983.34z"/>
		<path class="st4" d="M-185.3,982.93c-0.39-0.14-0.76-0.22-1.12,0.08c-0.12,0.1-0.33,0.17-0.48,0.15c-1.83-0.25-3.6,0.28-5.4,0.43
			c-1.37,0.11-2.7,0.44-4.06,0.49c-1.67,0.07-3.31,0.36-4.98,0.33c-0.4-0.01-0.56,0.41-0.92,0.41c-0.01-1.92-0.03-3.85-0.04-5.77
			c-0.05-10.53-0.09-21.05-0.13-31.58c0-0.58-0.05-1.15-0.16-1.71c-0.21-1.02-0.75-1.59-1.79-1.75c-1.49-0.23-2.99-0.09-4.49-0.09
			c-5.73-0.02-11.45-0.02-17.18-0.05c-1-0.01-1.99-0.13-2.99-0.19c-0.49-0.03-0.69-0.23-0.69-0.74c0.02-5.13,0.02-10.25,0-15.38
			c0-0.52,0.2-0.72,0.68-0.75c1.07-0.07,2.14-0.19,3.22-0.19c11,0,22-0.01,33.01-0.02c1.52,0,3.05-0.04,4.57-0.01
			c2.04,0.04,2.94,0.88,2.99,2.93c0.06,2.55,0.01,5.1,0.01,7.65c-0.01,14.83-0.02,29.66-0.03,44.49
			C-185.27,982.08-185.29,982.5-185.3,982.93z"/>
		<path class="st4" d="M-248.98,990.06c-0.31-0.38-0.66-0.36-1.13-0.28c-2.38,0.43-4.79,0.58-7.2,0.77
			c-1.58,0.12-3.14,0.51-4.72,0.64c-1.49,0.12-2.98,0.58-4.49,0.28c-0.5-0.1-0.62,0.41-0.96,0.54c0.76-3.77,2.08-7.33,3.74-10.79
			c2.13-4.43,4.87-8.43,8.4-11.86c4.99-4.86,10.96-7.95,17.68-9.65c5.3-1.34,10.69-1.73,16.14-1.52c1.1,0.04,2.2-0.06,3.3-0.06
			c2.09-0.02,3.05,0.9,3.08,2.99c0.03,2.22-0.01,4.45-0.01,6.68c-0.01,6.13-0.02,12.25-0.03,18.38c-0.15-0.09-0.35-0.4-0.47-0.13
			c-0.19,0.42-0.39,0.28-0.69,0.2c-0.23-0.06-0.5-0.03-0.74,0c-2.56,0.38-5.14,0.49-7.7,0.74c-1.34,0.13-2.71-0.01-4.04,0.38
			c-0.46,0.13-0.9,0.46-1.43,0.35c0.26-0.49,0.41-1,0.39-1.56c-0.07-3.05-0.1-6.1-0.02-9.15c0.02-0.66-0.22-0.78-0.83-0.74
			c-5.19,0.39-9.4,2.76-13.09,6.3c-2.03,1.94-3.47,4.29-4.88,6.67C-248.82,989.48-248.77,989.82-248.98,990.06z"/>
		<path class="st1" d="M-230.25,987.71c0.53,0.12,0.97-0.21,1.43-0.35c1.33-0.39,2.7-0.25,4.04-0.38c2.57-0.25,5.15-0.36,7.7-0.74
			c0.24-0.04,0.51-0.07,0.74,0c0.3,0.08,0.5,0.22,0.69-0.2c0.12-0.27,0.32,0.04,0.47,0.13c0.01,4.5,0.06,9,0.01,13.5
			c-0.04,3.59-1.28,6.71-4.08,9.06c-6.72,5.64-16.95,2.12-18.85-6.5c-0.96-4.35,0.33-8.03,3.61-10.99c0.79-0.72,1.78-1.22,2.68-1.81
			C-231.13,988.99-230.52,988.51-230.25,987.71z"/>
		<path class="st5" d="M-185.29,983.34c-0.02-0.03-0.04-0.07-0.06-0.1c0-0.01,0.03-0.03,0.05-0.04
			C-185.28,983.25-185.28,983.29-185.29,983.34z"/>
	</g>
</g>
<path class="st5" d="M-1561,595.14c-0.05-0.08-0.1-0.16-0.13-0.25c0-0.01,0.08-0.06,0.13-0.09
	C-1560.96,594.92-1560.96,595.03-1561,595.14z"/>
<rect class="st3" width="500" height="500"/>
<g>
	<g>
		<path class="st4" d="M139.3,331.75h12.37c0,2.92,0.61,5.08,1.84,6.47c1.23,1.39,3.17,2.09,5.82,2.09c2.35,0,4.22-0.8,5.61-2.42
			c1.39-1.61,2.09-3.91,2.09-6.88v-41.3h12.29v41.3c0,3.8-0.84,7.15-2.52,10.06c-1.68,2.91-4.05,5.16-7.11,6.74
			c-3.06,1.58-6.51,2.38-10.37,2.38c-6.31,0-11.23-1.6-14.75-4.81C141.06,342.16,139.3,337.62,139.3,331.75z"/>
		<path class="st4" d="M192.56,326.09c3.47-2.51,8.49-3.78,15.08-3.81h5.45v-2.54c0-2.05-0.53-3.69-1.58-4.92
			c-1.05-1.23-2.71-1.84-4.98-1.84c-1.99,0-3.56,0.48-4.69,1.43s-1.7,2.27-1.7,3.93H188.3c0-2.57,0.79-4.94,2.38-7.13
			c1.58-2.18,3.82-3.9,6.72-5.14c2.9-1.24,6.15-1.86,9.75-1.86c5.46,0,9.8,1.37,13.01,4.12c3.21,2.75,4.81,6.6,4.81,11.57v19.22
			c0.03,4.21,0.61,7.39,1.76,9.55v0.7h-11.96c-0.55-1.07-0.94-2.39-1.19-3.97c-2.87,3.2-6.6,4.79-11.18,4.79
			c-4.34,0-7.94-1.26-10.8-3.77c-2.85-2.51-4.28-5.68-4.28-9.5C187.32,332.21,189.06,328.61,192.56,326.09z M200.71,339.7
			c1.04,0.96,2.46,1.43,4.26,1.43c1.75,0,3.36-0.39,4.83-1.17c1.48-0.78,2.57-1.82,3.28-3.13v-7.62h-4.42
			c-5.93,0-9.08,2.05-9.46,6.15l-0.04,0.7C199.16,337.52,199.67,338.74,200.71,339.7z"/>
		<path class="st4" d="M229.64,305.04h12.74l8.24,27.57l8.19-27.57h12.7l-17.82,51.21l-0.98,2.34c-2.65,5.79-7.02,8.69-13.11,8.69
			c-1.72,0-3.47-0.26-5.24-0.78v-8.97l1.8,0.04c2.24,0,3.91-0.34,5.02-1.02c1.11-0.68,1.97-1.82,2.6-3.4l1.39-3.65L229.64,305.04z"
			/>
		<path class="st4" d="M274.58,328.27v-1.15c0-4.45,0.86-8.43,2.58-11.94s4.16-6.21,7.31-8.11c3.16-1.9,6.75-2.85,10.8-2.85
			c6.06,0,10.84,1.91,14.32,5.74s5.22,9.25,5.22,16.26v4.83h-28.23c0.38,2.9,1.54,5.22,3.46,6.96s4.36,2.62,7.31,2.62
			c4.56,0,8.12-1.65,10.69-4.96l5.82,6.51c-1.78,2.51-4.18,4.47-7.21,5.88c-3.03,1.41-6.39,2.11-10.08,2.11
			c-6.5,0-11.79-1.99-15.88-5.98C276.62,340.22,274.58,334.9,274.58,328.27z M286.71,322.98h16.47v-0.94
			c-0.05-2.62-0.76-4.65-2.13-6.08c-1.37-1.43-3.31-2.15-5.82-2.15c-2.35,0-4.25,0.79-5.71,2.38
			C288.05,317.76,287.12,320.03,286.71,322.98z"/>
		<path class="st4" d="M319.94,328.27v-1.15c0-4.45,0.86-8.43,2.58-11.94s4.16-6.21,7.31-8.11c3.16-1.9,6.75-2.85,10.8-2.85
			c6.06,0,10.84,1.91,14.32,5.74s5.22,9.25,5.22,16.26v4.83h-28.23c0.38,2.9,1.54,5.22,3.46,6.96s4.36,2.62,7.31,2.62
			c4.56,0,8.12-1.65,10.69-4.96l5.82,6.51c-1.78,2.51-4.18,4.47-7.21,5.88c-3.03,1.41-6.39,2.11-10.08,2.11
			c-6.5,0-11.79-1.99-15.88-5.98C321.98,340.22,319.94,334.9,319.94,328.27z M332.06,322.98h16.47v-0.94
			c-0.05-2.62-0.76-4.65-2.13-6.08c-1.37-1.43-3.31-2.15-5.82-2.15c-2.35,0-4.25,0.79-5.71,2.38
			C333.41,317.76,332.47,320.03,332.06,322.98z"/>
	</g>
	<g>
		<path class="st1" d="M298.68,180.16c0,7.15,0.03,14.3-0.03,21.45c-0.04,5.22-0.96,10.31-2.82,15.2
			c-2.23,5.84-5.61,10.93-9.95,15.43c-7.85,8.14-15.82,16.16-23.83,24.13c-3.61,3.59-7.23,7.18-10.8,10.81
			c-0.64,0.65-1.03,0.69-1.77,0.15c-1.23-0.88-2.25-1.96-3.31-3c-6.21-6.14-12.45-12.24-18.6-18.44
			c-5.4-5.45-10.86-10.85-15.74-16.79c-1.65-2.01-3.07-4.18-4.39-6.41c-0.64-1.08-1.27-2.18-1.79-3.32
			c-2.01-4.34-3.47-8.84-4.07-13.62c-0.34-2.71-0.43-5.43-0.27-8.15c0.14-2.45,0.47-4.9,1.07-7.29c0.4-0.15,0.54-0.74,1.13-0.63
			c1.78,0.35,3.52-0.19,5.27-0.33c1.85-0.15,3.67-0.61,5.53-0.75c2.82-0.21,5.65-0.4,8.44-0.9c0.55-0.1,0.96-0.11,1.32,0.33
			c-1.89,4.4-2.62,9.01-2.34,13.77c0.8,13.56,13.08,23.63,22.65,25.58c6.44,1.31,12.5,0.15,18.32-2.66
			c6.29-3.04,11.06-7.59,13.76-14.13c1.64-3.99,2.17-8.17,2.2-12.45c0.03-5.42,0.1-10.84,0.16-16.26c0.43,0,0.61-0.48,1.08-0.48
			c1.95,0.03,3.88-0.31,5.83-0.39c1.58-0.06,3.15-0.45,4.75-0.58c2.11-0.17,4.18-0.8,6.33-0.5c0.18,0.02,0.43-0.05,0.57-0.17
			c0.43-0.36,0.86-0.26,1.31-0.1c0,0.11,0,0.21,0,0.32c-0.02,0.02-0.06,0.04-0.06,0.04C298.64,180.08,298.66,180.12,298.68,180.16z"
			/>
		<path class="st4" d="M298.68,179.67c-0.45-0.16-0.89-0.26-1.31,0.1c-0.14,0.12-0.39,0.2-0.57,0.17c-2.15-0.3-4.22,0.33-6.33,0.5
			c-1.6,0.13-3.17,0.51-4.75,0.58c-1.95,0.08-3.88,0.42-5.83,0.39c-0.47-0.01-0.65,0.48-1.08,0.48c-0.01-2.26-0.03-4.51-0.04-6.77
			c-0.05-12.33-0.1-24.67-0.15-37c0-0.68-0.06-1.35-0.19-2.01c-0.24-1.2-0.87-1.86-2.1-2.05c-1.75-0.27-3.51-0.1-5.26-0.11
			c-6.71-0.02-13.42-0.03-20.13-0.06c-1.17-0.01-2.34-0.16-3.51-0.22c-0.57-0.03-0.81-0.27-0.81-0.87
			c0.02-6.01,0.02-12.01,0.01-18.02c0-0.6,0.23-0.84,0.8-0.88c1.26-0.09,2.5-0.22,3.77-0.22c12.89,0,25.78-0.01,38.68-0.02
			c1.79,0,3.57-0.04,5.36-0.01c2.39,0.05,3.44,1.03,3.5,3.44c0.07,2.99,0.02,5.98,0.02,8.96c-0.01,17.38-0.02,34.75-0.03,52.13
			C298.72,178.68,298.69,179.18,298.68,179.67z"/>
		<path class="st4" d="M263.71,161.93c-0.01,7.18-0.03,14.36-0.04,21.54c0.01,5.27,0.07,10.55,0.01,15.82
			c-0.04,4.21-1.5,7.86-4.78,10.62c-7.87,6.61-19.86,2.48-22.09-7.62c-1.13-5.1,0.39-9.41,4.23-12.88c0.93-0.84,2.08-1.43,3.14-2.12
			c0.79-0.51,1.51-1.08,1.83-2.01c0.3-0.57,0.47-1.18,0.46-1.83c-0.09-3.57-0.12-7.15-0.02-10.72c0.02-0.77-0.26-0.92-0.98-0.87
			c-6.08,0.46-11.02,3.24-15.34,7.39c-2.37,2.27-4.07,5.02-5.71,7.81c-0.18,0.29-0.12,0.69-0.36,0.97
			c-0.36-0.44-0.77-0.42-1.32-0.32c-2.79,0.5-5.62,0.68-8.44,0.89c-1.86,0.15-3.68,0.6-5.53,0.75c-1.75,0.14-3.48,0.68-5.26,0.33
			c-0.59-0.11-0.72,0.48-1.13,0.63c0.89-4.41,2.44-8.59,4.39-12.64c2.49-5.19,5.71-9.87,9.85-13.9c5.85-5.69,12.83-9.32,20.71-11.31
			c6.22-1.57,12.53-2.02,18.92-1.78c1.28,0.05,2.57-0.07,3.86-0.08c2.45-0.02,3.57,1.05,3.61,3.51
			C263.76,156.72,263.72,159.33,263.71,161.93z"/>
		<path class="st4" d="M298.68,180.16c-0.02-0.04-0.05-0.08-0.07-0.12c0-0.01,0.04-0.03,0.06-0.04
			C298.71,180.05,298.71,180.1,298.68,180.16z"/>
	</g>
</g>
</svg>
