<?xml version="1.0" encoding="utf-8"?>
<!-- Generator: Adobe Illustrator 25.3.1, SVG Export Plug-In . SVG Version: 6.00 Build 0)  -->
<svg version="1.1" id="Layer_1" xmlns="http://www.w3.org/2000/svg" xmlns:xlink="http://www.w3.org/1999/xlink" x="0px" y="0px"
	 viewBox="0 0 500 500" style="enable-background:new 0 0 500 500;" xml:space="preserve">
<style type="text/css">
	.st0{opacity:0.7;fill:#E5E5E5;}
	.st1{fill:#FAAA15;}
	.st2{fill:#FFFFFF;}
	.st3{fill:#101035;}
	.st4{fill:#FCFCFC;}
	.st5{fill:#015ABA;}
</style>
<g>
	<g>
		<path class="st3" d="M135.23,341.07h12.83c0,3.03,0.64,5.27,1.91,6.71c1.27,1.44,3.29,2.17,6.03,2.17c2.44,0,4.38-0.83,5.82-2.51
			s2.17-4.05,2.17-7.14v-42.82h12.74v42.82c0,3.94-0.87,7.41-2.61,10.43c-1.74,3.02-4.2,5.35-7.37,6.99
			c-3.17,1.64-6.75,2.46-10.75,2.46c-6.54,0-11.64-1.66-15.29-4.99C137.05,351.87,135.23,347.16,135.23,341.07z"/>
		<path class="st3" d="M190.45,335.21c3.6-2.61,8.81-3.92,15.63-3.95h5.65v-2.63c0-2.12-0.55-3.82-1.64-5.1
			c-1.09-1.27-2.81-1.91-5.16-1.91c-2.07,0-3.69,0.5-4.86,1.49c-1.18,0.99-1.76,2.35-1.76,4.08h-12.28c0-2.66,0.82-5.13,2.46-7.39
			c1.64-2.27,3.96-4.04,6.97-5.33c3-1.29,6.37-1.93,10.11-1.93c5.66,0,10.16,1.42,13.49,4.27c3.33,2.85,4.99,6.85,4.99,12v19.92
			c0.03,4.36,0.64,7.66,1.83,9.9v0.72h-12.4c-0.57-1.1-0.98-2.48-1.23-4.12c-2.97,3.31-6.84,4.97-11.6,4.97
			c-4.5,0-8.23-1.3-11.19-3.91c-2.96-2.6-4.44-5.89-4.44-9.85C185.01,341.56,186.82,337.82,190.45,335.21z M198.9,349.32
			c1.08,0.99,2.55,1.49,4.42,1.49c1.81,0,3.48-0.4,5.01-1.21c1.53-0.81,2.66-1.89,3.4-3.25v-7.9h-4.59c-6.15,0-9.42,2.12-9.81,6.37
			l-0.04,0.72C197.29,347.06,197.82,348.32,198.9,349.32z"/>
		<path class="st3" d="M228.89,313.38h13.21l8.54,28.59l8.5-28.59h13.17l-18.48,53.1l-1.02,2.42c-2.75,6-7.28,9-13.59,9
			c-1.78,0-3.6-0.27-5.44-0.81v-9.3l1.87,0.04c2.32,0,4.06-0.35,5.2-1.06s2.05-1.88,2.7-3.53l1.44-3.78L228.89,313.38z"/>
		<path class="st3" d="M275.49,337.46v-1.19c0-4.62,0.89-8.74,2.68-12.38s4.31-6.44,7.58-8.41c3.27-1.97,7-2.95,11.19-2.95
			c6.29,0,11.24,1.98,14.85,5.95s5.42,9.59,5.42,16.86v5.01h-29.27c0.4,3,1.59,5.41,3.59,7.22c2,1.81,4.52,2.72,7.58,2.72
			c4.73,0,8.42-1.71,11.09-5.14l6.03,6.75c-1.84,2.61-4.33,4.64-7.48,6.1s-6.63,2.19-10.45,2.19c-6.74,0-12.23-2.07-16.46-6.2
			C277.6,349.85,275.49,344.34,275.49,337.46z M288.06,331.98h17.08v-0.98c-0.06-2.72-0.79-4.82-2.21-6.31s-3.43-2.23-6.03-2.23
			c-2.44,0-4.41,0.82-5.92,2.46C289.45,326.58,288.48,328.93,288.06,331.98z"/>
		<path class="st3" d="M322.51,337.46v-1.19c0-4.62,0.89-8.74,2.68-12.38s4.31-6.44,7.58-8.41c3.27-1.97,7-2.95,11.19-2.95
			c6.29,0,11.24,1.98,14.85,5.95s5.42,9.59,5.42,16.86v5.01h-29.27c0.4,3,1.59,5.41,3.59,7.22c2,1.81,4.52,2.72,7.58,2.72
			c4.73,0,8.42-1.71,11.09-5.14l6.03,6.75c-1.84,2.61-4.33,4.64-7.48,6.1s-6.63,2.19-10.45,2.19c-6.74,0-12.23-2.07-16.46-6.2
			C324.63,349.85,322.51,344.34,322.51,337.46z M335.08,331.98h17.08v-0.98c-0.06-2.72-0.79-4.82-2.21-6.31s-3.43-2.23-6.03-2.23
			c-2.44,0-4.41,0.82-5.92,2.46C336.48,326.58,335.51,328.93,335.08,331.98z"/>
	</g>
	<g>
		<path class="st1" d="M308.32,182c-0.01,8.57,0.04,17.14-0.03,25.7c-0.05,6.26-1.15,12.35-3.38,18.21
			c-2.67,7-6.72,13.1-11.92,18.49c-9.4,9.75-18.95,19.35-28.55,28.91c-4.32,4.3-8.66,8.6-12.94,12.95
			c-0.77,0.78-1.23,0.82-2.12,0.18c-1.47-1.06-2.7-2.34-3.97-3.6c-7.44-7.36-14.92-14.67-22.28-22.1
			c-6.47-6.53-13.01-13-18.86-20.11c-1.98-2.41-3.68-5.01-5.25-7.68c-0.76-1.29-1.52-2.61-2.15-3.98c-2.4-5.2-4.15-10.59-4.87-16.31
			c-0.41-3.25-0.51-6.51-0.33-9.76c0.17-2.94,0.56-5.87,1.29-8.74c0.48-0.18,0.64-0.89,1.35-0.75c2.13,0.42,4.21-0.23,6.31-0.4
			c2.21-0.18,4.4-0.73,6.62-0.9c3.38-0.26,6.77-0.48,10.11-1.07c0.66-0.12,1.15-0.14,1.59,0.39c-2.26,5.27-3.14,10.79-2.8,16.5
			c0.95,16.24,15.68,28.31,27.14,30.65c7.72,1.57,14.98,0.18,21.95-3.19c7.54-3.64,13.25-9.09,16.48-16.93
			c1.97-4.78,2.6-9.79,2.63-14.91c0.04-6.49,0.12-12.98,0.19-19.47c0.51,0,0.73-0.58,1.3-0.57c2.34,0.03,4.65-0.38,6.99-0.47
			c1.9-0.07,3.78-0.54,5.69-0.69c2.52-0.2,5-0.95,7.58-0.6c0.22,0.03,0.51-0.06,0.68-0.21c0.51-0.43,1.03-0.31,1.57-0.12
			c0,0.13,0,0.25,0,0.38c-0.03,0.02-0.08,0.05-0.07,0.05C308.27,181.9,308.3,181.95,308.32,182z"/>
		<path class="st3" d="M308.32,181.41c-0.54-0.19-1.06-0.31-1.57,0.12c-0.17,0.14-0.46,0.24-0.68,0.21c-2.58-0.36-5.05,0.4-7.58,0.6
			c-1.92,0.15-3.8,0.62-5.69,0.69c-2.34,0.09-4.65,0.5-6.99,0.47c-0.57-0.01-0.78,0.57-1.3,0.57c-0.02-2.7-0.04-5.4-0.05-8.11
			c-0.06-14.78-0.13-29.55-0.18-44.33c0-0.81-0.07-1.61-0.23-2.41c-0.29-1.43-1.05-2.23-2.51-2.45c-2.09-0.32-4.2-0.12-6.31-0.13
			c-8.04-0.03-16.08-0.03-24.11-0.08c-1.4-0.01-2.8-0.19-4.2-0.26c-0.68-0.04-0.97-0.32-0.96-1.04c0.02-7.2,0.03-14.39,0.01-21.59
			c0-0.72,0.28-1.01,0.96-1.06c1.5-0.1,3-0.26,4.51-0.26c15.45,0,30.89-0.01,46.34-0.03c2.14,0,4.28-0.05,6.42-0.01
			c2.87,0.06,4.12,1.23,4.19,4.12c0.09,3.58,0.02,7.16,0.02,10.74c-0.01,20.82-0.02,41.63-0.04,62.45
			C308.36,180.22,308.33,180.82,308.32,181.41z"/>
		<path class="st3" d="M218.92,191.43c-0.43-0.53-0.93-0.51-1.59-0.39c-3.34,0.6-6.73,0.82-10.11,1.07
			c-2.22,0.17-4.41,0.72-6.62,0.9c-2.1,0.17-4.18,0.81-6.31,0.4c-0.71-0.14-0.87,0.57-1.35,0.75c1.06-5.29,2.93-10.3,5.26-15.15
			c2.99-6.22,6.84-11.83,11.8-16.65c7.01-6.82,15.38-11.16,24.82-13.55c7.45-1.88,15.01-2.42,22.66-2.14
			c1.54,0.06,3.09-0.08,4.63-0.09c2.93-0.02,4.28,1.26,4.32,4.2c0.05,3.12-0.01,6.25-0.01,9.37c-0.02,8.6-0.03,17.2-0.05,25.8
			c-0.22-0.12-0.5-0.56-0.67-0.18c-0.26,0.59-0.55,0.4-0.96,0.28c-0.32-0.09-0.7-0.05-1.04,0c-3.59,0.53-7.21,0.69-10.81,1.04
			c-1.89,0.18-3.81-0.02-5.68,0.53c-0.64,0.19-1.26,0.65-2,0.49c0.36-0.68,0.57-1.41,0.55-2.19c-0.1-4.28-0.14-8.57-0.03-12.85
			c0.03-0.92-0.3-1.1-1.17-1.04c-7.29,0.54-13.2,3.88-18.38,8.84c-2.84,2.73-4.88,6.02-6.85,9.36
			C219.14,190.62,219.21,191.09,218.92,191.43z"/>
		<path class="st1" d="M245.22,188.13c0.74,0.16,1.36-0.3,2-0.49c1.87-0.55,3.79-0.35,5.68-0.53c3.6-0.35,7.23-0.51,10.81-1.04
			c0.34-0.05,0.72-0.09,1.04,0c0.42,0.12,0.7,0.31,0.96-0.28c0.17-0.38,0.45,0.05,0.67,0.18c0.01,6.32,0.08,12.64,0.02,18.95
			c-0.05,5.04-1.8,9.42-5.73,12.72c-9.43,7.92-23.79,2.98-26.47-9.12c-1.35-6.11,0.47-11.27,5.07-15.43c1.11-1,2.49-1.72,3.77-2.54
			C243.98,189.93,244.83,189.25,245.22,188.13z"/>
		<path class="st5" d="M308.32,182c-0.03-0.05-0.06-0.1-0.08-0.15c0-0.01,0.05-0.04,0.07-0.05
			C308.35,181.86,308.35,181.93,308.32,182z"/>
	</g>
</g>
</svg>
