<svg width="24" height="24" viewBox="0 0 24 24" fill="none" xmlns="http://www.w3.org/2000/svg">
<path d="M20.5 8.5H11.5C10.8372 8.50079 10.2018 8.76444 9.73316 9.23311C9.26449 9.70177 9.00084 10.3372 9.00005 11V17C9.00084 17.6628 9.26449 18.2982 9.73316 18.7669C10.2018 19.2356 10.8372 19.4992 11.5 19.5H16.543L18.7195 21.677C18.8244 21.782 18.9581 21.8534 19.1036 21.8824C19.2492 21.9114 19.4 21.8965 19.5371 21.8397C19.6742 21.7829 19.7914 21.6868 19.8738 21.5634C19.9562 21.44 20.0001 21.2949 20 21.1465V19.5H20.5C21.1628 19.4992 21.7983 19.2356 22.2669 18.7669C22.7356 18.2982 22.9993 17.6628 23 17V11C22.9993 10.3372 22.7356 9.70177 22.2669 9.23311C21.7983 8.76444 21.1628 8.50079 20.5 8.5ZM18.5 13.25H18.2205C18.105 14.2824 17.6347 15.2427 16.89 15.967C17.3197 16.1519 17.7823 16.2482 18.25 16.25C18.3846 16.2493 18.514 16.3012 18.6108 16.3946C18.7076 16.488 18.764 16.6155 18.768 16.75C18.7701 16.8147 18.7591 16.8792 18.7358 16.9396C18.7124 17 18.6773 17.0552 18.6323 17.1018C18.5873 17.1484 18.5335 17.1855 18.4739 17.211C18.4144 17.2364 18.3503 17.2497 18.2855 17.25C17.4863 17.2478 16.7016 17.0357 16.01 16.635C15.3248 17.0374 14.5447 17.2497 13.75 17.25C13.6155 17.2507 13.4861 17.1988 13.3893 17.1054C13.2925 17.012 13.2361 16.8844 13.232 16.75C13.23 16.6853 13.241 16.6208 13.2643 16.5604C13.2877 16.4999 13.3228 16.4448 13.3678 16.3982C13.4128 16.3516 13.4666 16.3145 13.5262 16.289C13.5857 16.2636 13.6498 16.2503 13.7145 16.25C14.1977 16.2506 14.6758 16.1529 15.12 15.963C14.7324 15.5943 14.4148 15.1584 14.1825 14.6765C14.152 14.6169 14.1336 14.5518 14.1287 14.485C14.1238 14.4182 14.1323 14.3511 14.1538 14.2877C14.1753 14.2242 14.2093 14.1658 14.2538 14.1157C14.2984 14.0657 14.3525 14.0251 14.413 13.9964C14.4735 13.9677 14.5392 13.9514 14.6061 13.9486C14.673 13.9457 14.7398 13.9563 14.8025 13.9798C14.8653 14.0033 14.9226 14.0391 14.9713 14.0852C15.0199 14.1312 15.0587 14.1866 15.0855 14.248C15.3012 14.701 15.6121 15.1021 15.997 15.424C16.6556 14.8737 17.0876 14.0994 17.21 13.25H13.5C13.3674 13.25 13.2403 13.1973 13.1465 13.1035C13.0527 13.0098 13 12.8826 13 12.75C13 12.6174 13.0527 12.4902 13.1465 12.3964C13.2403 12.3027 13.3674 12.25 13.5 12.25H15.5V11.25C15.5 11.1174 15.5527 10.9902 15.6465 10.8964C15.7403 10.8027 15.8674 10.75 16 10.75C16.1327 10.75 16.2598 10.8027 16.3536 10.8964C16.4474 10.9902 16.5 11.1174 16.5 11.25V12.25H18.5C18.6327 12.25 18.7598 12.3027 18.8536 12.3964C18.9474 12.4902 19 12.6174 19 12.75C19 12.8826 18.9474 13.0098 18.8536 13.1035C18.7598 13.1973 18.6327 13.25 18.5 13.25ZM8.00005 7.2085L7.18555 9H8.63205C8.66805 8.95 8.70655 8.9 8.74555 8.85L8.00005 7.2085Z" fill="#101035"/>
<path d="M12.5 3H3.5C2.8372 3.00079 2.20178 3.26444 1.73311 3.73311C1.26444 4.20178 1.00079 4.8372 1 5.5V11.5C1.00079 12.1628 1.26444 12.7982 1.73311 13.2669C2.20178 13.7356 2.8372 13.9992 3.5 14H4V15.6465C3.99993 15.7949 4.04388 15.94 4.12629 16.0634C4.2087 16.1868 4.32585 16.2829 4.46294 16.3397C4.60003 16.3965 4.75088 16.4114 4.89641 16.3824C5.04194 16.3534 5.17561 16.282 5.2805 16.177L7.457 14H8V11C8.00102 10.6611 8.05155 10.3242 8.15 10H6.731L5.955 11.707C5.89823 11.8247 5.79765 11.9155 5.67479 11.9599C5.55192 12.0044 5.41653 11.999 5.2976 11.9449C5.17866 11.8908 5.08563 11.7923 5.03842 11.6704C4.99121 11.5486 4.99358 11.4131 5.045 11.293L7.545 5.793C7.58477 5.70571 7.64882 5.6317 7.72949 5.5798C7.81017 5.5279 7.90407 5.5003 8 5.5003C8.09593 5.5003 8.18983 5.5279 8.27051 5.5798C8.35118 5.6317 8.41523 5.70571 8.455 5.793L9.5135 8.1215C10.0966 7.71629 10.7899 7.49939 11.5 7.5H15V5.5C14.9992 4.8372 14.7356 4.20178 14.2669 3.73311C13.7982 3.26444 13.1628 3.00079 12.5 3Z" fill="#101035"/>
</svg>
