<svg width="135" height="135" viewBox="0 0 135 135" fill="none" xmlns="http://www.w3.org/2000/svg">
<g clip-path="url(#clip0_68_6643)">
<path d="M98.6729 56.0944C97.2211 42.6208 86.6203 31.9556 73.1556 30.4228C69.1035 29.9464 64.9963 30.3415 61.1093 31.5817C57.2223 32.8219 53.6452 34.8786 50.6179 37.6139C46.9751 40.8736 44.2178 45.0032 42.6033 49.6171C40.9889 54.2311 40.5699 59.1789 41.3855 63.9986C42.2012 68.8183 44.2248 73.3527 47.2676 77.1785C50.3103 81.0043 54.2729 83.9967 58.7853 85.8763C59.2239 86.0608 59.598 86.3711 59.8605 86.7679C60.123 87.1647 60.2622 87.6303 60.2606 88.1061V95.0151L63.6595 98.4359C64.3661 99.1346 64.7947 100.066 64.8657 101.057C64.9366 102.048 64.6451 103.032 64.0453 103.824L61.0344 107.845L63.6598 110.497C64.3663 111.195 64.795 112.127 64.8659 113.118C64.9369 114.109 64.6454 115.092 64.0456 115.884L60.7911 120.228C60.4485 120.682 60.2609 121.234 60.2558 121.802C60.258 122.185 60.3422 122.563 60.5027 122.91C60.6632 123.257 60.8963 123.566 61.1863 123.815L69.9035 131.269L79.5462 122.996V88.0747C79.5463 87.5977 79.6879 87.1314 79.9531 86.7349C80.2183 86.3384 80.5951 86.0295 81.036 85.8472C83.5649 84.7965 85.9324 83.3932 88.0681 81.6791C91.8455 78.6512 94.7978 74.719 96.6515 70.2467C98.5053 65.7745 99.2005 60.9068 98.6729 56.0944ZM74.725 119.445C74.725 120.085 74.471 120.698 74.0189 121.15C73.5668 121.602 72.9536 121.856 72.3143 121.856C71.6749 121.856 71.0617 121.602 70.6096 121.15C70.1575 120.698 69.9035 120.085 69.9035 119.445V86.8233C69.9035 86.184 70.1575 85.5708 70.6096 85.1187C71.0617 84.6666 71.6749 84.4126 72.3143 84.4126C72.9536 84.4126 73.5668 84.6666 74.0189 85.1187C74.471 85.5708 74.725 86.184 74.725 86.8233V119.445ZM69.9035 56.7667C64.5779 56.7667 60.2608 52.4494 60.2608 47.124C60.2608 41.7987 64.5782 37.4813 69.9035 37.4813C75.2289 37.4813 79.5462 41.7987 79.5462 47.124C79.5462 52.4494 75.2292 56.7667 69.9035 56.7667Z" fill="#F9A915"/>
<path d="M115.591 33.0214C115.111 32.9243 114.672 32.6831 114.332 32.3299C113.992 31.9768 113.768 31.5284 113.689 31.0446C112.893 26.2188 110.874 21.6775 107.824 17.8541C104.774 14.0307 100.795 11.0527 96.2664 9.20438C91.7381 7.35607 86.8117 6.69908 81.9573 7.29612C77.1029 7.89317 72.4825 9.72431 68.537 12.6148C68.045 12.9771 67.4337 13.139 66.8269 13.0678C66.22 12.9966 65.6629 12.6977 65.268 12.2314C58.686 4.5159 47.9933 1.7194 38.4764 5.22412C28.9595 8.72883 22.6351 17.793 22.6298 27.9346C22.6298 28.7061 22.6757 29.4557 22.7408 30.2056C22.7947 30.8184 22.6122 31.4287 22.2308 31.9114C21.8494 32.3941 21.2979 32.7127 20.6892 32.802C8.14081 34.6485 -0.856436 45.8656 0.0648303 58.5157C0.986096 71.1658 11.5132 80.9612 24.1968 80.9702H44.1092C32.5578 67.2907 33.6989 46.9711 46.7093 34.6709C59.7196 22.3706 80.071 22.3706 93.0813 34.6709C106.092 46.9711 107.233 67.2904 95.6814 80.9702H110.789C123.226 80.967 133.639 71.5429 134.878 59.1677C136.118 46.7929 127.781 35.4909 115.591 33.0214ZM22.085 42.3437C14.9488 43.4282 9.66588 49.5488 9.63608 56.767C9.63608 57.4064 9.38209 58.0196 8.92999 58.4717C8.47789 58.9238 7.86471 59.1778 7.22534 59.1778C6.58597 59.1778 5.97279 58.9238 5.52069 58.4717C5.06858 58.0196 4.8146 57.4064 4.8146 56.767C4.85573 47.1599 11.8897 39.0151 21.3882 37.5755C21.8132 37.4997 22.2508 37.5394 22.6552 37.6905C23.0596 37.8416 23.4161 38.0985 23.6873 38.4344C23.9585 38.7703 24.1346 39.1729 24.1971 39.6001C24.2595 40.0273 24.2062 40.4634 24.0425 40.8629C23.8787 41.2624 23.6107 41.6106 23.2663 41.8711C22.922 42.1315 22.514 42.2948 22.085 42.3437Z" fill="#101035"/>
<path d="M74.6418 47.8876C75.0676 45.259 73.2818 42.783 70.6532 42.3573C68.0247 41.9315 65.5487 43.7173 65.1229 46.3459C64.6972 48.9745 66.4829 51.4505 69.1115 51.8762C71.7401 52.3019 74.2161 50.5162 74.6418 47.8876Z" fill="#F9A915"/>
</g>
<defs>
<clipPath id="clip0_68_6643">
<rect width="135" height="135" fill="white"/>
</clipPath>
</defs>
</svg>
