<svg width="24" height="24" viewBox="0 0 24 24" fill="none" xmlns="http://www.w3.org/2000/svg">
<g clip-path="url(#clip0_1_8693)">
<path d="M14.9999 13.0001C14.4469 13.0001 13.9999 13.4482 13.9999 14V18.0001C13.9999 18.5511 13.5519 19 12.9998 19H9.99984V4.00019C9.99984 3.14618 9.45586 2.38321 8.6379 2.09919L8.34184 2.00015H12.9998C13.5519 2.00015 13.9999 2.44911 13.9999 3.00026V6.00023C13.9999 6.55209 14.4469 7.00016 14.9999 7.00016C15.5528 7.00016 15.9998 6.55209 15.9998 6.00023V3.00026C15.9998 1.34629 14.6538 0.000291015 12.9998 0.000291015H2.24998C2.21192 0.000291015 2.18004 0.0173065 2.14306 0.0222752C2.09487 0.018244 2.04893 0.000244141 2.00004 0.000244141C0.897038 0.000291015 0 0.897188 0 2.00019V20C0 20.854 0.543979 21.617 1.36194 21.901L7.37993 23.9071C7.58393 23.97 7.7868 24.0001 7.99994 24.0001C9.10294 24.0001 9.99979 23.103 9.99979 22V21.0001H12.9998C14.6537 21.0001 15.9997 19.6541 15.9997 18.0001V14C15.9997 13.4482 15.5528 13.0001 14.9998 13.0001H14.9999Z" fill="#101035"/>
<path d="M23.7067 9.29318L19.7067 5.29328C19.5669 5.15333 19.3887 5.058 19.1947 5.01934C19.0007 4.98068 18.7996 5.00044 18.6168 5.07611C18.2438 5.23122 17.9998 5.59613 17.9998 6.00024V9.00021H13.9999C13.4478 9.00021 12.9998 9.4481 12.9998 10.0001C12.9998 10.5522 13.4478 11.0001 13.9999 11.0001H17.9998V14C17.9998 14.4041 18.2438 14.7691 18.6168 14.9242C18.7996 14.9998 19.0007 15.0196 19.1947 14.981C19.3887 14.9423 19.5668 14.847 19.7067 14.7071L23.7067 10.7071C24.0977 10.3162 24.0977 9.68411 23.7067 9.29318Z" fill="#101035"/>
</g>
<defs>
<clipPath id="clip0_1_8693">
<rect width="24" height="24" fill="white"/>
</clipPath>
</defs>
</svg>
