<svg width="21" height="21" viewBox="0 0 21 21" fill="none" xmlns="http://www.w3.org/2000/svg">
<circle cx="10.5" cy="10.5" r="10.5" fill="white"/>
<path fill-rule="evenodd" clip-rule="evenodd" d="M10 18C10.6088 18 13.5079 14.5006 14.2227 13.3859C15.3216 11.6724 16 10.6587 16 8.76706C16 5.582 13.3137 3 10 3C6.68629 3 4 5.582 4 8.76706C4 10.6685 4.62863 11.6755 5.72383 13.3859C6.48716 14.5781 9.39121 18 10 18ZM9.99999 11.6506C11.6568 11.6506 13 10.3596 13 8.76708C13 7.17455 11.6568 5.88354 9.99999 5.88354C8.34314 5.88354 6.99999 7.17455 6.99999 8.76708C6.99999 10.3596 8.34314 11.6506 9.99999 11.6506Z" fill="#BD0F0F"/>
</svg>
