<svg width="50" height="31" viewBox="0 0 50 31" fill="none" xmlns="http://www.w3.org/2000/svg">
    <path d="M31.799 27.3249H18.3047V3.27252H31.799V27.3249Z" fill="#FF5F00"/>
    <path d="M19.0625 15.4537C19.0625 10.5745 21.3658 6.22833 24.9528 3.42747C22.3297 1.37934 19.0193 0.156874 15.4216 0.156874C6.90425 0.156874 0 7.00538 0 15.4537C0 23.902 6.90425 30.7505 15.4216 30.7505C19.0193 30.7505 22.3297 29.528 24.9528 27.4799C21.3658 24.679 19.0625 20.3328 19.0625 15.4537Z" fill="#ED2505"/>
    <path d="M50.0006 15.2968C50.0006 23.7451 43.0964 30.5936 34.5791 30.5936C30.9813 30.5936 27.6709 29.3712 25.0469 27.323C28.6348 24.5222 30.9382 20.176 30.9382 15.2968C30.9382 10.4177 28.6348 6.07147 25.0469 3.27061C27.6709 1.22248 30.9813 1.33514e-05 34.5791 1.33514e-05C43.0964 1.33514e-05 50.0006 6.84852 50.0006 15.2968Z" fill="#FFB800"/>
</svg>
