<svg width="40" height="27" viewBox="0 0 40 27" fill="none" xmlns="http://www.w3.org/2000/svg">
    <rect width="40" height="26.6667" rx="8" fill="white"/>
    <path d="M33.3333 13.2403C33.3333 17.7954 29.648 21.4807 25.093 21.4807C23.1702 21.4807 21.4077 20.8169 20.0114 19.7182C21.9342 18.2074 23.1473 15.8727 23.1473 13.2403C23.1473 10.608 21.9113 8.27325 20.0114 6.76252C21.4077 5.66381 23.1702 5 25.093 5C29.648 5 33.3333 8.70816 33.3333 13.2403Z" fill="#F79E1B"/>
    <path d="M20.0114 6.76252C20.0114 6.76252 20.0114 6.76252 20.0114 6.76252C21.9113 8.27325 23.1473 10.608 23.1473 13.2403C23.1473 15.8727 21.9342 18.2074 20.0114 19.7182L19.9884 19.7182C18.0886 18.2303 16.8526 15.8727 16.8526 13.2404C16.8526 10.6081 18.0886 8.2733 19.9885 6.76257C19.9885 6.76255 19.9885 6.76258 19.9885 6.76257L20.0114 6.76252Z" fill="#FF5F00"/>
    <path d="M16.8526 13.2404C16.8526 10.6081 18.0886 8.2733 19.9885 6.76257C18.5922 5.66386 16.8297 5.00004 14.907 5.00004C10.3519 5.00004 6.66663 8.6853 6.66663 13.2404C6.66663 17.7955 10.3519 21.4807 14.907 21.4807C16.8297 21.4807 18.5922 20.8169 19.9884 19.7182C18.0886 18.2303 16.8526 15.8727 16.8526 13.2404Z" fill="#EB001B"/>
</svg>
