<svg width="32" height="32" viewBox="0 0 32 32" fill="none" xmlns="http://www.w3.org/2000/svg">
<path fill-rule="evenodd" clip-rule="evenodd" d="M16 32C24.8366 32 32 24.8366 32 16C32 7.16344 24.8366 0 16 0C7.16344 0 0 7.16344 0 16C0 24.8366 7.16344 32 16 32Z" fill="#101035"/>
<rect x="4.80017" y="4.79999" width="22.4" height="22.4" fill="#FF0000" fill-opacity="0.01"/>
<path fill-rule="evenodd" clip-rule="evenodd" d="M19.5023 23.6461C18.4297 24.0855 17.2451 24.3311 16.0002 24.3311C11.0506 24.3311 7.04016 20.4627 7.04016 15.6855C7.04016 10.9126 11.0506 7.03998 16.0002 7.03998C20.9497 7.03998 24.9602 10.9126 24.9515 15.6941C24.9515 17.4129 24.4303 19.0154 23.53 20.3637C23.4912 20.4111 23.4568 20.4671 23.4223 20.5231C23.3189 20.7083 23.2543 20.9237 23.2543 21.152L24.2063 24.96L20.5879 23.6289C20.4285 23.56 20.2519 23.5255 20.0666 23.5255C19.8986 23.5255 19.7349 23.5557 19.5842 23.6117C19.5842 23.616 19.5799 23.616 19.5755 23.616C19.5497 23.6246 19.5282 23.6332 19.5023 23.6461ZM21.514 16C21.514 15.2375 20.898 14.6215 20.1355 14.6215C19.3731 14.6215 18.7571 15.2375 18.7571 16C18.7571 16.7624 19.3731 17.3784 20.1355 17.3784C20.898 17.3784 21.514 16.7624 21.514 16ZM16.0002 14.6215C16.7626 14.6215 17.3786 15.2375 17.3786 16C17.3786 16.7624 16.7626 17.3784 16.0002 17.3784C15.2377 17.3784 14.6217 16.7624 14.6217 16C14.6217 15.2375 15.2377 14.6215 16.0002 14.6215ZM13.2432 16C13.2432 15.2375 12.6272 14.6215 11.8648 14.6215C11.1023 14.6215 10.4863 15.2375 10.4863 16C10.4863 16.7624 11.1023 17.3784 11.8648 17.3784C12.6272 17.3784 13.2432 16.7624 13.2432 16Z" fill="black"/>
<mask id="mask0_12_5009" style="mask-type:luminance" maskUnits="userSpaceOnUse" x="7" y="7" width="18" height="18">
<path fill-rule="evenodd" clip-rule="evenodd" d="M19.5023 23.6461C18.4297 24.0855 17.2451 24.3311 16.0002 24.3311C11.0506 24.3311 7.04016 20.4627 7.04016 15.6855C7.04016 10.9126 11.0506 7.03998 16.0002 7.03998C20.9497 7.03998 24.9602 10.9126 24.9515 15.6941C24.9515 17.4129 24.4303 19.0154 23.53 20.3637C23.4912 20.4111 23.4568 20.4671 23.4223 20.5231C23.3189 20.7083 23.2543 20.9237 23.2543 21.152L24.2063 24.96L20.5879 23.6289C20.4285 23.56 20.2519 23.5255 20.0666 23.5255C19.8986 23.5255 19.7349 23.5557 19.5842 23.6117C19.5842 23.616 19.5799 23.616 19.5755 23.616C19.5497 23.6246 19.5282 23.6332 19.5023 23.6461ZM21.514 16C21.514 15.2375 20.898 14.6215 20.1355 14.6215C19.3731 14.6215 18.7571 15.2375 18.7571 16C18.7571 16.7624 19.3731 17.3784 20.1355 17.3784C20.898 17.3784 21.514 16.7624 21.514 16ZM16.0002 14.6215C16.7626 14.6215 17.3786 15.2375 17.3786 16C17.3786 16.7624 16.7626 17.3784 16.0002 17.3784C15.2377 17.3784 14.6217 16.7624 14.6217 16C14.6217 15.2375 15.2377 14.6215 16.0002 14.6215ZM13.2432 16C13.2432 15.2375 12.6272 14.6215 11.8648 14.6215C11.1023 14.6215 10.4863 15.2375 10.4863 16C10.4863 16.7624 11.1023 17.3784 11.8648 17.3784C12.6272 17.3784 13.2432 16.7624 13.2432 16Z" fill="white"/>
</mask>
<g mask="url(#mask0_12_5009)">
<rect x="4.80017" y="4.79999" width="22.4" height="22.4" fill="white"/>
</g>
</svg>
