<svg width="22" height="22" viewBox="0 0 22 22" fill="none" xmlns="http://www.w3.org/2000/svg">
<path d="M11.0002 0.00146794C5.05529 -0.115749 0.136042 4.59854 0.000305176 10.543C0.0158167 13.5689 1.35569 16.4364 3.66691 18.3895V21.5428C3.66691 21.7959 3.87212 22.0012 4.12525 22.0012C4.21114 22.0012 4.29532 21.977 4.36815 21.9315L6.92286 20.3356C8.22445 20.8335 9.60661 21.0873 11.0002 21.0845C16.945 21.2017 21.8643 16.4874 22 10.543C21.8643 4.59855 16.945 -0.115749 11.0002 0.00146794Z" fill="#2196F3"/>
<path d="M18.2417 7.51801C18.1053 7.33522 17.8553 7.28053 17.6551 7.38967L12.8885 9.98838L9.92313 7.44557C9.74129 7.28968 9.47007 7.30003 9.30073 7.46941L3.80081 12.9693C3.62236 13.1489 3.62322 13.4391 3.80279 13.6175C3.94634 13.7602 4.16647 13.7918 4.3444 13.6953L9.11099 11.0966L12.0791 13.6403C12.2609 13.7962 12.5322 13.7859 12.7015 13.6165L18.2014 8.11656C18.3617 7.95478 18.3789 7.69985 18.2417 7.51801Z" fill="#FAFAFA"/>
</svg>
