<svg width="24" height="24" viewBox="0 0 24 24" fill="none" xmlns="http://www.w3.org/2000/svg">
<g clip-path="url(#clip0_1_7883)">
<path d="M19.3209 15.1378V10.3467C19.3209 7.24352 17.4297 4.50636 14.7088 3.3879C14.7543 3.18773 14.7775 2.98314 14.7779 2.77787C14.7779 1.24452 13.5334 0 12.0001 0C10.4669 0 9.22228 1.24452 9.22228 2.77787C9.22228 2.97715 9.24666 3.17643 9.28737 3.36758C6.58679 4.44946 4.67934 7.08901 4.67934 10.1718V15.1378C4.67934 15.7641 4.17097 16.2725 3.54462 16.2725C2.48312 16.2725 1.53549 17.0493 1.43382 18.1068C1.31995 19.3188 2.27165 20.3397 3.45927 20.3397H20.5412C21.7288 20.3397 22.6805 19.3188 22.5666 18.1068C22.4649 17.0494 21.5173 16.2725 20.4558 16.2725C19.8293 16.2725 19.3209 15.7641 19.3209 15.1378ZM13.1349 2.94457C12.8502 2.89986 12.5614 2.86728 12.2686 2.85509C11.7991 2.83951 11.3292 2.86947 10.8654 2.94457C10.8573 2.89167 10.8492 2.83883 10.8492 2.78186C10.8492 2.14738 11.3657 1.63089 12.0001 1.63089C12.6346 1.63089 13.1511 2.14738 13.1511 2.78186C13.1511 2.83883 13.143 2.89173 13.1349 2.94457ZM14.8308 21.4743C14.8471 21.3035 14.717 21.153 14.5461 21.153H9.45414C9.28331 21.153 9.15318 21.3036 9.17351 21.4743C9.33214 22.8937 10.536 24 12.0001 24C13.4643 24 14.6681 22.8937 14.8308 21.4743Z" fill="#101035"/>
</g>
<defs>
<clipPath id="clip0_1_7883">
<rect width="24" height="24" fill="white"/>
</clipPath>
</defs>
</svg>
