<svg width="24" height="24" viewBox="0 0 24 24" fill="none" xmlns="http://www.w3.org/2000/svg">
<g clip-path="url(#clip0_88_9151)">
<path d="M19.7425 15.1781V10.6181C19.7425 7.23097 17.5748 4.27744 14.5902 3.17422C14.6251 3.00001 14.6444 2.82198 14.6444 2.64388C14.6445 1.18454 13.4599 0 12.0006 0C10.5412 0 9.35671 1.18454 9.35671 2.64388C9.35671 2.8181 9.37603 2.99225 9.407 3.15871C8.38122 3.52259 7.43283 4.09935 6.62381 4.88128C5.09866 6.35226 4.25867 8.33031 4.25867 10.4516V15.1781C4.25867 15.3445 4.12318 15.4839 3.95284 15.4839C2.52446 15.4839 1.30508 16.56 1.17346 17.9304C1.0999 18.693 1.35155 19.4516 1.86638 20.0168C2.37733 20.5781 3.10897 20.9033 3.87152 20.9033H8.53993C8.73347 22.6414 10.2122 24.0001 12.0006 24.0001C13.789 24.0001 15.2677 22.6414 15.4613 20.9033H20.1297C20.8923 20.9033 21.6238 20.5781 22.1348 20.0168C22.6457 19.4516 22.8974 18.693 22.8277 17.9304C22.6961 16.56 21.4729 15.4839 20.0483 15.4839C20.0081 15.4841 19.9682 15.4764 19.931 15.4611C19.8938 15.4458 19.86 15.4233 19.8316 15.3948C19.8031 15.3664 19.7806 15.3326 19.7653 15.2954C19.75 15.2582 19.7423 15.2183 19.7425 15.1781ZM12.0006 1.54836C12.6044 1.54836 13.096 2.03998 13.096 2.64382C13.096 2.69411 13.0883 2.74059 13.0805 2.79088C12.8173 2.75216 12.5502 2.72508 12.2831 2.71732C11.8224 2.7018 11.3695 2.73283 10.9205 2.79476C10.9128 2.74447 10.905 2.69799 10.905 2.6477C10.9051 2.03998 11.3967 1.54836 12.0006 1.54836ZM12.0006 22.4516C11.0677 22.4516 10.2858 21.7857 10.1038 20.9032H13.8973C13.7155 21.7858 12.9335 22.4516 12.0006 22.4516ZM21.2871 18.0774C21.318 18.4103 21.2135 18.7316 20.9929 18.9755C20.7645 19.2194 20.4625 19.3548 20.1297 19.3548H3.87158C3.53866 19.3548 3.23677 19.2193 3.0122 18.9755C2.78769 18.7316 2.68316 18.4103 2.71413 18.0774C2.7683 17.4929 3.31415 17.0323 3.95284 17.0323C4.9748 17.0323 5.80703 16.2 5.80703 15.1781V10.4516C5.80703 8.75612 6.48056 7.17292 7.69994 5.99614C8.86509 4.86971 10.3825 4.25805 12.0006 4.25805C12.078 4.25805 12.1515 4.25805 12.229 4.26193C15.5154 4.37803 18.1942 7.23097 18.1942 10.6181V15.1781C18.1942 16.2 19.0264 17.0323 20.0483 17.0323C20.687 17.0323 21.229 17.4929 21.2871 18.0774Z" fill="#737373"/>
</g>
<defs>
<clipPath id="clip0_88_9151">
<rect width="24" height="24" fill="white"/>
</clipPath>
</defs>
</svg>
