<svg width="40" height="27" viewBox="0 0 40 27" fill="none" xmlns="http://www.w3.org/2000/svg">
    <rect width="40" height="27" rx="8" fill="white"/>
    <path d="M9.30552 9.47847C8.91266 9.15975 8.40001 9 7.76758 9H5.31912C5.12524 9 5.01813 9.11443 4.99778 9.34301L4.00312 16.711C3.99278 16.7833 4.00813 16.8495 4.04901 16.9097C4.08965 16.97 4.14078 17 4.20201 17H5.36501C5.56899 17 5.68111 16.8858 5.70169 16.6569L5.9771 14.6705C5.98715 14.5743 6.02303 14.496 6.08426 14.4357C6.14544 14.3756 6.22196 14.3361 6.31378 14.3182C6.4056 14.3003 6.49218 14.2913 6.57394 14.2913C6.65547 14.2913 6.75234 14.2973 6.86474 14.3093C6.97685 14.3214 7.04832 14.3272 7.07896 14.3272C7.95626 14.3272 8.64488 14.0355 9.14485 13.4514C9.64459 12.8676 9.89474 12.058 9.89474 11.0224C9.89474 10.3121 9.69819 9.79746 9.30552 9.47824V9.47847ZM8.04308 11.6908C7.99191 12.1123 7.85944 12.3891 7.64521 12.5215C7.43094 12.6542 7.12489 12.7201 6.72708 12.7201L6.22205 12.7382L6.48226 10.8058C6.50256 10.6735 6.56884 10.6073 6.68115 10.6073H6.97199C7.37986 10.6073 7.6759 10.6767 7.85953 10.8149C8.04308 10.9534 8.1043 11.2456 8.04308 11.6908Z" fill="#003087"/>
    <path d="M35.8019 9H34.6759C34.5641 9 34.4982 9.06624 34.4781 9.19866L33.4889 16.7111L33.4736 16.7472C33.4736 16.8077 33.494 16.8646 33.5346 16.9188C33.575 16.9728 33.6259 17 33.6868 17H34.6912C34.8837 17 34.9903 16.8859 35.0108 16.6569L35.9999 9.27091V9.25297C35.9999 9.08445 35.9337 9.00017 35.8019 9.00017V9Z" fill="#009CDE"/>
    <path d="M21.6842 12.2456C21.6842 12.1873 21.6627 12.1316 21.6202 12.079C21.5774 12.0264 21.5293 12 21.476 12H20.2426C20.1249 12 20.0289 12.0588 19.9542 12.1754L18.2563 14.9124L17.5515 12.2808C17.4979 12.0937 17.3805 12 17.1991 12H15.9976C15.9441 12 15.896 12.0264 15.8535 12.079C15.8107 12.1316 15.7894 12.1873 15.7894 12.2456C15.7894 12.2692 15.8936 12.614 16.1018 13.2807C16.3099 13.9475 16.5342 14.6668 16.7745 15.4387C17.0149 16.2106 17.1402 16.6201 17.151 16.6666C16.2752 17.9766 15.8375 18.6785 15.8375 18.7719C15.8375 18.9241 15.9069 19 16.0457 19H17.2791C17.3966 19 17.4927 18.9417 17.5675 18.8246L21.6523 12.3683C21.6735 12.3451 21.6842 12.3043 21.6842 12.2455V12.2456Z" fill="#003087"/>
    <path d="M33.2658 11.1355H32.0685C31.9214 11.1355 31.8324 11.3484 31.8009 11.7743C31.5275 11.2584 31.029 11 30.3042 11C29.548 11 28.9047 11.3484 28.3745 12.0452C27.8441 12.742 27.579 13.5615 27.579 14.5033C27.579 15.2648 27.7601 15.8711 28.1224 16.3226C28.4846 16.7745 28.9703 17 29.5797 17C29.8841 17 30.1939 16.9224 30.509 16.7677C30.8241 16.6129 31.0707 16.4066 31.2495 16.1484C31.2495 16.1614 31.2388 16.2193 31.218 16.3225C31.1968 16.4259 31.1865 16.5035 31.1865 16.5547C31.1865 16.7614 31.2546 16.8643 31.3913 16.8643H32.4783C32.6776 16.8643 32.7933 16.742 32.8247 16.4966L33.4706 11.4451C33.481 11.3677 33.4653 11.2968 33.4234 11.2322C33.3812 11.1679 33.3288 11.1355 33.2658 11.1355ZM31.2101 14.9484C30.9422 15.271 30.6193 15.4323 30.2413 15.4323C29.9366 15.4323 29.69 15.3292 29.5009 15.1227C29.3117 14.9166 29.2172 14.6327 29.2172 14.271C29.2172 13.794 29.3485 13.3905 29.6111 13.0614C29.8734 12.7324 30.1992 12.5679 30.5878 12.5679C30.8816 12.5679 31.1258 12.6744 31.3203 12.8872C31.5144 13.1001 31.6118 13.3937 31.6118 13.7679C31.6118 14.2324 31.4778 14.626 31.2101 14.9484Z" fill="#009CDE"/>
    <path d="M15.552 11.1355H14.1837C14.0155 11.1355 13.9137 11.3484 13.8776 11.7743C13.5535 11.2584 12.9834 11 12.1672 11C11.3031 11 10.5678 11.3484 9.96176 12.0452C9.35555 12.742 9.05261 13.5615 9.05261 14.5033C9.05261 15.2648 9.25969 15.8711 9.67379 16.3226C10.0879 16.7745 10.6429 17 11.3391 17C11.675 17 12.0233 16.9224 12.3833 16.7677C12.7433 16.6129 13.0314 16.4066 13.2475 16.1484C13.1993 16.3032 13.1754 16.4387 13.1754 16.5547C13.1754 16.7614 13.2534 16.8643 13.4095 16.8643H14.6517C14.8796 16.8643 15.0118 16.742 15.0478 16.4966L15.7859 11.4451C15.7978 11.3677 15.7798 11.2968 15.732 11.2322C15.6839 11.1679 15.624 11.1355 15.552 11.1355ZM13.2025 14.958C12.8964 15.2746 12.5211 15.4323 12.0773 15.4323C11.729 15.4323 11.45 15.3292 11.2401 15.1227C11.0299 14.9166 10.925 14.6327 10.925 14.271C10.925 13.794 11.075 13.3905 11.3751 13.0614C11.675 12.7324 12.0471 12.5679 12.4914 12.5679C12.8273 12.5679 13.1063 12.6744 13.3286 12.8872C13.5505 13.1001 13.6616 13.3938 13.6616 13.768C13.6616 14.2453 13.5086 14.6422 13.2025 14.958Z" fill="#003087"/>
    <path d="M26.9899 9.47847C26.597 9.15975 26.0845 9 25.4519 9H23.0187C22.8146 9 22.7023 9.11443 22.6821 9.34301L21.6873 16.711C21.677 16.7834 21.6923 16.8496 21.7332 16.9097C21.7737 16.97 21.825 17 21.8862 17H23.141C23.2634 17 23.345 16.9218 23.3859 16.7653L23.6614 14.6705C23.6715 14.5743 23.7072 14.496 23.7685 14.4357C23.8297 14.3756 23.9062 14.3362 23.9981 14.3182C24.0898 14.3003 24.1764 14.2913 24.2582 14.2913C24.3398 14.2913 24.4366 14.2973 24.5489 14.3093C24.6611 14.3214 24.7328 14.3272 24.7631 14.3272C25.6406 14.3272 26.3291 14.0355 26.8291 13.4514C27.329 12.8676 27.5789 12.058 27.5789 11.0224C27.579 10.3122 27.3825 9.79752 26.9899 9.4783V9.47847ZM25.4213 12.4493C25.1968 12.6298 24.8601 12.7201 24.4113 12.7201L23.9216 12.7382L24.1818 10.8058C24.202 10.6735 24.2682 10.6073 24.3806 10.6073H24.656C24.8804 10.6073 25.0589 10.6193 25.1918 10.6433C25.3242 10.6676 25.4519 10.7426 25.5743 10.869C25.6968 10.9955 25.758 11.1791 25.758 11.4199C25.758 11.9256 25.6456 12.2686 25.4213 12.4493Z" fill="#009CDE"/>
</svg>
