<svg width="20" height="20" viewBox="0 0 20 20" fill="none" xmlns="http://www.w3.org/2000/svg">
<rect width="20" height="20" fill="#FF0000" fill-opacity="0.01"/>
<path fill-rule="evenodd" clip-rule="evenodd" d="M17.5463 10.5576L17.7943 10.8883C18.1711 11.394 18.0094 12.1095 17.4476 12.4126L17.0806 12.6099C16.6841 12.8277 16.469 13.2676 16.5517 13.7085L16.6281 14.1102C16.7437 14.7253 16.2815 15.3022 15.6433 15.3377L15.2265 15.3608C14.7705 15.3866 14.3803 15.6941 14.2612 16.1252L14.1519 16.5207C13.9839 17.126 13.3128 17.4504 12.7209 17.2105L12.3342 17.0549C11.9147 16.8825 11.4285 16.9963 11.1281 17.3331L10.8535 17.6407C10.4339 18.1144 9.68732 18.1206 9.26068 17.654L8.98337 17.3491C8.67584 17.0158 8.18965 16.9092 7.77013 17.0869L7.38704 17.2487C6.79864 17.4949 6.12491 17.1838 5.94626 16.5812L5.83071 16.1857C5.70539 15.7546 5.31164 15.4533 4.85567 15.4337L4.43882 15.4177C3.79797 15.3919 3.32868 14.8213 3.43445 14.2027L3.50377 13.7974C3.57932 13.3574 3.36156 12.9166 2.95804 12.7059L2.58828 12.5113C2.02299 12.2171 1.85145 11.5042 2.2212 10.9923L2.46207 10.6589C2.72605 10.2954 2.71983 9.80656 2.45229 9.44392L2.20431 9.11328C1.82745 8.60754 1.98922 7.89204 2.5474 7.58717L2.91448 7.38985C3.3109 7.17298 3.52599 6.73212 3.44422 6.29127L3.36778 5.88952C3.25224 5.27445 3.71442 4.69761 4.3526 4.66205L4.76857 4.63894C5.22542 4.61317 5.61473 4.30563 5.73383 3.87455L5.84316 3.47903C6.01115 2.87374 6.68221 2.54932 7.27416 2.7893L7.6608 2.94484C8.08033 3.11639 8.56651 3.00351 8.86694 2.66664L9.14158 2.35822C9.56111 1.88537 10.3086 1.87915 10.7379 2.34844L11.0152 2.65331C11.3228 2.98662 11.8089 3.09328 12.2285 2.91551L12.6115 2.75375C13.2 2.50754 13.8737 2.81863 14.0523 3.42125L14.1679 3.81678C14.2932 4.24786 14.687 4.54917 15.1429 4.56873L15.5598 4.58472C16.2006 4.6105 16.6699 5.18113 16.5641 5.79975L16.4948 6.20505C16.4193 6.64502 16.637 7.08587 17.0406 7.29653L17.4103 7.49118C17.9756 7.78538 18.1471 8.49822 17.7774 9.01018L17.5365 9.34349C17.2725 9.70613 17.2788 10.195 17.5463 10.5576ZM10.8241 13.3761C11.2774 13.2534 11.6676 13.0134 11.968 12.657C12.7973 11.6695 12.48 10.2208 11.313 9.57636C10.9985 9.40551 10.6692 9.2726 10.3377 9.13879C10.2795 9.11528 10.2212 9.09173 10.1628 9.06795C9.93797 8.97729 9.72021 8.87063 9.53178 8.72131C9.15491 8.42978 9.2278 7.95337 9.66688 7.76582C9.78953 7.71338 9.92197 7.69383 10.0544 7.68761C10.5628 7.66183 11.0454 7.75249 11.505 7.96936C11.7361 8.07958 11.8125 8.04403 11.8889 7.81204C11.9532 7.62057 12.0094 7.42533 12.0655 7.23051C12.0816 7.17483 12.0976 7.11917 12.1138 7.06365C12.1636 6.89478 12.1005 6.78456 11.9387 6.71346C11.6445 6.58636 11.3405 6.49303 11.0232 6.44414C10.6099 6.38334 10.6099 6.37932 10.6065 5.98165L10.6064 5.97129C10.6046 5.68477 10.6037 5.54057 10.5312 5.46799C10.4576 5.39444 10.3106 5.39444 10.0144 5.39444C9.98564 5.39444 9.95696 5.39405 9.92832 5.39365C9.87114 5.39286 9.81409 5.39207 9.75665 5.39444C9.47845 5.40066 9.43223 5.44866 9.42689 5.72153V6.08773C9.4234 6.44423 9.42334 6.44425 9.08725 6.56406C9.08146 6.56612 9.07557 6.56822 9.06959 6.57036C8.21632 6.87522 7.68747 7.44496 7.63147 8.35867C7.5817 9.16839 8.011 9.71235 8.68917 10.1114C8.97781 10.2823 9.28913 10.4047 9.60056 10.5273C9.73795 10.5813 9.87536 10.6354 10.0109 10.6936C10.1824 10.7674 10.3477 10.8554 10.4935 10.9718C10.9201 11.3158 10.841 11.8891 10.3353 12.1059C10.0642 12.2224 9.7762 12.2517 9.48556 12.2162C9.03315 12.1611 8.5994 12.0446 8.19321 11.8375C7.955 11.7175 7.88567 11.7504 7.80301 12.0028C7.748 12.1692 7.70026 12.3387 7.65264 12.5078C7.63794 12.56 7.62325 12.6121 7.60836 12.6641C7.5257 12.9628 7.55503 13.0339 7.84301 13.1699C8.21009 13.345 8.60295 13.4356 9.00648 13.497C9.32024 13.5458 9.33001 13.5583 9.33357 13.8792C9.33357 14.0214 9.33357 14.1671 9.33712 14.3129C9.34068 14.4942 9.42956 14.6009 9.62155 14.6044C9.83931 14.6107 10.058 14.6107 10.2757 14.6044C10.4544 14.6009 10.5468 14.5067 10.5468 14.3289C10.5468 14.2629 10.5479 14.1966 10.549 14.1302C10.5512 13.9973 10.5533 13.8641 10.5468 13.7325C10.5361 13.5316 10.6259 13.4276 10.8241 13.3761Z" fill="black"/>
<mask id="mask0_67_6530" style="mask-type:luminance" maskUnits="userSpaceOnUse" x="2" y="2" width="16" height="16">
<path fill-rule="evenodd" clip-rule="evenodd" d="M17.5463 10.5576L17.7943 10.8883C18.1711 11.394 18.0094 12.1095 17.4476 12.4126L17.0806 12.6099C16.6841 12.8277 16.469 13.2676 16.5517 13.7085L16.6281 14.1102C16.7437 14.7253 16.2815 15.3022 15.6433 15.3377L15.2265 15.3608C14.7705 15.3866 14.3803 15.6941 14.2612 16.1252L14.1519 16.5207C13.9839 17.126 13.3128 17.4504 12.7209 17.2105L12.3342 17.0549C11.9147 16.8825 11.4285 16.9963 11.1281 17.3331L10.8535 17.6407C10.4339 18.1144 9.68732 18.1206 9.26068 17.654L8.98337 17.3491C8.67584 17.0158 8.18965 16.9092 7.77013 17.0869L7.38704 17.2487C6.79864 17.4949 6.12491 17.1838 5.94626 16.5812L5.83071 16.1857C5.70539 15.7546 5.31164 15.4533 4.85567 15.4337L4.43882 15.4177C3.79797 15.3919 3.32868 14.8213 3.43445 14.2027L3.50377 13.7974C3.57932 13.3574 3.36156 12.9166 2.95804 12.7059L2.58828 12.5113C2.02299 12.2171 1.85145 11.5042 2.2212 10.9923L2.46207 10.6589C2.72605 10.2954 2.71983 9.80656 2.45229 9.44392L2.20431 9.11328C1.82745 8.60754 1.98922 7.89204 2.5474 7.58717L2.91448 7.38985C3.3109 7.17298 3.52599 6.73212 3.44422 6.29127L3.36778 5.88952C3.25224 5.27445 3.71442 4.69761 4.3526 4.66205L4.76857 4.63894C5.22542 4.61317 5.61473 4.30563 5.73383 3.87455L5.84316 3.47903C6.01115 2.87374 6.68221 2.54932 7.27416 2.7893L7.6608 2.94484C8.08033 3.11639 8.56651 3.00351 8.86694 2.66664L9.14158 2.35822C9.56111 1.88537 10.3086 1.87915 10.7379 2.34844L11.0152 2.65331C11.3228 2.98662 11.8089 3.09328 12.2285 2.91551L12.6115 2.75375C13.2 2.50754 13.8737 2.81863 14.0523 3.42125L14.1679 3.81678C14.2932 4.24786 14.687 4.54917 15.1429 4.56873L15.5598 4.58472C16.2006 4.6105 16.6699 5.18113 16.5641 5.79975L16.4948 6.20505C16.4193 6.64502 16.637 7.08587 17.0406 7.29653L17.4103 7.49118C17.9756 7.78538 18.1471 8.49822 17.7774 9.01018L17.5365 9.34349C17.2725 9.70613 17.2788 10.195 17.5463 10.5576ZM10.8241 13.3761C11.2774 13.2534 11.6676 13.0134 11.968 12.657C12.7973 11.6695 12.48 10.2208 11.313 9.57636C10.9985 9.40551 10.6692 9.2726 10.3377 9.13879C10.2795 9.11528 10.2212 9.09173 10.1628 9.06795C9.93797 8.97729 9.72021 8.87063 9.53178 8.72131C9.15491 8.42978 9.2278 7.95337 9.66688 7.76582C9.78953 7.71338 9.92197 7.69383 10.0544 7.68761C10.5628 7.66183 11.0454 7.75249 11.505 7.96936C11.7361 8.07958 11.8125 8.04403 11.8889 7.81204C11.9532 7.62057 12.0094 7.42533 12.0655 7.23051C12.0816 7.17483 12.0976 7.11917 12.1138 7.06365C12.1636 6.89478 12.1005 6.78456 11.9387 6.71346C11.6445 6.58636 11.3405 6.49303 11.0232 6.44414C10.6099 6.38334 10.6099 6.37932 10.6065 5.98165L10.6064 5.97129C10.6046 5.68477 10.6037 5.54057 10.5312 5.46799C10.4576 5.39444 10.3106 5.39444 10.0144 5.39444C9.98564 5.39444 9.95696 5.39405 9.92832 5.39365C9.87114 5.39286 9.81409 5.39207 9.75665 5.39444C9.47845 5.40066 9.43223 5.44866 9.42689 5.72153V6.08773C9.4234 6.44423 9.42334 6.44425 9.08725 6.56406C9.08146 6.56612 9.07557 6.56822 9.06959 6.57036C8.21632 6.87522 7.68747 7.44496 7.63147 8.35867C7.5817 9.16839 8.011 9.71235 8.68917 10.1114C8.97781 10.2823 9.28913 10.4047 9.60056 10.5273C9.73795 10.5813 9.87536 10.6354 10.0109 10.6936C10.1824 10.7674 10.3477 10.8554 10.4935 10.9718C10.9201 11.3158 10.841 11.8891 10.3353 12.1059C10.0642 12.2224 9.7762 12.2517 9.48556 12.2162C9.03315 12.1611 8.5994 12.0446 8.19321 11.8375C7.955 11.7175 7.88567 11.7504 7.80301 12.0028C7.748 12.1692 7.70026 12.3387 7.65264 12.5078C7.63794 12.56 7.62325 12.6121 7.60836 12.6641C7.5257 12.9628 7.55503 13.0339 7.84301 13.1699C8.21009 13.345 8.60295 13.4356 9.00648 13.497C9.32024 13.5458 9.33001 13.5583 9.33357 13.8792C9.33357 14.0214 9.33357 14.1671 9.33712 14.3129C9.34068 14.4942 9.42956 14.6009 9.62155 14.6044C9.83931 14.6107 10.058 14.6107 10.2757 14.6044C10.4544 14.6009 10.5468 14.5067 10.5468 14.3289C10.5468 14.2629 10.5479 14.1966 10.549 14.1302C10.5512 13.9973 10.5533 13.8641 10.5468 13.7325C10.5361 13.5316 10.6259 13.4276 10.8241 13.3761Z" fill="white"/>
</mask>
<g mask="url(#mask0_67_6530)">
<rect width="20" height="20" fill="#B5B5C0"/>
</g>
</svg>
