<svg width="25" height="24" viewBox="0 0 25 24" fill="none" xmlns="http://www.w3.org/2000/svg">
<path d="M12.3602 11.5609C13.9484 11.5609 15.3236 10.9912 16.4475 9.86731C17.571 8.74362 18.1408 7.36869 18.1408 5.78029C18.1408 4.19235 17.5712 2.81728 16.4473 1.69317C15.3234 0.569624 13.9483 0 12.3602 0C10.7718 0 9.3968 0.569624 8.27311 1.69336C7.14943 2.81709 6.57957 4.19221 6.57957 5.78029C6.57957 7.36869 7.14938 8.74381 8.27316 9.86754C9.39722 10.9911 10.7724 11.5609 12.3602 11.5609ZM9.26775 2.68781C10.13 1.82554 11.1415 1.40643 12.3602 1.40643C13.5788 1.40643 14.5904 1.82554 15.4528 2.68781C16.3151 3.55021 16.7344 4.56187 16.7344 5.78024C16.7344 6.99899 16.3151 8.0105 15.4528 8.8729C14.5904 9.73536 13.5788 10.1545 12.3602 10.1545C11.1418 10.1545 10.1304 9.73517 9.26775 8.8729C8.4053 8.01069 7.986 6.99903 7.986 5.78029C7.986 4.56187 8.4053 3.55021 9.26775 2.68781ZM22.4748 18.4548C22.4423 17.9872 22.3768 17.477 22.2803 16.9383C22.1829 16.3956 22.0575 15.8825 21.9073 15.4136C21.752 14.9289 21.5413 14.4503 21.2803 13.9916C21.0099 13.5155 20.6921 13.101 20.3353 12.7599C19.9624 12.403 19.5057 12.1161 18.9776 11.9067C18.4514 11.6986 17.8682 11.5931 17.2444 11.5931C16.9993 11.5931 16.7624 11.6936 16.3048 11.9916C15.9796 12.2034 15.6533 12.4137 15.3261 12.6225C15.0118 12.8229 14.5859 13.0106 14.0598 13.1805C13.5465 13.3466 13.0254 13.4308 12.5109 13.4308C11.9968 13.4308 11.4756 13.3466 10.962 13.1805C10.4365 13.0107 10.0104 12.8231 9.69656 12.6227C9.33235 12.39 9.00282 12.1776 8.71697 11.9914C8.25975 11.6935 8.0228 11.5929 7.77783 11.5929C7.15379 11.5929 6.5708 11.6986 6.04473 11.907C5.51701 12.1159 5.06017 12.4028 4.68681 12.7601C4.33014 13.1013 4.01228 13.5157 3.742 13.9916C3.48147 14.4503 3.27053 14.9287 3.11523 15.4138C2.96523 15.8827 2.83984 16.3956 2.74244 16.9383C2.64573 17.4763 2.58039 17.9866 2.54795 18.4554C2.51608 18.9137 2.5 19.3906 2.5 19.8726C2.5 21.1254 2.89825 22.1396 3.68359 22.8876C4.45923 23.6257 5.48537 24 6.73355 24H18.2897C19.5375 24 20.5637 23.6257 21.3395 22.8876C22.125 22.1401 22.5233 21.1256 22.5233 19.8724C22.5231 19.3888 22.5068 18.9118 22.4748 18.4548ZM20.3698 21.8686C19.8573 22.3564 19.1768 22.5935 18.2895 22.5935H6.7336C5.84612 22.5935 5.16568 22.3564 4.65334 21.8688C4.15075 21.3903 3.90648 20.7372 3.90648 19.8726C3.90648 19.4229 3.92129 18.9789 3.95101 18.5526C3.97989 18.1344 4.03904 17.6749 4.12679 17.1868C4.21337 16.7047 4.32357 16.2522 4.45468 15.8426C4.5805 15.4498 4.75206 15.061 4.96482 14.6863C5.16789 14.3292 5.40151 14.0229 5.65932 13.7761C5.90049 13.5452 6.20448 13.3563 6.5626 13.2146C6.89382 13.0834 7.2661 13.0116 7.67021 13.0008C7.71943 13.0271 7.80718 13.077 7.94925 13.1696C8.23838 13.3581 8.57161 13.5731 8.94005 13.8083C9.35536 14.0731 9.89035 14.3122 10.5296 14.5186C11.1831 14.7299 11.8496 14.8372 12.5111 14.8372C13.1727 14.8372 13.8394 14.7299 14.4925 14.5188C15.1323 14.312 15.6671 14.0731 16.083 13.8079C16.46 13.567 16.7839 13.3583 17.073 13.1696C17.2151 13.0772 17.3028 13.027 17.3521 13.0008C17.7564 13.0116 18.1286 13.0834 18.46 13.2145C18.818 13.3563 19.122 13.5454 19.3631 13.7761C19.6209 14.0227 19.8545 14.3291 20.0576 14.6865C20.2706 15.061 20.4424 15.4501 20.5679 15.8425C20.6992 16.2526 20.8096 16.7049 20.8961 17.1866C20.9836 17.6757 21.0429 18.1353 21.0718 18.5528C21.1017 18.9774 21.1167 19.4216 21.1169 19.8726C21.1167 20.7374 20.8724 21.3904 20.3698 21.8686Z" fill="#737373"/>
</svg>
