<svg width="24" height="24" viewBox="0 0 24 24" fill="none" xmlns="http://www.w3.org/2000/svg">
<g clip-path="url(#clip0_1_8675)">
<path d="M21.234 5.45024L19.005 3.22124C18.8412 3.05735 18.6467 2.92734 18.4326 2.83864C18.2186 2.74994 17.9891 2.70428 17.7574 2.70428C17.5257 2.70428 17.2962 2.74994 17.0821 2.83864C16.8681 2.92734 16.6736 3.05735 16.5098 3.22124L14.28 5.45024C14.1161 5.61405 13.9861 5.80855 13.8974 6.02262C13.8087 6.23669 13.7631 6.46614 13.7631 6.69786C13.7631 6.92958 13.8087 7.15903 13.8974 7.3731C13.9861 7.58718 14.1161 7.78167 14.28 7.94549L16.509 10.1745C16.6728 10.3384 16.8673 10.4684 17.0814 10.5571C17.2955 10.6458 17.5249 10.6914 17.7566 10.6914C17.9884 10.6914 18.2178 10.6458 18.4319 10.5571C18.646 10.4684 18.8405 10.3384 19.0043 10.1745L21.2333 7.94549C21.5642 7.61465 21.7501 7.16594 21.7503 6.69802C21.7504 6.23009 21.5647 5.78127 21.234 5.45024ZM18.432 8.45624C18.432 8.63526 18.3609 8.80695 18.2343 8.93353C18.1077 9.06012 17.936 9.13124 17.757 9.13124C17.578 9.13124 17.4063 9.06012 17.2797 8.93353C17.1531 8.80695 17.082 8.63526 17.082 8.45624V8.32124C17.082 8.14222 17.1531 7.97053 17.2797 7.84394C17.4063 7.71735 17.578 7.64624 17.757 7.64624C17.936 7.64624 18.1077 7.71735 18.2343 7.84394C18.3609 7.97053 18.432 8.14222 18.432 8.32124V8.45624ZM18.432 6.53924C18.432 6.71826 18.3609 6.88995 18.2343 7.01653C18.1077 7.14312 17.936 7.21424 17.757 7.21424C17.578 7.21424 17.4063 7.14312 17.2797 7.01653C17.1531 6.88995 17.082 6.71826 17.082 6.53924V4.93949C17.082 4.76047 17.1531 4.58878 17.2797 4.46219C17.4063 4.3356 17.578 4.26449 17.757 4.26449C17.936 4.26449 18.1077 4.3356 18.2343 4.46219C18.3609 4.58878 18.432 4.76047 18.432 4.93949V6.53924Z" fill="#101035"/>
<path d="M17.757 11.817C17.3773 11.818 17.0011 11.7436 16.6503 11.5983C16.2995 11.4529 15.981 11.2395 15.7133 10.9703L13.4843 8.7405C13.1518 8.40999 12.9055 8.00297 12.7669 7.55513C12.6283 7.10729 12.6016 6.63229 12.6893 6.17175H4.5975C3.97396 6.17334 3.37654 6.42231 2.93641 6.86399C2.49627 7.30567 2.2494 7.90396 2.25 8.5275V16.8225C2.25 18.1125 3.3075 19.17 4.5975 19.17H8.1525L10.005 21.045C10.3275 21.375 10.875 21.375 11.1975 21.045L13.05 19.17H16.5975C17.9025 19.17 18.9525 18.12 18.9525 16.8225V11.55C18.578 11.7243 18.1701 11.8154 17.757 11.817ZM7.00425 13.668C6.74208 13.668 6.49066 13.5639 6.30528 13.3785C6.1199 13.1931 6.01575 12.9417 6.01575 12.6795C6.01575 12.4173 6.1199 12.1659 6.30528 11.9805C6.49066 11.7951 6.74208 11.691 7.00425 11.691C7.26642 11.691 7.51785 11.7951 7.70323 11.9805C7.88861 12.1659 7.99275 12.4173 7.99275 12.6795C7.99275 12.9417 7.88861 13.1931 7.70323 13.3785C7.51785 13.5639 7.26642 13.668 7.00425 13.668ZM10.5975 13.668C10.3353 13.668 10.0839 13.5639 9.89853 13.3785C9.71315 13.1931 9.609 12.9417 9.609 12.6795C9.609 12.4173 9.71315 12.1659 9.89853 11.9805C10.0839 11.7951 10.3353 11.691 10.5975 11.691C10.8597 11.691 11.1111 11.7951 11.2965 11.9805C11.4819 12.1659 11.586 12.4173 11.586 12.6795C11.586 12.9417 11.4819 13.1931 11.2965 13.3785C11.1111 13.5639 10.8597 13.668 10.5975 13.668ZM14.19 13.668C13.9278 13.668 13.6764 13.5639 13.491 13.3785C13.3056 13.1931 13.2015 12.9417 13.2015 12.6795C13.2015 12.4173 13.3056 12.1659 13.491 11.9805C13.6764 11.7951 13.9278 11.691 14.19 11.691C14.4522 11.691 14.7036 11.7951 14.889 11.9805C15.0744 12.1659 15.1785 12.4173 15.1785 12.6795C15.1785 12.9417 15.0744 13.1931 14.889 13.3785C14.7036 13.5639 14.4522 13.668 14.19 13.668Z" fill="#101035"/>
</g>
<defs>
<clipPath id="clip0_1_8675">
<rect width="24" height="24" fill="white"/>
</clipPath>
</defs>
</svg>
