<svg width="160" height="160" viewBox="0 0 160 160" fill="none" xmlns="http://www.w3.org/2000/svg">
<path opacity="0.2" d="M135.881 41.7861C149.647 59.1621 151.164 90.0657 138.098 110.59C125.149 130.998 97.6168 140.911 73.8182 138.695C50.0196 136.596 29.8374 122.369 20.038 103.827C10.2386 85.2844 10.8219 62.4274 20.8546 47.1505C30.8874 31.8736 50.4862 24.2935 73.3516 22.4276C96.1002 20.5617 122.115 24.4101 135.881 41.7861Z" fill="#FDE4B6"/>
<circle opacity="0.7" cx="151.05" cy="108.85" r="4.05" fill="#F9A915"/>
<circle opacity="0.7" cx="16.1" cy="125.5" r="8.1" fill="#F9A915"/>
<circle opacity="0.7" cx="18.35" cy="33.25" r="3.15" fill="#F9A915"/>
<path d="M122.392 51.3157C132.832 64.4145 133.982 87.7111 124.073 103.184C114.252 118.568 93.3724 126.041 75.3238 124.37C57.2752 122.788 41.9693 112.063 34.5375 98.0847C27.1057 84.1067 27.5481 66.8761 35.1568 55.3596C42.7655 43.8432 57.6291 38.129 74.9699 36.7224C92.2223 35.3158 111.952 38.2169 122.392 51.3157Z" fill="#F9A915"/>
<path fill-rule="evenodd" clip-rule="evenodd" d="M99.3999 80.5C99.3999 90.9382 90.9381 99.4 80.4999 99.4C70.0617 99.4 61.5999 90.9382 61.5999 80.5C61.5999 70.0618 70.0617 61.6 80.4999 61.6C90.9381 61.6 99.3999 70.0618 99.3999 80.5ZM102.1 80.5C102.1 92.4294 92.4293 102.1 80.4999 102.1C68.5706 102.1 58.8999 92.4294 58.8999 80.5C58.8999 68.5707 68.5706 58.9 80.4999 58.9C92.4293 58.9 102.1 68.5707 102.1 80.5ZM90.8876 75.1712C91.424 74.6533 91.439 73.7987 90.9211 73.2623C90.4032 72.7259 89.5486 72.7109 89.0122 73.2288L76.9165 84.9074L72.4545 80.4454C71.9273 79.9182 71.0725 79.9182 70.5453 80.4454C70.0181 80.9726 70.0181 81.8274 70.5453 82.3546L75.32 87.1293C76.1878 87.9971 77.5909 88.0094 78.4738 87.1569L90.8876 75.1712Z" fill="white"/>
</svg>
