<svg width="24" height="24" viewBox="0 0 24 24" fill="none" xmlns="http://www.w3.org/2000/svg">
<path fill-rule="evenodd" clip-rule="evenodd" d="M12.2731 3.23492C10.528 3.17636 8.80847 3.66656 7.35657 4.63652C5.7241 5.72792 4.52855 7.35979 3.98004 9.24532C3.8315 9.22719 3.65364 9.23519 3.44244 9.29492C2.6539 9.51892 2.0611 10.1648 1.79444 10.7339C1.4483 11.4755 1.30244 12.4565 1.4563 13.4688C1.6091 14.4781 2.0355 15.3101 2.56884 15.8267C3.10377 16.3435 3.70777 16.5115 4.30777 16.3853C5.2011 16.1947 5.64404 16.052 5.51897 15.22L4.91364 11.1853C4.97511 10.0872 5.29105 9.01845 5.83651 8.06342C6.38196 7.10839 7.14199 6.29325 8.05657 5.68239C9.28912 4.85781 10.7492 4.44046 12.2313 4.48906C13.7135 4.53766 15.1431 5.04977 16.319 5.95332C17.1308 6.57577 17.7984 7.36647 18.276 8.27118C18.7535 9.17588 19.0297 10.1732 19.0856 11.1947L18.6622 14.0168C18.2027 15.2763 17.3956 16.3797 16.3344 17.1991C15.2732 18.0185 14.0015 18.5202 12.6667 18.6461H10.8624C10.752 18.6459 10.6427 18.6674 10.5406 18.7096C10.4386 18.7517 10.3458 18.8135 10.2677 18.8916C10.1896 18.9696 10.1277 19.0623 10.0855 19.1643C10.0434 19.2664 10.0217 19.3757 10.0219 19.4861V19.9293C10.0217 20.0398 10.0433 20.1491 10.0855 20.2512C10.1276 20.3532 10.1895 20.446 10.2676 20.524C10.3457 20.6021 10.4385 20.664 10.5406 20.7061C10.6426 20.7483 10.752 20.7698 10.8624 20.7696H13.1374C13.2477 20.7698 13.3569 20.7481 13.4588 20.706C13.5608 20.6638 13.6533 20.6019 13.7313 20.5239C13.8092 20.4458 13.8709 20.3531 13.9129 20.2512C13.9549 20.1492 13.9764 20.0399 13.976 19.9296V19.6976C16.02 19.1971 17.8006 17.9456 18.9638 16.192L19.6926 16.3853C20.2856 16.5392 20.8968 16.3432 21.4315 15.8267C21.9648 15.3099 22.391 14.4781 22.544 13.4688C22.6987 12.4563 22.5483 11.4771 22.2064 10.7339C21.8632 9.99066 21.352 9.51866 20.7619 9.34932C20.5147 9.27812 20.2464 9.25199 20.0163 9.24532C19.521 7.54001 18.4943 6.03731 17.0856 4.95599C15.701 3.89302 14.0178 3.29108 12.2731 3.23492Z" fill="#101035"/>
<path fill-rule="evenodd" clip-rule="evenodd" d="M14.9361 10.4933C15.2251 10.4937 15.5021 10.6086 15.7064 10.813C15.9107 11.0174 16.0256 11.2944 16.0259 11.5834C16.0254 11.8724 15.9104 12.1494 15.7061 12.3537C15.5018 12.5581 15.2248 12.6731 14.9358 12.6736C14.6465 12.6736 14.369 12.5589 14.1643 12.3545C13.9596 12.15 13.8444 11.8727 13.8441 11.5834C13.8441 11.4402 13.8724 11.2983 13.9273 11.1659C13.9822 11.0336 14.0627 10.9133 14.1641 10.8121C14.2654 10.7108 14.3858 10.6305 14.5182 10.5758C14.6506 10.5211 14.7925 10.4929 14.9358 10.493L14.9361 10.4933ZM12.0001 10.4933C12.2156 10.4934 12.4263 10.5574 12.6055 10.6773C12.7847 10.7971 12.9244 10.9674 13.0068 11.1666C13.0892 11.3658 13.1108 11.5849 13.0687 11.7963C13.0266 12.0078 12.9227 12.202 12.7703 12.3544C12.6178 12.5068 12.4236 12.6106 12.2122 12.6526C12.0007 12.6947 11.7816 12.6731 11.5824 12.5906C11.3832 12.5081 11.213 12.3684 11.0932 12.1892C10.9734 12.01 10.9094 11.7993 10.9094 11.5837C10.9093 11.4404 10.9374 11.2985 10.9921 11.1662C11.0469 11.0338 11.1272 10.9135 11.2285 10.8122C11.3298 10.7109 11.4501 10.6305 11.5825 10.5758C11.7149 10.521 11.8568 10.4932 12.0001 10.4933ZM9.06486 10.4933C9.21005 10.4901 9.35442 10.5159 9.48949 10.5693C9.62456 10.6226 9.74762 10.7024 9.85143 10.8039C9.95525 10.9055 10.0377 11.0267 10.0941 11.1606C10.1504 11.2945 10.1794 11.4382 10.1794 11.5834C10.1794 11.7287 10.1504 11.8724 10.0941 12.0063C10.0377 12.1401 9.95525 12.2614 9.85143 12.3629C9.74762 12.4645 9.62456 12.5443 9.48949 12.5976C9.35442 12.651 9.21005 12.6768 9.06486 12.6736C8.77866 12.6691 8.50569 12.5523 8.30488 12.3483C8.10407 12.1443 7.99151 11.8695 7.99151 11.5833C7.99151 11.2971 8.10407 11.0223 8.30488 10.8183C8.50569 10.6143 8.77866 10.4978 9.06486 10.4933ZM12.0001 5.80957C8.80273 5.80957 6.2262 8.3013 6.2262 11.5832C6.2262 13.1594 6.8222 14.5525 7.79313 15.5746L7.4486 17.1192C7.335 17.6274 7.68753 17.9693 8.1446 17.7149L9.6526 16.8736C10.3935 17.1944 11.1927 17.3591 12.0001 17.3573C15.1985 17.3573 17.7734 14.8672 17.7734 11.584C17.7734 8.30184 15.1985 5.8101 12.0001 5.8101V5.80957Z" fill="#101035"/>
</svg>
