<svg width="24" height="24" viewBox="0 0 24 24" fill="none" xmlns="http://www.w3.org/2000/svg">
<path d="M17.8125 8.28299C17.4884 6.98726 16.7406 5.83697 15.688 5.01477C14.6354 4.19257 13.3383 3.74559 12.0027 3.74481C10.667 3.74404 9.36939 4.18951 8.31583 5.01049C7.26228 5.83147 6.5132 6.98089 6.18754 8.27624C4.65142 8.4204 3.22986 9.15078 2.21816 10.3157C1.20646 11.4805 0.682383 12.9904 0.754785 14.5315C0.827186 16.0727 1.4905 17.5268 2.60695 18.5917C3.7234 19.6566 5.20717 20.2505 6.75004 20.25H9.00004C9.19896 20.25 9.38972 20.171 9.53037 20.0303C9.67103 19.8897 9.75004 19.6989 9.75004 19.5C9.75004 19.3011 9.67103 19.1103 9.53037 18.9697C9.38972 18.829 9.19896 18.75 9.00004 18.75H6.75004C6.1591 18.7517 5.57359 18.637 5.02697 18.4125C4.48034 18.1879 3.9833 17.8579 3.56422 17.4412C2.71784 16.5998 2.2404 15.4566 2.23692 14.2631C2.23344 13.0696 2.70421 11.9237 3.54566 11.0773C4.38711 10.2309 5.53032 9.75347 6.72379 9.74999C6.91624 9.76447 7.1072 9.70696 7.25964 9.58862C7.41208 9.47027 7.51513 9.29952 7.54879 9.10949C7.70151 8.03853 8.23548 7.05863 9.05263 6.34974C9.86978 5.64085 10.9153 5.25056 11.997 5.25056C13.0788 5.25056 14.1243 5.64085 14.9415 6.34974C15.7586 7.05863 16.2926 8.03853 16.4453 9.10949C16.4845 9.29292 16.5862 9.45705 16.733 9.57386C16.8797 9.69067 17.0625 9.75292 17.25 9.74999C18.4435 9.74999 19.5881 10.2241 20.432 11.068C21.2759 11.9119 21.75 13.0565 21.75 14.25C21.75 15.4435 21.2759 16.5881 20.432 17.432C19.5881 18.2759 18.4435 18.75 17.25 18.75H15C14.8011 18.75 14.6104 18.829 14.4697 18.9697C14.3291 19.1103 14.25 19.3011 14.25 19.5C14.25 19.6989 14.3291 19.8897 14.4697 20.0303C14.6104 20.171 14.8011 20.25 15 20.25H17.25C18.7816 20.234 20.2491 19.6328 21.3518 18.5697C22.4544 17.5066 23.1087 16.062 23.1806 14.532C23.2526 13.002 22.7366 11.5025 21.7386 10.3406C20.7405 9.17878 19.3359 8.44261 17.8125 8.28299Z" fill="#131842"/>
<path d="M15.2198 14.7802C15.3613 14.9168 15.5507 14.9924 15.7474 14.9907C15.944 14.989 16.1321 14.9101 16.2712 14.7711C16.4102 14.632 16.4891 14.4439 16.4908 14.2473C16.4925 14.0506 16.4169 13.8612 16.2803 13.7197L12.5303 9.96971C12.3897 9.82911 12.1989 9.75012 12.0001 9.75012C11.8012 9.75012 11.6105 9.82911 11.4698 9.96971L7.71981 13.7197C7.58319 13.8612 7.5076 14.0506 7.50931 14.2473C7.51101 14.4439 7.58989 14.632 7.72895 14.7711C7.868 14.9101 8.05611 14.989 8.25276 14.9907C8.44941 14.9924 8.63886 14.9168 8.78031 14.7802L11.2501 12.3105V21.75C11.2501 21.9489 11.3291 22.1396 11.4697 22.2803C11.6104 22.4209 11.8011 22.5 12.0001 22.5C12.199 22.5 12.3897 22.4209 12.5304 22.2803C12.671 22.1396 12.7501 21.9489 12.7501 21.75V12.3105L15.2198 14.7802Z" fill="#131842"/>
</svg>
