<svg width="135" height="135" viewBox="0 0 135 135" fill="none" xmlns="http://www.w3.org/2000/svg">
<g clip-path="url(#clip0_16_10898)">
<path d="M22.1857 102.721C21.6588 101.806 20.4663 101.501 19.5511 102.028L14.7258 104.829V99.2549C14.7258 98.2011 13.8661 97.3414 12.8122 97.3414C11.7584 97.3414 10.8987 98.2011 10.8987 99.2549V104.829L6.07334 102.028C5.15818 101.501 3.96569 101.806 3.43878 102.721C2.91187 103.637 3.21693 104.829 4.13209 105.356L8.98521 108.185L4.13209 111.013C3.21693 111.54 2.91187 112.733 3.43878 113.648C3.96569 114.563 5.15818 114.868 6.07334 114.341L10.8987 111.54V117.114C10.8987 118.168 11.7584 119.028 12.8122 119.028C13.8661 119.028 14.7258 118.168 14.7258 117.114V111.54L19.5511 114.341C20.4663 114.868 21.6588 114.563 22.1857 113.648C22.7126 112.733 22.4076 111.54 21.4924 111.013L16.6393 108.185L21.4924 105.356C22.4076 104.801 22.7403 103.637 22.1857 102.721ZM39.9065 113.62C40.4334 114.535 41.6259 114.84 42.5411 114.313L47.3665 111.513V117.087C47.3665 118.141 48.2262 119 49.28 119C50.3338 119 51.1935 118.141 51.1935 117.087V111.513L56.0189 114.313C56.9341 114.84 58.1265 114.535 58.6535 113.62C59.1804 112.705 58.8753 111.513 57.9601 110.986L53.107 108.157L57.9601 105.328C58.8753 104.801 59.1804 103.609 58.6535 102.694C58.1265 101.779 56.9341 101.474 56.0189 102L51.1935 104.801V99.2272C51.1935 98.1734 50.3338 97.3137 49.28 97.3137C48.2262 97.3137 47.3665 98.1734 47.3665 99.2272V104.801L42.5411 102.028C41.6259 101.501 40.4334 101.806 39.9065 102.721C39.3796 103.637 39.6847 104.829 40.5998 105.356L45.453 108.185L40.5998 110.986C39.6847 111.513 39.3796 112.705 39.9065 113.62ZM36.4677 128.152V131.535C36.4677 132.339 37.1333 133.005 37.9376 133.005H60.6502C61.4544 133.005 62.12 132.339 62.12 131.535V128.152C62.12 127.348 61.4544 126.682 60.6502 126.682H37.9376C37.1056 126.682 36.4677 127.348 36.4677 128.152ZM91.8211 33.5853H91.6547V26.0421C91.6547 12.9248 80.9223 1.77652 67.8328 1.99837C55.1037 2.22023 44.7874 12.6475 44.7874 25.432V26.1531C44.7874 27.2346 45.6748 28.122 46.7564 28.122H53.0516C54.1331 28.122 55.0205 27.2346 55.0205 26.1531V25.9312C55.0205 18.8872 60.3174 12.703 67.3613 12.2593C75.0154 11.7878 81.3938 17.8612 81.3938 25.4043V33.5575H61.9813V33.5853H44.0386C40.7108 33.6962 38.0207 36.3862 38.0207 39.7418V73.8523C38.0207 77.2634 40.794 80.0366 44.205 80.0366H91.7933C95.2044 80.0366 97.9776 77.2634 97.9776 73.8523V39.7695C98.0053 36.3585 95.2321 33.5853 91.8211 33.5853ZM71.6876 58.3501C71.2161 58.6828 71.0774 59.0434 71.0774 59.598C71.1052 62.0939 71.1052 64.5898 71.0774 67.1134C71.1329 68.1672 70.606 69.1656 69.6631 69.637C67.4723 70.7463 65.2814 69.1933 65.2814 67.1134V59.5703C65.2814 59.0711 65.1705 58.7106 64.7268 58.3778C62.4528 56.7139 61.704 53.8575 62.841 51.3338C63.9503 48.8934 66.6403 47.4513 69.1639 47.9782C71.9926 48.5329 73.9616 50.8347 73.9893 53.6356C74.0725 55.6046 73.2683 57.213 71.6876 58.3501ZM72.9078 128.152V131.535C72.9078 132.339 73.5733 133.005 74.3776 133.005H97.0902C97.8944 133.005 98.56 132.339 98.56 131.535V128.152C98.56 127.348 97.8944 126.682 97.0902 126.682H74.3776C73.5733 126.682 72.9078 127.348 72.9078 128.152ZM76.3465 113.62C76.8735 114.535 78.0659 114.84 78.9811 114.313L83.8065 111.513V117.087C83.8065 118.141 84.6662 119 85.72 119C86.7738 119 87.6335 118.141 87.6335 117.087V111.513L92.4589 114.313C93.3741 114.84 94.5666 114.535 95.0935 113.62C95.6204 112.705 95.3153 111.513 94.4002 110.986L89.547 108.157L94.4002 105.328C95.3153 104.801 95.6204 103.609 95.0935 102.694C94.5666 101.779 93.3741 101.474 92.4589 102L87.6335 104.801V99.2272C87.6335 98.1734 86.7738 97.3137 85.72 97.3137C84.6662 97.3137 83.8065 98.1734 83.8065 99.2272V104.801L78.9811 102C78.0659 101.474 76.8735 101.779 76.3465 102.694C75.8196 103.609 76.1247 104.801 77.0398 105.328L81.893 108.157L77.0398 110.986C76.1247 111.513 75.8196 112.705 76.3465 113.62ZM133.53 126.682H110.818C110.013 126.682 109.348 127.348 109.348 128.152V131.535C109.348 132.339 110.013 133.005 110.818 133.005H133.53C134.334 133.005 135 132.339 135 131.535V128.152C135 127.348 134.334 126.682 133.53 126.682ZM1.4698 133.005H24.1824C24.9866 133.005 25.6522 132.339 25.6522 131.535V128.152C25.6522 127.348 24.9866 126.682 24.1824 126.682H1.4698C0.665571 126.682 0 127.348 0 128.152V131.535C0 132.339 0.665571 133.005 1.4698 133.005ZM112.814 113.62C113.341 114.535 114.534 114.84 115.449 114.313L120.274 111.513V117.087C120.274 118.141 121.134 119 122.188 119C123.242 119 124.101 118.141 124.101 117.087V111.513L128.927 114.313C129.842 114.84 131.034 114.535 131.561 113.62C132.088 112.705 131.783 111.513 130.868 110.986L126.015 108.157L130.868 105.328C131.783 104.801 132.088 103.609 131.561 102.694C131.034 101.779 129.842 101.474 128.927 102L124.101 104.801V99.2272C124.101 98.1734 123.242 97.3137 122.188 97.3137C121.134 97.3137 120.274 98.1734 120.274 99.2272V104.801L115.449 102C114.534 101.474 113.341 101.779 112.814 102.694C112.287 103.609 112.592 104.801 113.508 105.328L118.361 108.157L113.508 110.986C112.592 111.513 112.26 112.705 112.814 113.62Z" fill="#101035"/>
</g>
<defs>
<clipPath id="clip0_16_10898">
<rect width="135" height="135" fill="white"/>
</clipPath>
</defs>
</svg>
