<svg width="43" height="15" viewBox="0 0 43 15" fill="none" xmlns="http://www.w3.org/2000/svg">
    <path d="M16.3257 0.266941L10.6962 14.7735H7.02333L4.25342 3.19495C4.085 2.48278 3.93987 2.22153 3.42746 1.92157C2.59254 1.43195 1.21296 0.973302 0 0.686887L0.0824167 0.266941H5.99492C6.38129 0.266523 6.75507 0.415305 7.04879 0.686431C7.34251 0.957557 7.53683 1.33317 7.59667 1.74546L9.06046 10.1405L12.676 0.266941H16.3257ZM30.7181 10.0379C30.7325 6.20811 25.8161 5.99717 25.8502 4.28642C25.8609 3.76584 26.3196 3.21237 27.3229 3.0711C28.4988 2.95047 29.683 3.17513 30.7504 3.72133L31.3595 0.644311C30.3203 0.222324 29.2197 0.00409019 28.1095 -0.00012207C24.6748 -0.00012207 22.2579 1.97382 22.2364 4.79732C22.2149 6.88544 23.9618 8.04852 25.2786 8.7452C26.6331 9.45543 27.0882 9.91215 27.081 10.5469C27.0721 11.5223 26.0025 11.9499 25.0027 11.9674C23.2558 11.9964 22.2435 11.4584 21.4337 11.052L20.8048 14.2297C21.6165 14.6322 23.1143 14.9844 24.6677 14.9999C28.3173 14.9999 30.7056 13.053 30.7181 10.0379ZM39.7857 14.7735H43L40.196 0.266941H37.229C36.912 0.263768 36.6014 0.363545 36.3376 0.553333C36.0737 0.743121 35.8687 1.01417 35.7491 1.33132L30.5372 14.7735H34.185L34.9106 12.606H39.3683L39.7857 14.7735ZM35.9104 9.63347L37.7379 4.18579L38.7914 9.63347H35.9104ZM21.2904 0.266941L18.4183 14.7735H14.9425L17.8181 0.266941H21.2904Z" fill="white"/>
</svg>
