<svg width="20" height="20" viewBox="0 0 20 20" fill="none" xmlns="http://www.w3.org/2000/svg">
<path d="M10.0025 0H9.9975C4.48375 0 0 4.485 0 10C0 12.1875 0.705 14.215 1.90375 15.8612L0.6575 19.5763L4.50125 18.3475C6.0825 19.395 7.96875 20 10.0025 20C15.5162 20 20 15.5138 20 10C20 4.48625 15.5162 0 10.0025 0Z" fill="#4CAF50"/>
<path d="M15.8211 14.1213C15.5799 14.8025 14.6224 15.3675 13.8586 15.5325C13.3361 15.6438 12.6536 15.7325 10.3561 14.78C7.41738 13.5625 5.52488 10.5763 5.37738 10.3825C5.23613 10.1888 4.18988 8.80126 4.18988 7.36626C4.18988 5.93126 4.91863 5.23251 5.21238 4.93251C5.45363 4.68626 5.85238 4.57376 6.23488 4.57376C6.35863 4.57376 6.46988 4.58001 6.56988 4.58501C6.86363 4.59751 7.01113 4.61501 7.20488 5.07876C7.44613 5.66001 8.03363 7.09501 8.10363 7.24251C8.17488 7.39001 8.24613 7.59001 8.14613 7.78376C8.05238 7.98376 7.96988 8.07251 7.82238 8.24251C7.67488 8.41251 7.53488 8.54251 7.38738 8.72501C7.25238 8.88376 7.09988 9.05376 7.26988 9.34751C7.43988 9.63501 8.02738 10.5938 8.89238 11.3638C10.0086 12.3575 10.9136 12.675 11.2374 12.81C11.4786 12.91 11.7661 12.8863 11.9424 12.6988C12.1661 12.4575 12.4424 12.0575 12.7236 11.6638C12.9236 11.3813 13.1761 11.3463 13.4411 11.4463C13.7111 11.54 15.1399 12.2463 15.4336 12.3925C15.7274 12.54 15.9211 12.61 15.9924 12.7338C16.0624 12.8575 16.0624 13.4388 15.8211 14.1213Z" fill="#FAFAFA"/>
</svg>
